<svg width="142" height="198" viewBox="0 0 142 198" fill="none" xmlns="http://www.w3.org/2000/svg">
<g clip-path="url(#clip0_1_589)">
<path fill-rule="evenodd" clip-rule="evenodd" d="M66.68 60.21C58.4129 60.2435 40.549 66.0274 40.235 69.2625C33.2814 77.1272 42.7295 76.7537 58.645 73.181C69.704 75.7326 79.908 79.5976 91.158 79.318C100.97 79.0007 110.803 79.0614 120.592 79.8855C132.841 79.4366 137.447 77.1708 140.462 70.792L140.229 70.8676C141.34 70.0738 142.878 68.1028 138.217 67.4622C136.874 67.0409 136.882 69.5884 124.586 68.2316C108.625 66.4703 92.584 61.6856 78.825 60.7145C74.5253 60.4111 70.438 60.1948 66.68 60.21Z" fill="url(#paint0_linear_1_589)" stroke="black" stroke-width="0.86783"/>
<path fill-rule="evenodd" clip-rule="evenodd" d="M74.7254 157.326C59.9264 158.939 42.953 171.617 49.6999 174.382C56.4467 177.147 76.027 178.3 79.7268 175.074C81.6279 173.417 85.0292 169.266 85.4301 165.37C85.8315 169.265 89.2229 173.417 91.1239 175.074C94.8236 178.3 114.414 177.147 121.16 174.382C127.906 171.617 110.934 158.939 96.1347 157.326C88.5143 158.104 85.7731 160.814 85.4302 163.924C85.0868 160.814 82.3456 158.104 74.7254 157.326Z" fill="url(#paint1_radial_1_589)" stroke="black" stroke-width="1.51991"/>
<path fill-rule="evenodd" clip-rule="evenodd" d="M74.7283 157.336C67.4648 158.128 59.6846 161.585 54.4348 165.228C62.3853 169.12 72.1062 171.519 82.6435 171.795C83.9938 169.914 85.2034 167.608 85.4326 165.38C85.6601 167.587 86.8413 169.873 88.1737 171.744C98.5381 171.28 108.058 168.764 115.805 164.8C110.575 161.316 103.118 158.097 96.1371 157.336C88.5168 158.114 85.7755 160.825 85.4326 163.934C85.0892 160.825 82.3484 158.114 74.7283 157.336Z" fill="black" fill-opacity="0.3137"/>
<path d="M135.647 112.016C135.647 126.324 130.279 140.047 120.722 150.164C111.166 160.282 98.2043 165.966 84.6894 165.966C71.1745 165.966 58.2132 160.282 48.6567 150.164C39.1002 140.047 33.7315 126.324 33.7315 112.016C33.7315 97.7076 39.1002 83.9852 48.6567 73.8676C58.2132 63.75 71.1745 58.066 84.6894 58.066C98.2043 58.066 111.166 63.75 120.722 73.8676C130.279 83.9852 135.647 97.7076 135.647 112.016Z" fill="url(#paint2_radial_1_589)" stroke="black" stroke-width="1.51991" stroke-linecap="round"/>
<path d="M109.871 138.986C109.871 142.421 109.232 145.821 107.99 148.995C106.749 152.168 104.929 155.051 102.635 157.479C100.342 159.908 97.6183 161.834 94.6212 163.149C91.6241 164.463 88.4118 165.14 85.1678 165.14C81.9237 165.14 78.7115 164.463 75.7144 163.149C72.7172 161.834 69.994 159.908 67.7001 157.479C65.4062 155.051 63.5866 152.168 62.3452 148.995C61.1037 145.821 60.4648 142.421 60.4648 138.986C60.4648 135.551 61.1037 132.151 62.3452 128.978C63.5866 125.804 65.4062 122.921 67.7001 120.493C69.994 118.064 72.7172 116.138 75.7144 114.823C78.7115 113.509 81.9237 112.833 85.1678 112.833C88.4118 112.833 91.6241 113.509 94.6212 114.823C97.6183 116.138 100.342 118.064 102.635 120.493C104.929 122.921 106.749 125.804 107.99 128.978C109.232 132.151 109.871 135.551 109.871 138.986Z" fill="white" stroke="black" stroke-width="1.58338" stroke-linecap="round"/>
<path d="M133.635 97.016C133.739 98.4187 133.799 99.8315 133.799 101.262C133.799 131.041 110.962 155.209 82.8344 155.209C59.6223 155.209 40.0316 138.75 33.8893 116.261C35.9388 144.056 57.9052 165.962 84.681 165.962C112.808 165.962 135.646 141.794 135.646 112.015C135.646 106.811 134.936 101.778 133.635 97.016Z" fill="black" fill-opacity="0.3137"/>
<path d="M77.8256 76.6378C75.8058 75.9783 73.755 77.087 72.383 78.7095C68.6015 83.1812 67.0948 84.2555 61.728 91.699C61.728 100.304 67.4611 107.288 74.52 107.288C78.6682 107.288 82.3493 104.873 84.686 101.138C87.0227 104.876 90.7118 107.288 94.862 107.288C101.921 107.288 107.654 100.304 107.654 91.699C102.18 84.4067 101.971 84.3913 96.9691 78.574C95.631 77.0177 93.6351 75.9852 91.6763 76.5982C88.8518 77.482 86.4036 79.5133 84.686 82.2603C82.9934 79.5551 80.5953 77.5421 77.8256 76.6378Z" fill="white" stroke="black" stroke-width="1.5834" stroke-linecap="round"/>
<path d="M82.45 94.45C82.4453 95.3444 82.1064 96.2004 81.5074 96.831C80.9084 97.4617 80.0979 97.8157 79.2532 97.8157C78.4084 97.8157 77.5979 97.4617 76.9989 96.831C76.3999 96.2004 76.061 95.3444 76.0563 94.45C76.054 94.004 76.1349 93.5618 76.2945 93.149C76.4541 92.7361 76.6892 92.3608 76.9863 92.0445C77.2834 91.7282 77.6366 91.4772 78.0256 91.3059C78.4147 91.1346 78.8318 91.0465 79.2532 91.0465C79.6745 91.0465 80.0917 91.1346 80.4807 91.3059C80.8697 91.4772 81.2229 91.7282 81.52 92.0445C81.8171 92.3608 82.0522 92.7361 82.2118 93.149C82.3714 93.5618 82.4524 94.004 82.45 94.45Z" fill="black" stroke="black" stroke-width="1.5834" stroke-linecap="round"/>
<path d="M93.89 94.45C93.8924 94.8961 93.8114 95.3382 93.6518 95.751C93.4922 96.1639 93.2571 96.5392 92.96 96.8555C92.6629 97.1718 92.3097 97.4228 91.9207 97.5941C91.5316 97.7654 91.1145 97.8535 90.6932 97.8535C90.2718 97.8535 89.8547 97.7654 89.4656 97.5941C89.0766 97.4228 88.7234 97.1718 88.4263 96.8555C88.1292 96.5392 87.8941 96.1639 87.7345 95.751C87.5749 95.3382 87.494 94.8961 87.4963 94.45C87.494 94.004 87.5749 93.5618 87.7345 93.149C87.8941 92.7361 88.1292 92.3608 88.4263 92.0445C88.7234 91.7282 89.0766 91.4772 89.4656 91.3059C89.8547 91.1346 90.2718 91.0465 90.6932 91.0465C91.1145 91.0465 91.5316 91.1346 91.9207 91.3059C92.3097 91.4772 92.6629 91.7282 92.96 92.0445C93.2571 92.3608 93.4922 92.7361 93.6518 93.149C93.8114 93.5618 93.8924 94.004 93.89 94.45Z" fill="black" stroke="black" stroke-width="1.5834" stroke-linecap="round"/>
<path d="M75.6327 109.85C73.6718 108.859 72.4323 109.914 71.4602 112.384C70.7 117.224 68.6359 122.331 72.4492 125.798C72.1631 130.019 73.1097 132.236 75.2927 133C75.0366 138.95 76.7027 138.102 78.1053 141.685C77.4978 146.561 78.0655 143.728 78.6925 146.785C79.9117 153.675 80.6135 153.345 81.6596 154.542C82.6547 157.601 84.1936 156.772 85.2758 155.624C86.3068 151.719 87.4863 150.907 87.2848 148.763C89.7449 146.823 88.9425 145.088 89.8192 144.065C92.1255 138.619 92.3367 137.999 92.4772 134.947C97.0215 125.742 95.3368 126.957 95.2589 124.222C96.2514 121.537 97.4411 116.963 96.1243 116.124C99.0612 113.567 97.4251 113.929 96.4334 112.354C95.513 110.398 95.3768 111.325 92.3845 110.499C86.7545 112.777 83.2396 111.526 75.6327 109.85Z" fill="#D2D2D2" stroke="black"/>
<path d="M72.9427 114.76C71.4873 116.793 72.3453 119.289 73.3135 121.807C74.4066 132.068 74.6987 127.109 75.3534 129.039C75.4205 132.565 76.319 133.63 76.6515 135.344C78.9666 138.466 79.8541 149.362 79.9895 147.769C80.0899 145.706 81.1367 140.459 79.4332 133.861C80.114 131.885 81.4556 131.23 79.8041 124.589C81.0321 120.493 81.6598 117.447 80.9168 116.8C82.1402 114.469 81.7941 113.054 80.5459 112.164C75.1233 112.168 75.271 110.311 74.2511 109.91C73.2353 110.929 73.0545 110.577 72.9427 114.76Z" fill="#B9B9B9"/>
<path d="M83.5127 113.47C82.635 117.061 81.5194 120.772 83.5127 122.928C82.454 126.966 86.2082 133.27 82.2146 141.287C82.2618 146.77 81.6232 154.311 83.5127 154.268C84.4267 153.087 83.8646 148.685 85.2306 137.11C85.6637 134.082 87.785 135.979 86.4308 128.929C87.9361 126.307 89.7254 123.837 88.8905 116.066C87.6862 113.73 86.632 111.019 83.5127 113.47Z" fill="#A9A9A9"/>
<path d="M93.2527 111.36C90.0028 110.077 91.1212 122.475 90.1877 132.383C87.3958 136.621 86.2121 143.476 86.2934 149.629C87.931 144.712 89.9158 141.531 91.115 134.423C93.6571 131.734 94.3696 127.581 94.453 122.925C94.4128 119.294 95.924 111.921 93.2527 111.36Z" fill="#BABABA"/>
<path d="M71.3927 118.54C71.0546 120.448 71.8668 122.556 72.7339 124.675C73.3784 130.131 74.2563 130.236 74.8804 131.869C76.8849 132.459 75.6241 135.394 76.2307 136.677C78.5543 139.008 80.6024 148.121 80.1391 146.81C79.8433 144.995 79.4586 140.31 77.5735 134.685C77.5616 132.896 78.0754 132.205 76.2073 126.538C76.0975 122.845 75.8835 120.124 75.4314 119.623C75.6124 117.475 75.7535 116.159 75.0267 115.491C72.5109 115.971 73.334 111.296 72.7941 111.034C72.4918 112.015 70.7506 114.869 71.3927 118.54Z" fill="#A9A9A9"/>
<path d="M78.9627 115.96C78.6311 119.384 78.1508 122.942 79.6144 124.753C79.0637 128.695 77.441 135.245 80.0232 141.947C80.4322 147.04 80.5306 154.113 81.7741 153.889C82.2957 152.702 83.0033 148.964 80.6385 138.178C80.7156 135.321 83.0386 135.405 81.6595 128.983C82.4718 126.398 83.7758 124.995 82.6895 117.851C81.734 115.796 80.8516 113.378 78.9627 115.96Z" fill="#A9A9A9"/>
<path d="M90.5327 113.22C87.8267 112.009 89.1465 133.522 86.8586 138.801C84.4968 143.302 82.8158 154.526 84.0769 155.024C85.4622 149.802 87.2724 147.122 88.2869 139.572C90.4374 136.716 90.6108 132.95 90.6814 128.005C90.6474 124.149 92.7925 113.816 90.5327 113.22Z" fill="#A2A2A2"/>
<path d="M74.9227 114.62C72.6181 115.864 66.9017 124.854 66.6369 117.938C67.0479 115.631 68.5139 111.653 71.4876 108.675C76.2249 104.348 79.1153 104.463 82.7706 103.659C94.5086 103.342 94.7026 106.425 98.1826 108.754C100.188 111.115 100.919 113.174 101.56 114.611C102.096 116.913 106.425 127.086 94.1801 115.224C84.3314 109.608 79.4727 112.949 74.9227 114.62Z" fill="#A9A9A9" stroke="black"/>
<path d="M75.12 108.47C73.2702 110.188 71.7325 111.629 70.1292 114.589C67.8911 117.117 68.327 116.808 67.5829 118.506C67.3488 121.188 68.7297 118.344 70.9465 113.866C72.3411 112.763 73.5124 111.387 74.5759 110.284L76.6353 109.454L93.1853 108.363C94.9634 110.107 96.184 112.352 97.8034 113.62C99.2028 116.213 101.001 119.773 102.158 120.305C101.517 118.358 101.774 117.438 100.101 114.313C99.271 112.298 97.4895 110.59 95.6943 109.491C92.9993 107.317 93.4377 107.386 91.963 106.89L79.174 106.979L75.12 108.47Z" fill="#8A8A8A"/>
<path d="M76.72 110.17C74.8702 111.888 73.3946 111.143 71.7914 114.103C69.5533 116.631 70.2376 116.135 69.4935 117.834C69.2594 120.515 70.8266 117.237 72.8571 114.249C74.2517 113.146 75.1127 113.086 76.176 111.983L78.2354 111.154L92.4254 109.927C94.2035 111.67 93.3125 112.176 94.932 113.444C96.3314 116.037 99.6826 119.349 100.839 119.881C100.198 117.934 98.8406 116.952 97.1678 113.827C96.3374 111.812 96.7297 112.153 94.9345 111.054C92.2395 108.88 92.6779 108.95 91.2032 108.453L78.6632 105.5L76.72 110.17Z" fill="#9A9A9A"/>
<path d="M74.44 106.96C72.5902 108.678 71.3878 109.722 69.7846 112.681C67.5465 115.21 68.355 115.645 67.6109 117.344C67.3768 120.025 68.3851 116.436 70.6019 111.958C71.9965 110.855 72.8325 109.876 73.8959 108.773L75.8932 106.577L92.5922 106.083C94.3703 107.827 96.4603 109.637 98.0798 110.905C99.4792 113.498 100.408 117.493 101.565 118.025C100.924 116.078 101.181 115.158 99.5082 112.033C98.6778 110.018 96.8964 108.31 95.1012 107.211C92.4062 105.037 92.8446 105.106 91.3699 104.61L78.5809 104.699L74.44 106.96Z" fill="#8C8C8C"/>
<path fill-rule="evenodd" clip-rule="evenodd" d="M85.29 103C80.8338 103 75.99 107.297 76.1838 110.01C76.3776 112.724 84.1275 124.03 85.8712 124.03C87.6149 124.03 94.3962 112.949 94.2024 109.783C94.0086 106.617 88.1962 102.774 85.29 103Z" fill="black" fill-opacity="0.3137"/>
<path fill-rule="evenodd" clip-rule="evenodd" d="M84.59 100.28C80.1338 100.28 75.29 104.177 75.4838 106.639C75.6776 109.1 83.4275 119.357 85.1712 119.357C86.9149 119.357 93.6962 109.306 93.5024 106.434C93.3086 103.562 87.4963 100.075 84.59 100.28Z" fill="url(#paint3_linear_1_589)" stroke="black" stroke-width="1.5834"/>
<path fill-rule="evenodd" clip-rule="evenodd" d="M124.375 99.946C109.567 105.583 128.734 130.622 112.735 152.469C109.778 156.507 130.545 153.15 137.887 130.773C145.027 109.011 138.236 95.732 124.375 99.946Z" fill="white" stroke="black" stroke-width="1.58338"/>
<path fill-rule="evenodd" clip-rule="evenodd" d="M124.375 99.946C109.567 105.583 137.482 133.222 112.735 152.469C105.771 157.885 130.545 153.15 137.887 130.773C145.027 109.011 138.236 95.732 124.375 99.946Z" fill="url(#paint4_radial_1_589)" stroke="black" stroke-width="1.58338"/>
<path fill-rule="evenodd" clip-rule="evenodd" d="M64.92 59.36C64.92 59.36 78.849 17.811 94.356 4.21599C100.81 -1.44241 108.766 0.535796 111.001 1.9739C117.469 6.135 119.851 12.1339 123.357 17.2049C113.088 15.057 116.534 10.9047 105.228 11.7623L111.941 65.1303C97.3884 61.6385 81.148 60.5069 64.92 59.36Z" fill="url(#paint5_linear_1_589)" stroke="black" stroke-width="0.86783"/>
<path fill-rule="evenodd" clip-rule="evenodd" d="M63.6569 59.8427L66.7769 52.9726C74.102 50.6909 89.8654 50.8163 110.434 55.3172L112.44 69.0598C96.8193 65.1503 83.3432 58.4362 63.6569 59.8427Z" fill="url(#paint6_linear_1_589)"/>
<path fill-rule="evenodd" clip-rule="evenodd" d="M93.8355 64.1491L93.9881 51.7396L95.4383 51.1938C100.374 51.2665 104.393 51.9216 107.497 53.1589L109.253 65.0954L107.497 65.7504L93.8355 64.1491ZM98.3417 53.3294L98.8699 60.9324L105.191 61.7561L104.691 59.2574L100.738 57.3655C99.8016 56.1393 102.833 56.5694 104.05 56.3801L103.709 54.0952C101.92 53.3908 100.131 53.2538 98.3417 53.3294Z" fill="#FFCD00" stroke="black" stroke-width="0.433916" stroke-linecap="round" stroke-linejoin="round"/>
<path fill-rule="evenodd" clip-rule="evenodd" d="M93.9941 51.7788L95.5577 51.2015L95.8604 63.5154L93.8932 64.1647L93.9941 51.7788Z" fill="#BC9500" stroke="black" stroke-width="0.434003" stroke-linecap="round" stroke-linejoin="round"/>
<path fill-rule="evenodd" clip-rule="evenodd" d="M98.272 52.6183L98.2952 53.33C99.7832 53.2231 101.523 53.2983 103.72 54.0528L104.088 56.4008L105.388 56.1189L104.809 53.5785C102.33 52.6027 100.286 52.4986 98.272 52.6183Z" fill="#BC9500" stroke="black" stroke-width="0.433916" stroke-linecap="round" stroke-linejoin="round"/>
<path fill-rule="evenodd" clip-rule="evenodd" d="M99.7881 57.2354L104.664 59.0297L105.271 61.8143L106.565 62.0302L105.691 58.1923C103.75 57.8537 101.436 57.6479 99.7881 57.2354Z" fill="#BC9500" stroke="black" stroke-width="0.433916" stroke-linecap="round" stroke-linejoin="round"/>
<path d="M105.32 12.02C104.743 10.6377 104.062 9.23729 104.689 8.48839C105.506 7.51207 107.472 7.11389 106.574 9.68849" stroke="black" stroke-width="0.86783"/>
<path fill-rule="evenodd" clip-rule="evenodd" d="M66.43 60.21C58.1629 60.2435 45.321 63.323 41.53 67.0732C40.919 67.8507 38.2176 71.2402 37.8132 73.0727C37.9201 80.397 47.2532 67.851 54.6812 68.7386C84.7472 70.2431 112.06 77.4162 140.007 70.855C141.115 70.0479 142.587 68.0974 137.966 67.4622C136.624 67.0408 136.631 69.5883 124.335 68.2316C108.374 66.4703 92.3332 61.6855 78.5742 60.7144C74.2745 60.411 70.188 60.1948 66.43 60.21Z" fill="url(#paint7_linear_1_589)" stroke="black" stroke-width="0.86783"/>
<path opacity="0.8034" d="M96.71 60.79C96.5467 57.937 96.1813 51.9492 97.0775 51.6692C97.8427 52.6718 98.3078 66.8612 96.71 60.79Z" fill="white"/>
<path fill-rule="evenodd" clip-rule="evenodd" d="M43.6 67.54L43.9725 69.6664L41.9325 70.3535L44.056 70.6833L44.058 72.3832C44.2037 72.2813 44.2024 72.3782 44.5001 72.1378L45.0468 70.9112L46.0049 71.1842C46.204 71.0495 46.3046 71 46.4463 70.8846L45.566 70.0327L46.8136 68.2563L44.903 69.2679L43.6 67.54ZM79.058 78.016L79.1205 78.1722C79.1707 78.1812 79.2266 78.1632 79.2767 78.1722L79.058 78.016ZM114.026 68.7702L113.214 70.7702L111.12 70.2702L112.745 71.6764L111.844 73.1182C112.022 73.1092 111.969 73.1906 112.349 73.1448L113.463 72.3951L114.104 73.0828C114.303 73.1781 114.473 73.1908 114.64 73.0768L114.37 71.9259L116.37 71.0822L114.213 70.9259L114.026 68.7702ZM127.672 68.8675L127.691 72.4568C129.389 72.0531 128.803 72.5292 135.916 71.2491L136.391 70.805L130.254 72.1311L128.484 68.93H128.453C128.211 68.9175 127.933 68.8882 127.672 68.8675ZM71.276 64.3597L70.776 68.8597L66.2448 69.0785C69.2464 69.4518 69.6147 69.6047 74.4662 69.887L77.3385 67.641L72.901 68.5785L71.276 64.3597ZM106.471 65.7626L107.526 66.9222L107.244 65.9117L106.471 65.7626ZM105.072 65.4977L104.464 66.5471L105.842 65.6419L105.072 65.4977ZM60.1504 61.3772L56.5566 64.8772L53.3066 62.471C53.1585 62.5079 53.0163 62.5582 52.8691 62.596L54.7441 66.4085L51.4291 68.5673C52.7503 68.4672 54.1708 68.0192 55.3496 68.4176C56.6544 68.4297 57.2407 68.4796 57.9942 68.471L63.0254 68.5023L58.5566 66.1585L60.1504 61.3772ZM91.8164 62.9913L90.2761 64.2034L87.9832 62.3376C87.2504 62.1499 86.7818 62.1399 85.4831 61.9482L87.4323 66.3597L81.0885 70.4847L88.6197 69.7347L89.1692 71.549C90.5996 71.6632 90.6316 71.7153 91.759 71.8472L92.1822 69.6722L99.7447 70.0785L93.2135 66.2346L94.2734 63.378C92.9949 63.1252 92.3461 63.102 91.8164 62.9913ZM96.9636 47.0163L94.0886 51.0163L89.6824 48.8288L91.1355 50.8132L92.235 52.2984C93.7214 52.3526 93.8788 52.9019 93.7882 51.612C94.3291 51.3069 95.4804 50.8745 96.3487 50.997L96.6041 49.4538L96.9636 47.0163ZM71.6486 46.9323L69.8048 47.5261C69.5065 48.2744 69.2949 48.8919 69.0236 49.5886L71.6486 46.9323ZM80.8198 51.4874L80.0891 46.0788L78.0438 51.5059L80.8198 51.4874ZM75.8469 51.5783L71.9015 50.7662L73.141 51.7739L75.8469 51.5783ZM88.0269 37.9533L87.7769 40.4845L85.2457 40.6095L87.5269 41.672L86.8707 44.1095L88.5895 42.2345L90.7145 43.6095L89.4645 41.422L91.4332 39.8282L88.9645 40.3282L88.0269 37.9533ZM103.061 35.5158L104.561 43.047L97.3734 45.797L105.03 46.672L105.286 52.1647C105.825 52.3474 105.909 52.3733 106.345 52.5085L108.592 47.3595L109.28 47.547L108.498 41.172L107.873 41.5157L103.061 35.5158ZM79.8879 35.5676L74.9504 36.6614L74.7317 36.0677C73.527 38.7271 72.4563 41.2376 71.4505 43.6615L74.2943 40.4427L78.5755 43.1302L76.013 38.7864L79.8879 35.5676ZM98.7139 24.3286L98.9952 29.1411L94.3077 30.2036L98.9327 31.4224L98.4952 36.2036L101.089 32.1411L105.526 34.0473L102.464 30.3285L105.651 26.7347L101.151 28.4847L98.7139 24.3286ZM83.9919 18.2544C83.6677 18.7884 83.3423 19.3344 83.0232 19.8794L82.8669 23.8794L80.6169 24.1607C80.2368 24.8656 79.8623 25.5736 79.4919 26.2857L82.4607 27.3795L81.0545 34.692L85.6483 28.8482L92.1795 32.4107L88.0233 26.2545L93.4608 21.1607L86.3046 23.1919L83.9919 18.2544ZM121.143 14.4526L119.268 15.4214L121.737 15.3901C121.542 15.0807 121.336 14.7654 121.143 14.4526ZM105.071 14.0894L103.04 14.4019L105.196 15.1206L105.071 14.0894ZM119.389 10.4976L113.733 12.2476C114.584 12.6658 115.298 13.1999 116.108 13.7476L119.389 10.4976ZM100.151 9.10986L97.1821 12.3287L93.5259 9.92245L95.6821 13.735L92.2446 16.485L96.5571 15.6412L98.1196 19.735L98.6196 15.36L102.995 15.1725L98.9946 13.3287L100.151 9.10986ZM109.902 6.51907L109.871 11.2379C110.959 11.3481 111.834 11.5332 112.558 11.8004L109.902 6.51907ZM93.3679 7.18112L90.4617 8.83734L90.4304 8.86862C89.8498 9.567 89.2835 10.3295 88.7116 11.0874L89.1804 11.1499L89.3366 14.5249L90.7428 11.4311L94.024 12.3061L91.524 10.0249L93.3679 7.18112ZM102.006 1.01312C100.417 1.25736 98.7647 1.80931 97.1306 2.70062L95.9431 4.98184L99.6306 2.38803L102.818 5.60684L101.474 1.29434L102.006 1.01312Z" fill="url(#paint8_linear_1_589)"/>
<path fill-rule="evenodd" clip-rule="evenodd" d="M48.6039 103.275C59.2648 114.996 30.8503 128.668 35.2469 155.387C36.0596 160.326 19.0517 147.945 22.6168 124.666C26.0841 102.027 38.1441 93.251 48.6039 103.275Z" fill="white" stroke="black" stroke-width="1.58338"/>
<path fill-rule="evenodd" clip-rule="evenodd" d="M48.6039 103.275C59.2648 114.996 5.5233 144.794 35.3367 154.494C36.3711 154.248 19.0525 147.946 22.6176 124.666C26.0849 102.027 38.1441 93.251 48.6039 103.275Z" fill="url(#paint9_radial_1_589)" stroke="black" stroke-width="1.58338"/>
<path fill-rule="evenodd" clip-rule="evenodd" d="M34.4697 137.78C34.818 140.284 35.1821 143.003 34.8467 145.957C34.5113 148.911 35.9648 151.403 36.5144 154.743C36.616 155.36 36.4391 155.707 36.0588 155.795C35.6785 155.884 35.0947 155.715 34.3824 155.3C33.6701 154.885 31.6812 154.242 30.7869 153.349C29.8927 152.455 28.6768 151.955 27.7506 150.608C26.8244 149.261 25.9198 147.693 25.1116 145.918C24.3034 144.142 24.039 141.936 23.4987 139.757C28.1874 131.844 32.7902 125.141 34.4697 137.78Z" fill="white" stroke="black" stroke-width="1.58338"/>
<path d="M101.598 115.468C99.446 116.31 96.8958 115.13 95.8287 112.731L95.7304 112.495C95.529 111.979 95.4137 111.452 95.3741 110.934L95.3731 110.912C95.3144 110.104 95.4417 109.318 95.7317 108.624L95.7484 108.585L95.7553 108.544L96.6744 102.665L101.186 106.412L101.222 106.442L101.264 106.461L101.474 106.564C102.514 107.104 103.402 108.055 103.891 109.303C104.891 111.86 103.82 114.599 101.598 115.468Z" fill="#31DDFF" stroke="black" stroke-width="0.7"/>
</g>
<path d="M44.1006 178.654C44.4911 170.492 38.1915 163.56 30.0302 163.169C21.869 162.779 14.9362 169.078 14.5457 177.239C14.1551 185.401 20.4548 192.333 28.6161 192.724C36.7773 193.114 43.7101 186.815 44.1006 178.654Z" fill="url(#paint10_radial_1_589)"/>
<path d="M38.8834 178.404C39.1349 173.149 35.0788 168.685 29.824 168.434C24.5692 168.182 20.1054 172.238 19.8539 177.493C19.6025 182.748 23.6586 187.212 28.9134 187.463C34.1682 187.715 38.632 183.659 38.8834 178.404Z" fill="url(#paint11_linear_1_589)"/>
<path d="M33.3196 183.464C33.7916 181.399 31.7985 179.182 28.868 178.512C25.9376 177.842 23.1791 178.973 22.707 181.038C22.2351 183.102 24.228 185.319 27.1586 185.989C30.0891 186.659 32.8475 185.529 33.3196 183.464Z" fill="url(#paint12_radial_1_589)"/>
<path d="M24.9919 171.13C23.7164 173.699 25.5311 177.196 29.0451 178.941C32.5591 180.686 36.442 180.018 37.7174 177.45C38.9929 174.881 37.1782 171.385 33.6642 169.64C30.1502 167.894 26.2674 168.562 24.9919 171.13Z" fill="url(#paint13_radial_1_589)"/>
<path d="M25.4398 195.015C21.7885 194.732 20.0046 192.894 18.7514 190.579C18.5622 184.738 15.8773 182.548 11.8495 182.362C10.1474 179.679 9.63179 177.045 12.7635 174.593C17.6637 172.387 17.2408 166.881 19.4544 163.01C22.012 160.892 22.7346 162.795 25.7679 163.435C28.0022 158.525 25.5609 159.061 25.4063 157.084L24.5158 149.426C23.8723 146.215 20.7223 142.162 26.9137 140.003C28.3024 138.855 28.983 135.636 29.7092 132.57C29.6687 124.742 30.9956 123.807 31.8032 120.224C28.597 117.666 32.5132 110.24 32.4551 106.603C31.2376 103.653 30.4342 104.644 28.4955 94.584C25.6673 92.2941 23.8993 89.8922 23.3697 87.3635C22.3462 81.655 20.1893 83.5157 20.6811 67.839C22.0877 61.6221 24.6887 65.5401 26.8464 65.6941C29.2778 66.5727 32.4316 66.7993 30.1705 71.9409C31.1762 79.5443 31.4772 82.3696 31.9247 86.2689C34.4318 88.8157 37.6395 91.2578 36.3922 94.3694C38.5939 94.7341 41.7766 96.9225 38.3819 103.263C42.6369 107.932 41.6752 109.267 40.7642 110.647L38.273 118.415C38.7114 121.974 38.0564 124.927 37.8094 128.102C37.4908 130.882 35.4114 135.512 32.6382 140.892C32.8961 144.106 34.9783 147.547 30.9851 150.202C32.4284 154.365 35.3376 158.873 32.8301 162.12C35.343 162.829 38.1312 160.717 40.2587 165.507C41.7347 166.713 43.0862 163.54 44.7838 172.403C44.8688 174.431 46.8714 173.422 44.1264 179.962C43.5794 181.856 46.8684 183.915 40.8278 185.546C41.7159 189.273 39.4021 191.615 36.1821 193.531C35.1103 196.357 32.21 195.007 29.7664 194.727C28.0897 195.023 26.6569 195.107 25.4398 195.013L25.4398 195.015ZM28.381 186.662C29.0792 186.695 30.2157 187.462 30.881 187.359C31.5462 187.256 31.7994 187.286 32.4091 187.038C33.746 186.494 33.3321 186.176 33.8885 185.839C34.4448 185.502 34.9525 185.595 35.433 185.16C35.9135 184.725 36.0197 183.316 36.41 182.796C36.8003 182.275 37.6259 182.554 37.9114 181.961C38.197 181.369 38.0847 180.727 38.2514 180.076C38.4181 179.424 38.2078 178.143 38.2411 177.445C38.3079 176.049 38.4641 176.046 38.0086 174.812C37.5531 173.578 37.2906 172.719 36.4171 171.761C35.5435 170.803 34.7543 171.591 33.5674 171.022C32.3803 170.453 31.1256 168.787 29.7293 168.721C28.333 168.654 27.055 168.533 25.8213 168.986C24.5877 169.439 24.7203 169.453 23.7623 170.323C22.8043 171.193 21.4052 172.658 20.8362 173.843C20.2672 175.028 21.1591 176.061 21.0923 177.457C21.0254 178.853 20.0739 180.092 20.5271 181.325C20.9804 182.559 20.0812 181.639 23.097 184.227C24.3143 185.271 23.9581 185.752 25.1398 186.299C26.3326 186.851 26.9847 186.595 28.381 186.662Z" fill="#765700" stroke="black" stroke-width="0.787746"/>
<path opacity="0.3356" d="M25.4398 195.015C21.7885 194.732 20.0046 192.894 18.7514 190.579C18.5622 184.738 15.8773 182.548 11.8495 182.362C10.1474 179.679 9.63179 177.045 12.7635 174.593C17.6637 172.387 17.2408 166.881 19.4544 163.01C22.012 160.892 22.7346 162.795 25.7679 163.435C28.0022 158.525 25.5609 159.061 25.4063 157.084L24.5158 149.426C23.8723 146.215 20.7223 142.162 26.9137 140.003C28.3024 138.855 28.983 135.636 29.7092 132.57C29.6687 124.742 30.9956 123.807 31.8032 120.224C28.597 117.666 32.5132 110.24 32.4551 106.603C31.2376 103.653 30.4342 104.644 28.4955 94.584C25.6673 92.2941 23.8993 89.8922 23.3697 87.3635C22.3462 81.655 20.1893 83.5157 20.6811 67.839C22.0877 61.6221 24.6887 65.5401 26.8464 65.6941C29.2778 66.5727 32.4316 66.7993 30.1705 71.9409C31.1762 79.5443 31.4772 82.3696 31.9247 86.2689C34.4318 88.8157 37.6395 91.2578 36.3922 94.3694C38.5939 94.7341 41.7766 96.9225 38.3819 103.263C42.6369 107.932 41.6752 109.267 40.7642 110.647L38.273 118.415C38.7114 121.974 38.0564 124.927 37.8094 128.102C37.4908 130.882 35.4114 135.512 32.6382 140.892C32.8961 144.106 34.9783 147.547 30.9851 150.202C32.4284 154.365 35.3376 158.873 32.8301 162.12C35.343 162.829 38.1312 160.717 40.2587 165.507C41.7347 166.713 43.0862 163.54 44.7838 172.403C44.8688 174.431 46.8714 173.422 44.1264 179.962C43.5794 181.856 46.8684 183.915 40.8278 185.546C41.7159 189.273 39.4021 191.615 36.1821 193.531C35.1103 196.357 32.21 195.007 29.7664 194.727C28.0897 195.023 26.6569 195.107 25.4398 195.013L25.4398 195.015ZM28.381 186.662C29.0792 186.695 30.2157 187.462 30.881 187.359C31.5462 187.256 31.7994 187.286 32.4091 187.038C33.746 186.494 33.3321 186.176 33.8885 185.839C34.4448 185.502 34.9525 185.595 35.433 185.16C35.9135 184.725 36.0197 183.316 36.41 182.796C36.8003 182.275 37.6259 182.554 37.9114 181.961C38.197 181.369 38.0847 180.727 38.2514 180.076C38.4181 179.424 38.2078 178.143 38.2411 177.445C38.3079 176.049 38.4641 176.046 38.0086 174.812C37.5531 173.578 37.2906 172.719 36.4171 171.761C35.5435 170.803 34.7543 171.591 33.5674 171.022C32.3803 170.453 31.1256 168.787 29.7293 168.721C28.333 168.654 27.055 168.533 25.8213 168.986C24.5877 169.439 24.7203 169.453 23.7623 170.323C22.8043 171.193 21.4052 172.658 20.8362 173.843C20.2672 175.028 21.1591 176.061 21.0923 177.457C21.0254 178.853 20.0739 180.092 20.5271 181.325C20.9804 182.559 20.0812 181.639 23.097 184.227C24.3143 185.271 23.9581 185.752 25.1398 186.299C26.3326 186.851 26.9847 186.595 28.381 186.662Z" fill="url(#paint14_radial_1_589)"/>
<path d="M33.1132 160.405C31.9153 163.419 29.8825 162.121 29.6755 158.714C27.9866 155.206 29.0615 153.582 29.6487 151.838C29.9882 150.772 30.2755 151.736 30.9642 151.567C32.0015 151.969 33.2503 155.734 33.1132 160.405Z" fill="url(#paint15_radial_1_589)" stroke="#302112" stroke-width="0.654664" stroke-linecap="round" stroke-linejoin="round"/>
<path d="M24.149 147.823C24.6684 148.224 24.5033 149.246 25.9498 148.804C27.4999 148.733 28.0327 147.708 28.4273 146.553C29.4083 144.351 28.6445 143.305 28.3078 141.977C28.1362 140.474 27.5121 140.58 27.0415 140.139C24.1442 141.297 21.8496 142.893 24.149 147.823Z" fill="url(#paint16_radial_1_589)" stroke="#302112" stroke-width="0.708971" stroke-linecap="round" stroke-linejoin="round"/>
<path d="M32.3467 131.922C32.4048 131.418 32.681 130.925 33.1733 130.442C34.0066 128.562 34.6451 126.967 34.5494 126.446C34.9313 122.135 34.6772 122.132 34.2873 121.313C33.0992 119.459 34.9443 117.264 35.6136 114.816" stroke="#302112" stroke-width="0.787746" stroke-linecap="round" stroke-linejoin="round"/>
<path d="M38.526 103.156C37.5959 103.226 36.077 104.089 35.5076 102.878C33.9664 101.531 33.7704 100.739 33.6987 99.9974C33.5052 98.53 33.637 97.7986 33.832 97.2109C34.2058 95.0819 35.6862 94.9385 36.4904 94.3411C39.9177 95.3737 40.9308 98.0792 38.526 103.156Z" fill="url(#paint17_radial_1_589)" stroke="#302112" stroke-width="0.708971" stroke-linecap="round" stroke-linejoin="round"/>
<path d="M28.2237 94.3111L29.3633 94.7539C30.1627 94.6521 30.9994 94.6161 30.6269 92.4464C30.2483 90.6629 29.8786 88.6917 29.4757 87.4147C28.6656 84.652 27.9738 84.6494 27.2228 83.2673C25.63 80.9876 24.7139 81.494 23.5279 80.8897C21.6777 80.9752 21.671 81.9229 22.0332 82.9748C23.6643 86.7334 23.3764 90.399 28.2237 94.3111Z" fill="url(#paint18_radial_1_589)" stroke="#302112" stroke-width="0.708971" stroke-linecap="round" stroke-linejoin="round"/>
<path fill-rule="evenodd" clip-rule="evenodd" d="M33.0399 136.932C32.3109 139.582 31.9891 142.423 32.2675 145.489C32.5459 148.555 34.455 149.912 36.1269 153.457C37.0679 155.451 36.5262 155.983 35.24 155.296C33.9538 154.609 30.8931 154.633 28.8563 151.749C27.8378 150.307 26.8179 148.621 25.8886 146.721C24.9593 144.821 24.3785 141.935 23.7229 139.637C21.5518 112.789 31.9728 121.356 33.0399 136.932Z" fill="url(#paint19_radial_1_589)" stroke="black" stroke-width="1.58338"/>
<defs>
<linearGradient id="paint0_linear_1_589" x1="198.27" y1="107.1" x2="204.99" y2="53.92" gradientUnits="userSpaceOnUse">
<stop stop-color="#000079"/>
<stop offset="1" stop-color="#000079"/>
</linearGradient>
<radialGradient id="paint1_radial_1_589" cx="0" cy="0" r="1" gradientTransform="matrix(-0.000212764 34.5545 -71.1005 0 98.6779 -151.496)" gradientUnits="userSpaceOnUse">
<stop stop-color="#FFB142"/>
<stop offset="0.8868" stop-color="#FFB141"/>
<stop offset="1" stop-color="#C87600"/>
</radialGradient>
<radialGradient id="paint2_radial_1_589" cx="0" cy="0" r="1" gradientTransform="matrix(0 -80.7958 68.3556 -0.000210154 51.1602 28.7777)" gradientUnits="userSpaceOnUse">
<stop stop-color="#A5A5A5"/>
<stop offset="1"/>
</radialGradient>
<linearGradient id="paint3_linear_1_589" x1="83.43" y1="-295.22" x2="87.5" y2="-295.22" gradientUnits="userSpaceOnUse">
<stop stop-color="#FFB142"/>
<stop offset="1" stop-color="#C87600"/>
</linearGradient>
<radialGradient id="paint4_radial_1_589" cx="0" cy="0" r="1" gradientUnits="userSpaceOnUse" gradientTransform="translate(113.606 77.7392) rotate(-90) scale(44.0567 36.9623)">
<stop stop-color="#A5A5A5"/>
<stop offset="1"/>
</radialGradient>
<linearGradient id="paint5_linear_1_589" x1="51.89" y1="44.75" x2="138.45" y2="47.81" gradientUnits="userSpaceOnUse">
<stop stop-color="#0000AB"/>
<stop offset="1" stop-color="#00005C"/>
</linearGradient>
<linearGradient id="paint6_linear_1_589" x1="60.4505" y1="57.3244" x2="120.499" y2="69.7429" gradientUnits="userSpaceOnUse">
<stop/>
<stop offset="0.5"/>
<stop offset="1"/>
</linearGradient>
<linearGradient id="paint7_linear_1_589" x1="45.39" y1="67.25" x2="111.93" y2="46.43" gradientUnits="userSpaceOnUse">
<stop stop-color="#0000C5"/>
<stop offset="1" stop-color="#00006B"/>
</linearGradient>
<linearGradient id="paint8_linear_1_589" x1="77.18" y1="30.94" x2="109.48" y2="39.6" gradientUnits="userSpaceOnUse">
<stop stop-color="#FFE257"/>
<stop offset="1" stop-color="#D7B200"/>
</linearGradient>
<radialGradient id="paint9_radial_1_589" cx="0" cy="0" r="1" gradientTransform="matrix(19.9132 -39.2994 32.9716 16.7065 57.1865 75.3858)" gradientUnits="userSpaceOnUse">
<stop stop-color="#A5A5A5"/>
<stop offset="1"/>
</radialGradient>
<radialGradient id="paint10_radial_1_589" cx="0" cy="0" r="1" gradientTransform="matrix(12.9061 0.343691 0.339412 -12.7485 29.3196 177.947)" gradientUnits="userSpaceOnUse">
<stop stop-opacity="0.5415"/>
<stop offset="1" stop-opacity="0"/>
</radialGradient>
<linearGradient id="paint11_linear_1_589" x1="-34.7827" y1="183.012" x2="-34.1071" y2="168.894" gradientUnits="userSpaceOnUse">
<stop stop-color="#1F593A"/>
<stop offset="1" stop-color="#2FEA8F"/>
</linearGradient>
<radialGradient id="paint12_radial_1_589" cx="0" cy="0" r="1" gradientTransform="matrix(2.66264 -7.67865 -8.74782 -3.03323 26.6948 186.996)" gradientUnits="userSpaceOnUse">
<stop stop-color="white" stop-opacity="0.8745"/>
<stop offset="1" stop-color="white" stop-opacity="0"/>
</radialGradient>
<radialGradient id="paint13_radial_1_589" cx="0" cy="0" r="1" gradientTransform="matrix(6.47665 3.21641 2.73083 -5.49886 32.2989 172.112)" gradientUnits="userSpaceOnUse">
<stop stop-color="white"/>
<stop offset="1" stop-color="white" stop-opacity="0"/>
</radialGradient>
<radialGradient id="paint14_radial_1_589" cx="0" cy="0" r="1" gradientUnits="userSpaceOnUse" gradientTransform="translate(29.3854 178.318) rotate(2.73951) scale(17.8275)">
<stop stop-color="#4A3600"/>
<stop offset="0.6475" stop-color="#DECFA7"/>
<stop offset="1" stop-color="#392A00"/>
</radialGradient>
<radialGradient id="paint15_radial_1_589" cx="0" cy="0" r="1" gradientTransform="matrix(1.75904 -0.428063 -1.00301 -5.45036 30.986 156.564)" gradientUnits="userSpaceOnUse">
<stop stop-color="#231A00"/>
<stop offset="0.4544" stop-color="#756331"/>
<stop offset="1" stop-color="#2E2200"/>
</radialGradient>
<radialGradient id="paint16_radial_1_589" cx="0" cy="0" r="1" gradientTransform="matrix(2.35406 0.363226 0.604841 -3.91971 26.0909 144.762)" gradientUnits="userSpaceOnUse">
<stop stop-color="#4A3600" stop-opacity="0.6576"/>
<stop offset="0.6475" stop-color="#DECFA7" stop-opacity="0.3831"/>
<stop offset="1" stop-color="#392A00" stop-opacity="0.3763"/>
</radialGradient>
<radialGradient id="paint17_radial_1_589" cx="0" cy="0" r="1" gradientTransform="matrix(2.53098 -0.420933 -0.651555 -3.91792 36.7023 98.9544)" gradientUnits="userSpaceOnUse">
<stop stop-color="#4A3600" stop-opacity="0.6576"/>
<stop offset="0.6475" stop-color="#DECFA7" stop-opacity="0.3831"/>
<stop offset="1" stop-color="#392A00" stop-opacity="0.3763"/>
</radialGradient>
<radialGradient id="paint18_radial_1_589" cx="0" cy="0" r="1" gradientTransform="matrix(2.17798 -1.13407 -3.48003 -6.68313 26.4488 87.6985)" gradientUnits="userSpaceOnUse">
<stop stop-color="#4A3600" stop-opacity="0.6576"/>
<stop offset="0.6475" stop-color="#DECFA7" stop-opacity="0.3831"/>
<stop offset="1" stop-color="#392A00" stop-opacity="0.3763"/>
</radialGradient>
<radialGradient id="paint19_radial_1_589" cx="0" cy="0" r="1" gradientTransform="matrix(19.9132 -39.2995 32.9716 16.7065 57.0365 75.3858)" gradientUnits="userSpaceOnUse">
<stop stop-color="#A5A5A5"/>
<stop offset="1"/>
</radialGradient>
<clipPath id="clip0_1_589">
<rect width="137" height="178" fill="white" transform="translate(5)"/>
</clipPath>
</defs>
</svg>
