<svg width="191" height="178" viewBox="0 0 191 178" fill="none" xmlns="http://www.w3.org/2000/svg">
<g clip-path="url(#clip0_1_240)">
<path fill-rule="evenodd" clip-rule="evenodd" d="M80.68 60.21C72.4129 60.2435 54.549 66.0274 54.235 69.2625C47.2814 77.1272 56.7295 76.7537 72.645 73.181C83.704 75.7326 93.908 79.5976 105.158 79.318C114.97 79.0007 124.803 79.0614 134.592 79.8856C146.841 79.4366 151.447 77.1708 154.462 70.792L154.229 70.8677C155.34 70.0738 156.878 68.1029 152.217 67.4623C150.874 67.0409 150.882 69.5884 138.586 68.2316C122.625 66.4703 106.584 61.6856 92.825 60.7145C88.5253 60.4111 84.438 60.1948 80.68 60.21Z" fill="url(#paint0_linear_1_240)" stroke="black" stroke-width="0.86783"/>
<path fill-rule="evenodd" clip-rule="evenodd" d="M88.7255 157.326C73.9265 158.939 56.9531 171.617 63.6999 174.382C70.4468 177.147 90.0271 178.3 93.7269 175.074C95.6279 173.417 99.0293 169.266 99.4302 165.37C99.8316 169.265 103.223 173.417 105.124 175.074C108.824 178.3 128.414 177.147 135.16 174.382C141.906 171.617 124.934 158.939 110.135 157.326C102.514 158.104 99.7731 160.814 99.4303 163.924C99.0869 160.814 96.3457 158.104 88.7255 157.326Z" fill="url(#paint1_radial_1_240)" stroke="black" stroke-width="1.51991"/>
<path fill-rule="evenodd" clip-rule="evenodd" d="M88.7283 157.336C81.4648 158.128 73.6847 161.585 68.4349 165.228C76.3854 169.12 86.1063 171.519 96.6436 171.795C97.9939 169.914 99.2035 167.608 99.4327 165.38C99.6602 167.587 100.841 169.873 102.174 171.744C112.538 171.28 122.058 168.764 129.805 164.8C124.575 161.316 117.118 158.097 110.137 157.336C102.517 158.114 99.7756 160.825 99.4327 163.934C99.0893 160.825 96.3485 158.114 88.7283 157.336Z" fill="black" fill-opacity="0.3137"/>
<path d="M149.647 112.016C149.647 126.324 144.279 140.047 134.722 150.164C125.166 160.282 112.204 165.966 98.6894 165.966C85.1745 165.966 72.2132 160.282 62.6567 150.164C53.1002 140.047 47.7315 126.324 47.7315 112.016C47.7315 97.7076 53.1002 83.9852 62.6567 73.8676C72.2132 63.7501 85.1745 58.066 98.6894 58.066C112.204 58.066 125.166 63.7501 134.722 73.8676C144.279 83.9852 149.647 97.7076 149.647 112.016Z" fill="url(#paint2_radial_1_240)" stroke="black" stroke-width="1.51991" stroke-linecap="round"/>
<path d="M123.871 138.986C123.871 142.421 123.232 145.821 121.99 148.995C120.749 152.168 118.929 155.051 116.635 157.479C114.342 159.908 111.618 161.834 108.621 163.149C105.624 164.463 102.412 165.14 99.1678 165.14C95.9238 165.14 92.7115 164.463 89.7144 163.149C86.7173 161.834 83.994 159.908 81.7001 157.479C79.4063 155.051 77.5866 152.168 76.3452 148.995C75.1037 145.821 74.4648 142.421 74.4648 138.986C74.4648 135.551 75.1037 132.151 76.3452 128.978C77.5866 125.804 79.4063 122.921 81.7001 120.493C83.994 118.064 86.7173 116.138 89.7144 114.823C92.7115 113.509 95.9238 112.833 99.1678 112.833C102.412 112.833 105.624 113.509 108.621 114.823C111.618 116.138 114.342 118.064 116.635 120.493C118.929 122.921 120.749 125.804 121.99 128.978C123.232 132.151 123.871 135.551 123.871 138.986Z" fill="white" stroke="black" stroke-width="1.58338" stroke-linecap="round"/>
<path d="M147.635 97.0161C147.739 98.4188 147.799 99.8315 147.799 101.262C147.799 131.041 124.962 155.209 96.8344 155.209C73.6223 155.209 54.0316 138.75 47.8893 116.261C49.9389 144.056 71.9052 165.962 98.681 165.962C126.808 165.962 149.646 141.794 149.646 112.015C149.646 106.811 148.936 101.778 147.635 97.0161Z" fill="black" fill-opacity="0.3137"/>
<path d="M89.6328 109.85C87.6719 108.859 86.4324 109.914 85.4603 112.384C84.7001 117.224 82.636 122.331 86.4494 125.798C86.1633 130.019 87.1099 132.236 89.2929 133C89.0368 138.95 90.7029 138.102 92.1055 141.685C91.498 146.561 92.0657 143.728 92.6927 146.785C93.9119 153.675 94.6137 153.345 95.6598 154.542C96.6549 157.601 98.1938 156.772 99.276 155.624C100.307 151.719 101.487 150.907 101.285 148.763C103.745 146.823 102.943 145.088 103.819 144.065C106.126 138.619 106.337 137.999 106.477 134.947C111.022 125.742 109.337 126.957 109.259 124.222C110.252 121.537 111.441 116.963 110.124 116.124C113.061 113.567 111.425 113.929 110.434 112.354C109.513 110.398 109.377 111.325 106.385 110.499C100.755 112.777 97.2397 111.526 89.6328 109.85Z" fill="#D2D2D2" stroke="black"/>
<path d="M86.9428 114.76C85.4874 116.793 86.3454 119.289 87.3137 121.807C88.4068 132.068 88.6989 127.109 89.3536 129.039C89.4207 132.565 90.3191 133.63 90.6517 135.344C92.9668 138.466 93.8543 149.362 93.9897 147.769C94.0901 145.706 95.1369 140.459 93.4334 133.861C94.1142 131.885 95.4558 131.23 93.8043 124.589C95.0323 120.493 95.66 117.447 94.917 116.8C96.1404 114.469 95.7942 113.054 94.5461 112.164C89.1235 112.168 89.2712 110.312 88.2513 109.91C87.2355 110.929 87.0546 110.577 86.9428 114.76Z" fill="#B9B9B9"/>
<path d="M97.5128 113.47C96.6352 117.061 95.5195 120.772 97.5128 122.928C96.4541 126.966 100.208 133.27 96.2147 141.287C96.2619 146.77 95.6234 154.311 97.5128 154.268C98.4269 153.087 97.8648 148.685 99.2307 137.11C99.6638 134.082 101.785 135.979 100.431 128.93C101.936 126.307 103.726 123.837 102.891 116.066C101.686 113.73 100.632 111.019 97.5128 113.47Z" fill="#A9A9A9"/>
<path d="M107.253 111.36C104.003 110.077 105.121 122.475 104.188 132.383C101.396 136.621 100.212 143.476 100.294 149.629C101.931 144.712 103.916 141.531 105.115 134.423C107.657 131.734 108.37 127.581 108.453 122.925C108.413 119.294 109.924 111.921 107.253 111.36Z" fill="#BABABA"/>
<path d="M85.3928 118.54C85.0548 120.448 85.867 122.556 86.734 124.675C87.3785 130.131 88.2564 130.237 88.8805 131.869C90.885 132.459 89.6242 135.394 90.2308 136.677C92.5544 139.008 94.6025 148.121 94.1392 146.81C93.8435 144.995 93.4588 140.311 91.5736 134.686C91.5617 132.896 92.0756 132.205 90.2074 126.538C90.0977 122.845 89.8837 120.124 89.4316 119.623C89.6125 117.475 89.7537 116.159 89.0269 115.491C86.5111 115.971 87.3342 111.296 86.7943 111.034C86.4919 112.015 84.7507 114.869 85.3928 118.54Z" fill="#A9A9A9"/>
<path d="M92.9628 115.96C92.6313 119.384 92.151 122.942 93.6146 124.753C93.0639 128.695 91.4412 135.245 94.0233 141.947C94.4323 147.04 94.5307 154.113 95.7742 153.889C96.2959 152.702 97.0034 148.964 94.6386 138.178C94.7157 135.321 97.0387 135.405 95.6596 128.983C96.4719 126.398 97.7759 124.995 96.6896 117.851C95.7341 115.796 94.8517 113.378 92.9628 115.96Z" fill="#A9A9A9"/>
<path d="M104.533 113.22C101.827 112.009 103.147 133.522 100.859 138.801C98.4969 143.302 96.8159 154.526 98.077 155.024C99.4623 149.802 101.273 147.122 102.287 139.572C104.438 136.716 104.611 132.95 104.682 128.005C104.648 124.149 106.793 113.816 104.533 113.22Z" fill="#A2A2A2"/>
<path d="M88.9228 114.62C86.6182 115.864 80.9018 124.854 80.637 117.938C81.048 115.631 82.514 111.653 85.4877 108.675C90.225 104.348 93.1154 104.463 96.7707 103.659C108.509 103.342 108.703 106.425 112.183 108.754C114.188 111.115 114.919 113.174 115.56 114.611C116.096 116.913 120.425 127.086 108.18 115.224C98.3315 109.608 93.4728 112.949 88.9228 114.62Z" fill="#A9A9A9" stroke="black"/>
<path d="M89.1202 108.47C87.2704 110.188 85.7327 111.629 84.1294 114.589C81.8913 117.117 82.3272 116.808 81.5831 118.506C81.349 121.188 82.7299 118.344 84.9467 113.866C86.3413 112.763 87.5126 111.387 88.5761 110.284L90.6355 109.454L107.185 108.363C108.964 110.107 110.184 112.352 111.804 113.62C113.203 116.213 115.002 119.773 116.158 120.305C115.517 118.358 115.774 117.438 114.101 114.313C113.271 112.298 111.49 110.59 109.694 109.491C106.999 107.317 107.438 107.386 105.963 106.89L93.1742 106.98L89.1202 108.47Z" fill="#8A8A8A"/>
<path d="M90.7202 110.17C88.8704 111.888 87.3948 111.143 85.7916 114.103C83.5535 116.631 84.2378 116.135 83.4937 117.834C83.2596 120.515 84.8268 117.237 86.8573 114.249C88.2519 113.146 89.1129 113.087 90.1762 111.984L92.2356 111.154L106.426 109.927C108.204 111.671 107.313 112.176 108.932 113.444C110.332 116.037 113.683 119.349 114.84 119.881C114.198 117.934 112.841 116.952 111.168 113.827C110.338 111.812 110.73 112.153 108.935 111.054C106.24 108.88 106.678 108.95 105.203 108.453L92.6634 105.5L90.7202 110.17Z" fill="#9A9A9A"/>
<path d="M88.4402 106.96C86.5904 108.678 85.388 109.722 83.7848 112.681C81.5467 115.21 82.3552 115.645 81.6111 117.344C81.377 120.025 82.3852 116.436 84.6021 111.958C85.9967 110.855 86.8327 109.876 87.8961 108.774L89.8934 106.578L106.592 106.083C108.37 107.827 110.46 109.637 112.08 110.905C113.479 113.498 114.408 117.493 115.565 118.025C114.924 116.078 115.181 115.158 113.508 112.033C112.678 110.018 110.897 108.31 109.101 107.211C106.406 105.037 106.845 105.106 105.37 104.61L92.5811 104.699L88.4402 106.96Z" fill="#8C8C8C"/>
<path fill-rule="evenodd" clip-rule="evenodd" d="M99.2902 103C94.834 103 89.9902 107.297 90.184 110.01C90.3778 112.724 98.1277 124.03 99.8714 124.03C101.615 124.03 108.396 112.949 108.203 109.783C108.009 106.617 102.196 102.774 99.2902 103Z" fill="black" fill-opacity="0.3137"/>
<path fill-rule="evenodd" clip-rule="evenodd" d="M98.5902 100.28C94.134 100.28 89.2902 104.177 89.484 106.639C89.6778 109.1 97.4277 119.357 99.1714 119.357C100.915 119.357 107.696 109.306 107.503 106.434C107.309 103.562 101.497 100.075 98.5902 100.28Z" fill="url(#paint3_linear_1_240)" stroke="black" stroke-width="1.5834"/>
<path fill-rule="evenodd" clip-rule="evenodd" d="M78.9202 59.36C78.9202 59.36 92.8492 17.811 108.356 4.21602C114.81 -1.44238 122.766 0.535828 125.001 1.97393C131.469 6.13503 133.851 12.1339 137.357 17.2049C127.088 15.057 130.534 10.9047 119.228 11.7623L125.942 65.1303C111.389 61.6385 95.1482 60.5069 78.9202 59.36Z" fill="url(#paint4_linear_1_240)" stroke="black" stroke-width="0.86783"/>
<path fill-rule="evenodd" clip-rule="evenodd" d="M77.6571 59.8428L80.777 52.9727C88.1022 50.691 103.866 50.8163 124.434 55.3173L126.44 69.0599C110.819 65.1503 97.3433 58.4362 77.6571 59.8428Z" fill="url(#paint5_linear_1_240)"/>
<path fill-rule="evenodd" clip-rule="evenodd" d="M107.836 64.1491L107.988 51.7397L109.438 51.1938C114.374 51.2666 118.394 51.9216 121.497 53.159L123.253 65.0954L121.497 65.7505L107.836 64.1491ZM112.342 53.3294L112.87 60.9325L119.191 61.7561L118.691 59.2575L114.738 57.3656C113.802 56.1393 116.833 56.5695 118.05 56.3801L117.71 54.0952C115.92 53.3908 114.131 53.2538 112.342 53.3294Z" fill="#FFCD00" stroke="black" stroke-width="0.433916" stroke-linecap="round" stroke-linejoin="round"/>
<path fill-rule="evenodd" clip-rule="evenodd" d="M107.994 51.7788L109.558 51.2015L109.861 63.5154L107.893 64.1647L107.994 51.7788Z" fill="#BC9500" stroke="black" stroke-width="0.434003" stroke-linecap="round" stroke-linejoin="round"/>
<path fill-rule="evenodd" clip-rule="evenodd" d="M112.272 52.6183L112.295 53.33C113.783 53.2231 115.523 53.2984 117.72 54.0528L118.088 56.4008L119.388 56.119L118.809 53.5785C116.33 52.6027 114.286 52.4987 112.272 52.6183Z" fill="#BC9500" stroke="black" stroke-width="0.433916" stroke-linecap="round" stroke-linejoin="round"/>
<path fill-rule="evenodd" clip-rule="evenodd" d="M113.788 57.2355L118.664 59.0298L119.271 61.8144L120.565 62.0302L119.691 58.1924C117.75 57.8537 115.436 57.648 113.788 57.2355Z" fill="#BC9500" stroke="black" stroke-width="0.433916" stroke-linecap="round" stroke-linejoin="round"/>
<path d="M119.32 12.02C118.743 10.6377 118.062 9.23732 118.689 8.48842C119.507 7.5121 121.473 7.11392 120.574 9.68852" stroke="black" stroke-width="0.86783"/>
<path fill-rule="evenodd" clip-rule="evenodd" d="M80.43 60.21C72.1629 60.2435 59.321 63.323 55.53 67.0732C54.919 67.8507 52.2176 71.2402 51.8132 73.0727C51.9201 80.397 61.2532 67.851 68.6812 68.7386C98.7472 70.2431 126.06 77.4162 154.007 70.855C155.115 70.048 156.587 68.0974 151.966 67.4622C150.624 67.0409 150.631 69.5883 138.335 68.2316C122.374 66.4703 106.333 61.6856 92.5742 60.7145C88.2745 60.411 84.188 60.1948 80.43 60.21Z" fill="url(#paint6_linear_1_240)" stroke="black" stroke-width="0.86783"/>
<path opacity="0.8034" d="M110.71 60.79C110.547 57.937 110.182 51.9492 111.078 51.6692C111.843 52.6718 112.308 66.8612 110.71 60.79Z" fill="white"/>
<path fill-rule="evenodd" clip-rule="evenodd" d="M57.6 67.5401L57.9725 69.6665L55.9325 70.3536L58.056 70.6833L58.058 72.3832C58.2038 72.2814 58.2024 72.3782 58.5001 72.1379L59.0468 70.9113L60.005 71.1843C60.204 71.0496 60.3046 71 60.4464 70.8846L59.5661 70.0327L60.8137 68.2563L58.9031 69.2679L57.6 67.5401ZM93.058 78.0161L93.1205 78.1723C93.1707 78.1813 93.2266 78.1633 93.2768 78.1723L93.058 78.0161ZM128.026 68.7703L127.214 70.7703L125.12 70.2703L126.745 71.6765L125.844 73.1183C126.022 73.1093 125.969 73.1907 126.349 73.1449L127.463 72.3952L128.104 73.0829C128.303 73.1782 128.473 73.1909 128.64 73.0769L128.37 71.926L130.37 71.0822L128.213 70.926L128.026 68.7703ZM141.672 68.8676L141.691 72.4568C143.389 72.0532 142.803 72.5292 149.916 71.2491L150.391 70.805L144.254 72.1311L142.484 68.93H142.453C142.211 68.9175 141.933 68.8883 141.672 68.8676ZM85.276 64.3598L84.776 68.8598L80.2449 69.0785C83.2465 69.4518 83.6147 69.6047 88.4662 69.8871L91.3385 67.6411L86.901 68.5786L85.276 64.3598ZM120.471 65.7627L121.526 66.9223L121.244 65.9118L120.471 65.7627ZM119.072 65.4978L118.464 66.5472L119.842 65.642L119.072 65.4978ZM74.1504 61.3773L70.5567 64.8773L67.3067 62.4711C67.1585 62.508 67.0163 62.5583 66.8692 62.5961L68.7442 66.4086L65.4291 68.5674C66.7503 68.4673 68.1709 68.0193 69.3497 68.4177C70.6545 68.4298 71.2407 68.4797 71.9942 68.4711L77.0254 68.5024L72.5567 66.1586L74.1504 61.3773ZM105.816 62.9914L104.276 64.2035L101.983 62.3377C101.25 62.15 100.782 62.14 99.4832 61.9483L101.432 66.3598L95.0885 70.4848L102.62 69.7348L103.169 71.5491C104.6 71.6632 104.632 71.7153 105.759 71.8473L106.182 69.6723L113.745 70.0785L107.214 66.2347L108.273 63.378C106.995 63.1252 106.346 63.1021 105.816 62.9914ZM110.964 47.0164L108.089 51.0164L103.682 48.8289L105.136 50.8133L106.235 52.2985C107.721 52.3527 107.879 52.902 107.788 51.6121C108.329 51.307 109.48 50.8745 110.349 50.9971L110.604 49.4539L110.964 47.0164ZM85.6486 46.9324L83.8049 47.5262C83.5066 48.2745 83.2949 48.892 83.0236 49.5887L85.6486 46.9324ZM94.8199 51.4875L94.0891 46.0789L92.0439 51.506L94.8199 51.4875ZM89.847 51.5784L85.9015 50.7663L87.141 51.774L89.847 51.5784ZM102.027 37.9534L101.777 40.4846L99.2458 40.6096L101.527 41.6721L100.871 44.1096L102.59 42.2346L104.715 43.6096L103.465 41.4221L105.433 39.8283L102.965 40.3283L102.027 37.9534ZM117.061 35.5159L118.561 43.0471L111.373 45.7971L119.03 46.6721L119.286 52.1648C119.825 52.3475 119.909 52.3734 120.345 52.5085L122.592 47.3595L123.28 47.547L122.498 41.172L121.873 41.5158L117.061 35.5159ZM93.888 35.5677L88.9505 36.6615L88.7317 36.0677C87.527 38.7271 86.4563 41.2376 85.4505 43.6615L88.2943 40.4427L92.5755 43.1302L90.013 38.7864L93.888 35.5677ZM112.714 24.3287L112.995 29.1412L108.308 30.2037L112.933 31.4225L112.495 36.2037L115.089 32.1412L119.526 34.0474L116.464 30.3286L119.651 26.7348L115.151 28.4848L112.714 24.3287ZM97.992 18.2545C97.6677 18.7885 97.3424 19.3345 97.0232 19.8795L96.867 23.8795L94.617 24.1607C94.2369 24.8656 93.8624 25.5736 93.492 26.2857L96.4608 27.3795L95.0545 34.692L99.6483 28.8482L106.18 32.4107L102.023 26.2545L107.461 21.1607L100.305 23.1919L97.992 18.2545ZM135.143 14.4527L133.268 15.4214L135.737 15.3901C135.542 15.0808 135.336 14.7655 135.143 14.4527ZM119.071 14.0894L117.04 14.4019L119.196 15.1207L119.071 14.0894ZM133.389 10.4976L127.733 12.2476C128.584 12.6658 129.298 13.1999 130.108 13.7476L133.389 10.4976ZM114.151 9.10992L111.182 12.3287L107.526 9.92252L109.682 13.735L106.245 16.485L110.557 15.6413L112.12 19.7351L112.62 15.3601L116.995 15.1726L112.995 13.3288L114.151 9.10992ZM123.902 6.51913L123.871 11.2379C124.959 11.3481 125.834 11.5332 126.558 11.8004L123.902 6.51913ZM107.368 7.18118L104.462 8.8374L104.43 8.86868C103.85 9.56706 103.284 10.3296 102.712 11.0875L103.18 11.15L103.337 14.525L104.743 11.4312L108.024 12.3062L105.524 10.025L107.368 7.18118ZM116.006 1.01318C114.417 1.25742 112.765 1.80937 111.131 2.70068L109.943 4.9819L113.631 2.38809L116.818 5.6069L115.474 1.2944L116.006 1.01318Z" fill="url(#paint7_linear_1_240)"/>
<path fill-rule="evenodd" clip-rule="evenodd" d="M57.1102 127.764C41.5057 130.51 45.1359 99.1868 20.203 88.623C15.5944 86.6704 35.1487 78.9122 52.9193 94.3669C70.201 109.397 71.1728 124.28 57.1102 127.764Z" fill="white" stroke="black" stroke-width="1.58338"/>
<path fill-rule="evenodd" clip-rule="evenodd" d="M57.1102 127.764C41.5058 130.51 45.042 69.1621 20.9106 89.1766C20.565 90.1819 35.1477 78.9126 52.9183 94.3675C70.2 109.397 71.1726 124.28 57.1102 127.764Z" fill="url(#paint8_radial_1_240)" stroke="black" stroke-width="1.58338"/>
<path d="M75 96.589C75 87.9841 76 80.5 86 81C92.5 81.325 95.6211 92.8542 97.958 96.589C100.295 92.8514 102.366 80.5 109 81C116.059 81 120.926 87.9841 120.926 96.589" stroke="white" stroke-width="1.5834" stroke-linecap="round"/>
<path fill-rule="evenodd" clip-rule="evenodd" d="M33.5004 97.2319C31.198 96.1881 28.7053 95.0427 26.3879 93.1805C24.0705 91.3183 21.1874 91.215 18.0706 89.8945C17.4946 89.6504 17.296 89.3156 17.4244 88.9468C17.5527 88.5779 18.0079 88.1751 18.7393 87.7948C19.4708 87.4146 21.0769 86.077 22.31 85.7987C23.5431 85.5204 24.616 84.7602 26.2494 84.6972C27.8828 84.6343 29.6911 84.7074 31.6236 84.9731C33.556 85.2389 35.5626 86.1948 37.6927 86.9025C41.8754 95.0947 45.0809 102.567 33.5004 97.2319Z" fill="white" stroke="black" stroke-width="1.58338"/>
</g>
<path d="M35.6701 34.2489C36.8182 42.3385 31.1909 49.8273 23.1013 50.9754C15.0118 52.1234 7.523 46.4961 6.37491 38.4066C5.22681 30.317 10.8541 22.8282 18.9437 21.6801C27.0332 20.532 34.522 26.1594 35.6701 34.2489Z" fill="url(#paint9_radial_1_240)"/>
<path d="M30.4988 34.9829C31.238 40.1915 27.6148 45.0133 22.4062 45.7525C17.1975 46.4918 12.3757 42.8685 11.6365 37.6599C10.8973 32.4513 14.5206 27.6295 19.7292 26.8903C24.9378 26.151 29.7596 29.7743 30.4988 34.9829Z" fill="url(#paint10_linear_1_240)"/>
<path d="M24.4883 30.4625C25.1504 32.4743 23.3722 34.867 20.5167 35.8067C17.6613 36.7464 14.8096 35.8773 14.1475 33.8656C13.4854 31.8538 15.2636 29.4611 18.1191 28.5214C20.9746 27.5816 23.8262 28.4507 24.4883 30.4625Z" fill="url(#paint11_radial_1_240)"/>
<path d="M17.3442 43.5174C15.8352 41.0788 17.3168 37.4282 20.6532 35.3638C23.9896 33.2993 27.9176 33.6026 29.4266 36.0412C30.9355 38.4798 29.454 42.1304 26.1176 44.1949C22.7812 46.2593 18.8531 45.956 17.3442 43.5174Z" fill="url(#paint12_radial_1_240)"/>
<path d="M15.5681 19.695C11.9589 20.3158 10.3538 22.3125 9.32136 24.7339C9.67634 30.5666 7.2069 32.9975 3.21391 33.5571C1.76879 36.3871 1.50041 39.0572 4.84663 41.2071C9.9309 42.9482 10.0219 48.4688 12.5862 52.1181C15.3296 53.9886 15.8721 52.0261 18.8327 51.1072C21.5141 55.7874 19.0336 55.4818 19.0636 57.4644L18.8893 65.172C18.5474 68.4291 15.7881 72.7569 22.1535 74.3312C23.643 75.3451 24.6202 78.4866 25.6284 81.4712C26.3164 89.2697 27.7245 90.0769 28.8619 93.5683C25.9076 96.4144 30.4977 103.444 30.7782 107.07C29.8404 110.12 28.9483 109.209 27.9539 119.406C25.351 121.949 23.8142 124.504 23.5221 127.071C23.0341 132.851 20.7135 131.199 22.6616 146.761C24.6405 152.821 26.8657 148.678 28.9997 148.323C31.3388 147.223 34.4579 146.704 31.7282 141.795C32.0221 134.131 32.059 131.29 32.1418 127.365C34.4011 124.597 37.3677 121.867 35.8363 118.885C37.9946 118.317 40.9598 115.842 36.99 109.845C40.7922 104.8 39.7104 103.56 38.675 102.271L35.472 94.7688C35.5773 91.1834 34.6505 88.3047 34.1092 85.1663C33.5332 82.4288 31.0322 78.0119 27.7705 72.9133C27.7283 69.6895 29.4813 66.0695 25.2584 63.7969C26.3081 59.5176 28.7854 54.7591 25.9866 51.759C28.4226 50.8192 31.3953 52.6633 33.0679 47.6957C34.4253 46.3576 36.0662 49.3917 36.9319 40.4091C36.8278 38.382 38.9156 39.2 35.574 32.9438C34.8532 31.1084 37.9364 28.7531 31.7702 27.6905C32.3078 23.8977 29.7861 21.7813 26.4019 20.1729C25.0717 17.4582 22.3097 19.0729 19.9027 19.5787C18.2058 19.4405 16.7713 19.4897 15.5682 19.6966L15.5681 19.695ZM19.2737 27.7382C19.9657 27.6399 21.0259 26.7703 21.6979 26.811C22.3698 26.8516 22.6191 26.7979 23.2492 26.9882C24.631 27.4055 24.2484 27.7606 24.8337 28.0446C25.4191 28.3287 25.9159 28.1884 26.4348 28.577C26.9537 28.9655 27.1905 30.3588 27.6275 30.8405C28.0644 31.3221 28.8606 30.9682 29.2 31.5315C29.5395 32.0947 29.4874 32.7439 29.714 33.3772C29.9406 34.0105 29.8503 35.3054 29.9485 35.9975C30.1449 37.3815 30.3007 37.3699 29.9619 38.6407C29.6232 39.9115 29.4416 40.7911 28.6611 41.8263C27.8805 42.8614 27.0214 42.1501 25.8924 42.8271C24.7635 43.5042 23.6692 45.2794 22.2852 45.4758C20.9012 45.6722 19.64 45.9114 18.3695 45.5749C17.099 45.2384 17.2298 45.2131 16.195 44.4355C15.1602 43.6579 13.6309 42.3294 12.9541 41.2026C12.2773 40.0759 13.0693 38.9648 12.8729 37.5808C12.6764 36.1968 11.6138 35.0524 11.9503 33.7819C12.2868 32.5114 11.4771 33.5106 14.2391 30.6537C15.3539 29.5006 14.9546 29.0554 16.0803 28.4009C17.2165 27.7403 17.8896 27.9346 19.2737 27.7382Z" fill="#765700" stroke="black" stroke-width="0.787746"/>
<path opacity="0.3356" d="M15.5681 19.695C11.9589 20.3158 10.3538 22.3125 9.32136 24.7339C9.67633 30.5665 7.2069 32.9975 3.21391 33.5571C1.76879 36.3871 1.50041 39.0572 4.84663 41.2071C9.9309 42.9482 10.0219 48.4688 12.5862 52.1181C15.3296 53.9886 15.8721 52.0261 18.8327 51.1072C21.5141 55.7874 19.0336 55.4818 19.0636 57.4644L18.8893 65.172C18.5474 68.4291 15.7881 72.7569 22.1535 74.3312C23.643 75.3451 24.6202 78.4866 25.6284 81.4712C26.3164 89.2697 27.7245 90.0769 28.8619 93.5683C25.9076 96.4144 30.4977 103.444 30.7782 107.07C29.8404 110.12 28.9483 109.209 27.9539 119.406C25.351 121.949 23.8142 124.504 23.5221 127.071C23.0341 132.851 20.7135 131.199 22.6616 146.761C24.6405 152.821 26.8657 148.678 28.9997 148.323C31.3388 147.223 34.4579 146.704 31.7282 141.795C32.0221 134.131 32.059 131.29 32.1418 127.365C34.4011 124.597 37.3677 121.867 35.8363 118.885C37.9946 118.317 40.9598 115.842 36.99 109.845C40.7922 104.8 39.7104 103.56 38.675 102.271L35.472 94.7688C35.5773 91.1834 34.6505 88.3047 34.1092 85.1663C33.5332 82.4288 31.0322 78.0119 27.7705 72.9133C27.7283 69.6895 29.4813 66.0695 25.2584 63.7969C26.3081 59.5176 28.7854 54.7591 25.9866 51.759C28.4226 50.8192 31.3953 52.6633 33.0679 47.6957C34.4253 46.3576 36.0662 49.3917 36.9319 40.4091C36.8278 38.382 38.9156 39.2 35.574 32.9438C34.8532 31.1084 37.9364 28.7531 31.7702 27.6905C32.3078 23.8977 29.7861 21.7813 26.4019 20.1729C25.0717 17.4582 22.3097 19.0729 19.9027 19.5787C18.2058 19.4405 16.7713 19.4897 15.5682 19.6966L15.5681 19.695ZM19.2737 27.7382C19.9657 27.6399 21.0259 26.7703 21.6979 26.811C22.3698 26.8516 22.6191 26.7979 23.2492 26.9882C24.631 27.4055 24.2484 27.7606 24.8337 28.0446C25.4191 28.3287 25.9159 28.1884 26.4348 28.577C26.9537 28.9655 27.1905 30.3588 27.6275 30.8405C28.0644 31.3221 28.8606 30.9682 29.2 31.5315C29.5395 32.0947 29.4874 32.7439 29.714 33.3772C29.9406 34.0105 29.8503 35.3054 29.9485 35.9975C30.1449 37.3815 30.3007 37.3699 29.9619 38.6407C29.6232 39.9115 29.4416 40.7911 28.6611 41.8263C27.8805 42.8614 27.0214 42.1501 25.8924 42.8271C24.7635 43.5042 23.6692 45.2794 22.2852 45.4758C20.9012 45.6722 19.64 45.9114 18.3695 45.5749C17.099 45.2384 17.2298 45.2131 16.195 44.4355C15.1602 43.6579 13.6309 42.3294 12.9541 41.2026C12.2773 40.0759 13.0693 38.9648 12.8729 37.5808C12.6764 36.1968 11.6138 35.0524 11.9503 33.7819C12.2868 32.5114 11.4771 33.5106 14.2391 30.6537C15.3539 29.5006 14.9546 29.0554 16.0803 28.4009C17.2165 27.7403 17.8896 27.9346 19.2737 27.7382Z" fill="url(#paint13_radial_1_240)"/>
<path d="M26.428 53.4404C24.955 50.5515 23.0517 52.0323 23.1626 55.4443C21.8074 59.0944 23.0287 60.6109 23.7756 62.2924C24.2128 63.3224 24.4092 62.3357 25.1106 62.4404C26.106 61.9432 26.9991 58.0786 26.428 53.4404Z" fill="url(#paint14_radial_1_240)" stroke="#302112" stroke-width="0.654664" stroke-linecap="round" stroke-linejoin="round"/>
<path d="M18.6732 66.8018C19.1532 66.3548 18.8937 65.3522 20.375 65.6577C21.925 65.5842 22.5509 66.5554 23.0512 67.6687C24.2327 69.7692 23.5696 70.8817 23.3578 72.236C23.3269 73.7475 22.6956 73.7012 22.2681 74.1837C19.2756 73.2999 16.8424 71.9245 18.6732 66.8018Z" fill="url(#paint15_radial_1_240)" stroke="#302112" stroke-width="0.708971" stroke-linecap="round" stroke-linejoin="round"/>
<path d="M28.3148 81.8713C28.4194 82.3674 28.7403 82.8327 29.2754 83.2676C30.2801 85.0624 31.064 86.5911 31.0174 87.1189C31.7987 91.3762 31.5459 91.4015 31.2339 92.254C30.2235 94.2109 32.2647 96.2234 33.1589 98.5983" stroke="#302112" stroke-width="0.787746" stroke-linecap="round" stroke-linejoin="round"/>
<path d="M37.1435 109.938C36.2109 109.955 34.6182 109.237 34.164 110.496C32.7548 111.98 32.6333 112.787 32.6309 113.531C32.5748 115.011 32.7741 115.726 33.0229 116.294C33.593 118.379 35.0805 118.384 35.9368 118.904C39.2531 117.557 40.0101 114.768 37.1435 109.938Z" fill="url(#paint16_radial_1_240)" stroke="#302112" stroke-width="0.708971" stroke-linecap="round" stroke-linejoin="round"/>
<path d="M27.7087 119.702L28.8022 119.155C29.6075 119.183 30.444 119.141 30.275 121.336C30.0639 123.147 29.8792 125.144 29.5969 126.453C29.0473 129.279 28.3587 129.346 27.7396 130.792C26.3658 133.21 25.4065 132.791 24.2819 133.503C22.4318 133.59 22.3369 132.647 22.5997 131.566C23.874 127.672 23.2464 124.048 27.7087 119.702Z" fill="url(#paint17_radial_1_240)" stroke="#302112" stroke-width="0.708971" stroke-linecap="round" stroke-linejoin="round"/>
<path fill-rule="evenodd" clip-rule="evenodd" d="M145.609 128.446C160.708 133.248 161.287 101.721 187.405 94.575C192.233 93.2542 173.888 82.9586 154.215 95.9064C135.084 108.498 132.137 123.119 145.609 128.446Z" fill="white" stroke="black" stroke-width="1.58338"/>
<path fill-rule="evenodd" clip-rule="evenodd" d="M145.609 128.446C160.708 133.248 156.057 94.2414 187.405 94.575C196.227 94.6689 173.888 82.9585 154.215 95.9063C135.084 108.498 132.137 123.119 145.609 128.446Z" fill="url(#paint18_radial_1_240)" stroke="black" stroke-width="1.58338"/>
<path d="M24.8342 84.9703C26.216 84.8558 27.9799 85.1149 29.2512 85.2076L29.3303 85.2135L29.4085 85.235C32.8973 86.2216 35.2145 87.5072 36.5442 88.8756C37.8836 90.2542 38.2982 91.8324 37.6243 93.1793C37.3662 93.6949 36.9713 94.123 36.4797 94.4615C35.9417 95.1367 35.0799 95.7895 33.7434 96.3824C32.1994 97.0673 29.974 97.6949 26.7659 98.1871L26.1116 98.2838L26.0842 98.2877L26.0559 98.2897C25.7875 98.3087 25.5372 98.226 25.3684 98.1578C25.1786 98.0811 24.9773 97.9739 24.7756 97.8531C24.3707 97.6105 23.8942 97.27 23.387 96.8746C22.3685 96.0808 21.161 95.0167 20.0315 93.941C18.9033 92.8666 17.8325 91.7608 17.093 90.8815C16.7289 90.4484 16.4181 90.0385 16.2249 89.6988C16.1337 89.5385 16.0306 89.3285 15.9905 89.1051C15.9537 88.8998 15.9449 88.4407 16.344 88.1529L16.5588 88.0162C16.6967 87.9233 16.8636 87.7951 17.0803 87.6246C17.3542 87.4092 17.6888 87.1428 18.0676 86.8776C18.8328 86.3419 19.8172 85.7856 21.0784 85.5201C22.2287 85.2781 23.4989 85.081 24.8342 84.9703Z" fill="black"/>
<defs>
<linearGradient id="paint0_linear_1_240" x1="212.27" y1="107.1" x2="218.99" y2="53.92" gradientUnits="userSpaceOnUse">
<stop stop-color="#000079"/>
<stop offset="1" stop-color="#000079"/>
</linearGradient>
<radialGradient id="paint1_radial_1_240" cx="0" cy="0" r="1" gradientTransform="matrix(-0.000212764 34.5545 -71.1005 0 112.678 -151.496)" gradientUnits="userSpaceOnUse">
<stop stop-color="#FFB142"/>
<stop offset="0.8868" stop-color="#FFB141"/>
<stop offset="1" stop-color="#C87600"/>
</radialGradient>
<radialGradient id="paint2_radial_1_240" cx="0" cy="0" r="1" gradientTransform="matrix(0 -80.7958 68.3556 -0.000210154 65.1602 28.7777)" gradientUnits="userSpaceOnUse">
<stop stop-color="#A5A5A5"/>
<stop offset="1"/>
</radialGradient>
<linearGradient id="paint3_linear_1_240" x1="97.4302" y1="-295.22" x2="101.5" y2="-295.22" gradientUnits="userSpaceOnUse">
<stop stop-color="#FFB142"/>
<stop offset="1" stop-color="#C87600"/>
</linearGradient>
<linearGradient id="paint4_linear_1_240" x1="65.8902" y1="44.75" x2="152.45" y2="47.81" gradientUnits="userSpaceOnUse">
<stop stop-color="#0000AB"/>
<stop offset="1" stop-color="#00005C"/>
</linearGradient>
<linearGradient id="paint5_linear_1_240" x1="74.4507" y1="57.3244" x2="134.5" y2="69.743" gradientUnits="userSpaceOnUse">
<stop/>
<stop offset="0.5"/>
<stop offset="1"/>
</linearGradient>
<linearGradient id="paint6_linear_1_240" x1="59.39" y1="67.25" x2="125.93" y2="46.43" gradientUnits="userSpaceOnUse">
<stop stop-color="#0000C5"/>
<stop offset="1" stop-color="#00006B"/>
</linearGradient>
<linearGradient id="paint7_linear_1_240" x1="91.18" y1="30.9401" x2="123.48" y2="39.6001" gradientUnits="userSpaceOnUse">
<stop stop-color="#FFE257"/>
<stop offset="1" stop-color="#D7B200"/>
</linearGradient>
<radialGradient id="paint8_radial_1_240" cx="0" cy="0" r="1" gradientTransform="matrix(22.5736 37.834 -31.7418 18.9391 76.0953 149.923)" gradientUnits="userSpaceOnUse">
<stop stop-color="#A5A5A5"/>
<stop offset="1"/>
</radialGradient>
<radialGradient id="paint9_radial_1_240" cx="0" cy="0" r="1" gradientTransform="matrix(12.8182 -1.5429 1.52397 12.6616 21.019 36.328)" gradientUnits="userSpaceOnUse">
<stop stop-opacity="0.5415"/>
<stop offset="1" stop-opacity="0"/>
</radialGradient>
<linearGradient id="paint10_linear_1_240" x1="-43.2765" y1="37.2485" x2="-41.2905" y2="51.2424" gradientUnits="userSpaceOnUse">
<stop stop-color="#1F593A"/>
<stop offset="1" stop-color="#2FEA8F"/>
</linearGradient>
<radialGradient id="paint11_radial_1_240" cx="0" cy="0" r="1" gradientTransform="matrix(3.36546 7.39763 -8.42769 3.83391 17.5636 27.5619)" gradientUnits="userSpaceOnUse">
<stop stop-color="white" stop-opacity="0.8745"/>
<stop offset="1" stop-color="white" stop-opacity="0"/>
</radialGradient>
<radialGradient id="paint12_radial_1_240" cx="0" cy="0" r="1" gradientTransform="matrix(6.14933 -3.805 3.23056 5.22095 24.5281 41.8598)" gradientUnits="userSpaceOnUse">
<stop stop-color="white"/>
<stop offset="1" stop-color="white" stop-opacity="0"/>
</radialGradient>
<radialGradient id="paint13_radial_1_240" cx="0" cy="0" r="1" gradientUnits="userSpaceOnUse" gradientTransform="translate(21.0499 35.9517) rotate(-8.07764) scale(17.8275)">
<stop stop-color="#4A3600"/>
<stop offset="0.6475" stop-color="#DECFA7"/>
<stop offset="1" stop-color="#392A00"/>
</radialGradient>
<radialGradient id="paint14_radial_1_240" cx="0" cy="0" r="1" gradientTransform="matrix(1.79124 0.262557 -0.491594 5.52004 24.6674 57.4623)" gradientUnits="userSpaceOnUse">
<stop stop-color="#231A00"/>
<stop offset="0.4544" stop-color="#756331"/>
<stop offset="1" stop-color="#2E2200"/>
</radialGradient>
<radialGradient id="paint15_radial_1_240" cx="0" cy="0" r="1" gradientTransform="matrix(2.31006 -0.580656 0.966881 3.84644 20.8915 69.6687)" gradientUnits="userSpaceOnUse">
<stop stop-color="#4A3600" stop-opacity="0.6576"/>
<stop offset="0.6475" stop-color="#DECFA7" stop-opacity="0.3831"/>
<stop offset="1" stop-color="#392A00" stop-opacity="0.3763"/>
</radialGradient>
<radialGradient id="paint16_radial_1_240" cx="0" cy="0" r="1" gradientTransform="matrix(2.55916 0.183643 -0.284233 3.96154 35.7185 114.29)" gradientUnits="userSpaceOnUse">
<stop stop-color="#4A3600" stop-opacity="0.6576"/>
<stop offset="0.6475" stop-color="#DECFA7" stop-opacity="0.3831"/>
<stop offset="1" stop-color="#392A00" stop-opacity="0.3763"/>
</radialGradient>
<radialGradient id="paint17_radial_1_240" cx="0" cy="0" r="1" gradientTransform="matrix(2.27404 0.926525 -2.84318 6.9779 26.5567 126.452)" gradientUnits="userSpaceOnUse">
<stop stop-color="#4A3600" stop-opacity="0.6576"/>
<stop offset="0.6475" stop-color="#DECFA7" stop-opacity="0.3831"/>
<stop offset="1" stop-color="#392A00" stop-opacity="0.3763"/>
</radialGradient>
<radialGradient id="paint18_radial_1_240" cx="0" cy="0" r="1" gradientUnits="userSpaceOnUse" gradientTransform="translate(140.22 152.53) rotate(128.484) scale(44.0567 36.9623)">
<stop stop-color="#A5A5A5"/>
<stop offset="1"/>
</radialGradient>
<clipPath id="clip0_1_240">
<rect width="136.82" height="177.79" fill="white" transform="translate(19)"/>
</clipPath>
</defs>
</svg>
