<?xml version='1.0' encoding='utf-8'?>
<svg xmlns:xlink="http://www.w3.org/1999/xlink" xmlns="http://www.w3.org/2000/svg" viewBox="0 0 136.82 177.79"> <defs> <linearGradient id="b"> <stop stop-color="#a5a5a5" offset="0"/> <stop offset="1"/> </linearGradient> <linearGradient id="p" x1="160.36" x2="585.08" y1="586.87" y2="633.04" gradientTransform="matrix(.31234 0 0 .18977 358.42 392.58)" gradientUnits="userSpaceOnUse"> <stop offset="0"/> <stop offset=".5"/> <stop offset="1"/> </linearGradient> <linearGradient id="o" x1="243.94" x2="276.24" y1="326.16" y2="334.82" gradientUnits="userSpaceOnUse"> <stop stop-color="#ffe257" offset="0"/> <stop stop-color="#d7b200" offset="1"/> </linearGradient> <linearGradient id="a"> <stop stop-color="#4a3600" stop-opacity=".6576" offset="0"/> <stop stop-color="#decfa7" stop-opacity=".3831" offset=".6475"/> <stop stop-color="#392a00" stop-opacity=".3763" offset="1"/> </linearGradient> <linearGradient id="u" x1="212.15" x2="278.69" y1="362.47" y2="341.65" gradientUnits="userSpaceOnUse"> <stop stop-color="#0000c5" offset="0"/> <stop stop-color="#00006b" offset="1"/> </linearGradient> <linearGradient id="t" x1="218.65" x2="305.21" y1="339.97" y2="343.03" gradientUnits="userSpaceOnUse"> <stop stop-color="#0000ab" offset="0"/> <stop stop-color="#00005c" offset="1"/> </linearGradient> <linearGradient id="s" x1="365.03" x2="371.75" y1="402.32" y2="349.14" gradientUnits="userSpaceOnUse"> <stop stop-color="#000079" offset="0"/> <stop stop-color="#000079" offset="1"/> </linearGradient> <linearGradient id="r" x2="0" y1="31.854" y2="74.712" gradientUnits="userSpaceOnUse"> <stop stop-color="#1f593a" offset="0"/> <stop stop-color="#2fea8f" offset="1"/> </linearGradient> <linearGradient id="q" x1="250.19" x2="254.26" gradientUnits="userSpaceOnUse"> <stop stop-color="#ffb142" offset="0"/> <stop stop-color="#c87600" offset="1"/> </linearGradient> <radialGradient id="n" cx="414.68" cy="-8.8805" r="123.55" gradientTransform="matrix(-1.8232e-6 .27968 -.60927 0 101.73 -39.26)" gradientUnits="userSpaceOnUse"> <stop stop-color="#ffb142" offset="0"/> <stop stop-color="#ffb141" offset=".8868"/> <stop stop-color="#c87600" offset="1"/> </radialGradient> <radialGradient id="l" cx="193.56" cy="56.486" r="28.884" gradientTransform="matrix(.87248 .01849 -.01827 .86182 25.714 4.2258)" gradientUnits="userSpaceOnUse"> <stop stop-opacity=".5415" offset="0"/> <stop stop-opacity="0" offset="1"/> </radialGradient> <radialGradient id="k" cx="180.72" cy="38.594" r="28.884" gradientTransform="matrix(.16244 2.1067 -1.6909 .26266 228.26 -371.43)" gradientUnits="userSpaceOnUse"> <stop stop-color="#fff" stop-opacity=".8745" offset="0"/> <stop stop-color="#fff" stop-opacity="0" offset="1"/> </radialGradient> <radialGradient id="j" cx="194.08" cy="26.293" r="28.884" gradientTransform="matrix(-1.0179 0 6.233e-7 -1.1824 391.62 74.389)" gradientUnits="userSpaceOnUse"> <stop stop-color="#fff" offset="0"/> <stop stop-color="#fff" stop-opacity="0" offset="1"/> </radialGradient> <radialGradient id="i" cx="362.55" cy="345.16" r="22.631" gradientUnits="userSpaceOnUse"> <stop stop-color="#4a3600" offset="0"/> <stop stop-color="#decfa7" offset=".6475"/> <stop stop-color="#392a00" offset="1"/> </radialGradient> <radialGradient id="h" cx="306.47" cy="239.14" r="22.631" gradientTransform="matrix(.09741 .0287 -.07081 .30269 350.34 291.66)" gradientUnits="userSpaceOnUse"> <stop stop-color="#231a00" offset="0"/> <stop stop-color="#756331" offset=".4544"/> <stop stop-color="#2e2200" offset="1"/> </radialGradient> <radialGradient id="m" cx="610.46" cy="483.45" r="167.56" gradientTransform="matrix(0 -.48219 .4319 -1.2542e-6 -151.97 551.35)" gradientUnits="userSpaceOnUse" xlink:href="#b"/> <radialGradient id="g" cx="265.86" cy="293.49" r="22.631" gradientTransform="matrix(.13287 -.01404 .02338 .22124 314.15 326.31)" gradientUnits="userSpaceOnUse" xlink:href="#a"/> <radialGradient id="f" cx="523.34" cy="479.28" r="22.631" gradientTransform="matrix(.14068 .03037 -.04701 .21777 315.92 325.97)" gradientUnits="userSpaceOnUse" xlink:href="#a"/> <radialGradient id="e" cx="401.52" cy="532.92" r="22.631" gradientTransform="matrix(.11899 .06938 -.2129 .36512 419.01 237.45)" gradientUnits="userSpaceOnUse" xlink:href="#a"/> <radialGradient id="d" cx="371.45" cy="647.69" r="59.255" gradientTransform="matrix(0 -.74351 -.66041 0 552.03 582.13)" gradientUnits="userSpaceOnUse" xlink:href="#b"/> <radialGradient id="c" cx="380.26" cy="622.49" r="59.255" gradientTransform="matrix(0 -.74351 .66041 0 -364.7 582.13)" gradientUnits="userSpaceOnUse" xlink:href="#b"/> </defs> <g transform="translate(-171.76 -295.22)"> <path d="m233.44 355.43c-8.2671 0.0335-26.131 5.8174-26.445 9.0525-6.9536 7.8647 2.4945 7.4912 18.41 3.9185 11.059 2.5516 21.263 6.4166 32.513 6.137 9.8124-0.31729 19.645-0.25661 29.434 0.56756 12.249-0.44899 16.855-2.7148 19.87-9.0936l-0.23325 0.0757c1.1108-0.79385 2.6489-2.7648-2.0118-3.4054-1.3427-0.42133-1.335 2.1261-13.631 0.76936-15.961-1.7613-32.002-6.546-45.761-7.5171-4.2997-0.30344-8.386-0.5197-12.144-0.50451z" fill="url(#s)" fill-rule="evenodd" stroke="#000" stroke-width=".86783"/> <g transform="matrix(.94454 0 0 1 164.24 67.006)" fill-rule="evenodd"> <path d="m81.781 385.54c-15.668 1.6128-33.638 14.291-26.495 17.056s27.873 3.9181 31.79 0.69241c2.0127-1.6576 5.6138-5.8087 6.0382-9.704 0.42497 3.8949 4.0155 8.0466 6.0281 9.704 3.9169 3.2257 24.658 2.0724 31.8-0.69241s-10.827-15.443-26.495-17.056c-8.0678 0.77761-10.97 3.4884-11.333 6.5983-0.36356-3.1099-3.2654-5.8207-11.333-6.5983z" fill="url(#n)" stroke="#000" stroke-width="1.5639"/> <path d="m81.784 385.55c-7.69 0.79161-15.927 4.249-21.485 7.8915 8.4173 3.8928 18.709 6.2918 29.865 6.5678 1.4296-1.8809 2.7102-4.1871 2.9529-6.415 0.24081 2.207 1.4914 4.4927 2.902 6.3641 10.973-0.4646 21.052-2.9801 29.254-6.9445-5.5378-3.4836-13.432-6.7029-20.823-7.4638-8.0678 0.77762-10.97 3.4884-11.333 6.5983-0.36356-3.1099-3.2654-5.8207-11.333-6.5983z" fill-opacity=".3137"/> </g> <g transform="matrix(.94454 0 0 1 164.24 67.006)"> <path d="m146.28 340.23a53.948 53.948 0 0 1-107.9 0 53.948 53.948 0 1 1 107.9 0z" fill="url(#m)" stroke="#000" stroke-linecap="round" stroke-width="1.5639"/> <path d="m118.99 367.2a26.153 26.153 0 1 1-52.307 0 26.153 26.153 0 1 1 52.307 0z" fill="#fff" stroke="#000" stroke-linecap="round" stroke-width="1.6292"/> <path d="m144.15 325.23c0.10951 1.4027 0.1731 2.8155 0.1731 4.2461 0 29.779-24.178 53.947-53.957 53.947-24.575 0-45.316-16.459-51.819-38.948 2.1699 27.795 25.426 49.701 53.774 49.701 29.779 0 53.957-24.168 53.957-53.947 0-5.2041-0.75099-10.237-2.1282-14.999z" fill-opacity=".3137"/> </g> <path d="m241.28 371.33c-7.0587 0-12.792 6.9841-12.792 15.589s5.7331 15.589 12.792 15.589c4.1482 0 7.8293-2.4146 10.166-6.1503 2.3367 3.7383 6.0258 6.1503 10.176 6.1503 7.0587 0 12.792-6.9841 12.792-15.589s-5.7331-15.589-12.792-15.589c-4.1494 0-7.839 2.4127-10.176 6.1503-2.3369-3.7348-6.0184-6.1503-10.166-6.1503z" fill="#fff" stroke="#000" stroke-linecap="round" stroke-width="1.5834"/> <path d="m249.21 389.67a3.1969 3.3846 0 0 1-6.3937 0 3.1969 3.3846 0 1 1 6.3937 0z" stroke="#000" stroke-linecap="round" stroke-width="1.5834"/> <path d="m260.65 389.67a3.1969 3.3846 0 1 1-6.3937 0 3.1969 3.3846 0 1 1 6.3937 0z" stroke="#000" stroke-linecap="round" stroke-width="1.5834"/> <g transform="translate(-.07734)"> <path d="m242.47 405.07c-1.9609-0.99075-3.2004 0.0644-4.1725 2.5344-0.76018 4.8394-2.8243 9.9464 0.98904 13.414-0.28609 4.2207 0.66054 6.4374 2.8435 7.2014-0.25605 5.95 1.41 5.1022 2.8126 8.685-0.60751 4.8766-0.0398 2.0436 0.58723 5.0997 1.2192 6.8901 1.921 6.5604 2.9671 7.7578 0.99506 3.0588 2.534 2.2294 3.6162 1.0818 1.031-3.9049 2.2105-4.7167 2.009-6.8614 2.4601-1.9402 1.6577-3.6744 2.5344-4.6979 2.3063-5.4456 2.5175-6.0663 2.658-9.1177 4.5443-9.2055 2.8596-7.9905 2.7817-10.725 0.99245-2.6855 2.1822-7.2596 0.8654-8.0977 2.9369-2.5578 1.3008-2.1951 0.30907-3.7707-0.92044-1.9554-1.0566-1.0287-4.0489-1.8544-5.63 2.2775-9.1451 1.0268-16.752-0.64905z" fill="#d2d2d2" stroke="#000"/> <path d="m239.78 409.98c-1.4554 2.0332-0.59738 4.529 0.37089 7.0469 1.0931 10.261 1.3852 5.3017 2.0399 7.2323 0.0671 3.526 0.96551 4.5905 1.2981 6.3051 2.3151 3.1214 3.2026 14.018 3.338 12.425 0.10038-2.0632 1.1472-7.3104-0.55633-13.908 0.68083-1.9763 2.0224-2.6312 0.37089-9.2722 1.228-4.0961 1.8557-7.1418 1.1127-7.7887 1.2234-2.3312 0.87727-3.7467-0.37088-4.6361-5.4226 4e-3 -5.2749-1.8528-6.2948-2.2545-1.0158 1.0188-1.1966 0.66773-1.3084 4.8507z" fill="#b9b9b9"/> <path d="m250.35 408.69c-0.87768 3.5914-1.9933 7.3017 0 9.4576-1.0587 4.0381 2.6955 10.342-1.2981 18.359 0.0472 5.4836-0.59137 13.024 1.2981 12.981 0.91407-1.1811 0.35195-5.5826 1.7179-17.158 0.4331-3.028 2.5544-1.1308 1.2002-8.1802 1.5053-2.6226 3.2946-5.0925 2.4597-12.863-1.2043-2.3362-2.2586-5.0474-5.3779-2.5962z" fill="#a9a9a9"/> <path d="m260.09 406.58c-3.2499-1.2829-2.1315 11.115-3.065 21.023-2.7919 4.2378-3.9756 11.093-3.8943 17.246 1.6376-4.9169 3.6224-8.0976 4.8216-15.206 2.5421-2.689 3.2546-6.8416 3.338-11.498-0.0402-3.6311 1.4711-11.004-1.2002-11.565z" fill="#bababa"/> <path d="m238.23 413.76c-0.33803 1.9075 0.47419 4.0164 1.3412 6.1349 0.6445 5.4558 1.5224 5.5616 2.1465 7.1937 2.0045 0.5901 0.74371 3.5254 1.3503 4.8079 2.3236 2.3312 4.3717 11.444 3.9084 10.133-0.29572-1.8145-0.68047-6.499-2.5656-12.124-0.0119-1.7896 0.50195-2.4808-1.3662-8.1478-0.10973-3.693-0.32374-6.4138-0.77585-6.9146 0.18095-2.1479 0.32207-3.4637-0.40468-4.1323-2.5158 0.47996-1.6927-4.1952-2.2326-4.4571-0.30236 0.98106-2.0436 3.8346-1.4015 7.5054z" fill="#a9a9a9"/> <path d="m245.8 411.18c-0.33152 3.4241-0.81181 6.9818 0.65174 8.7926-0.55067 3.9423-2.1734 10.492 0.40876 17.194 0.409 5.0934 0.5074 12.166 1.7509 11.942 0.52163-1.1868 1.2292-4.9243-1.1356-15.711 0.0771-2.8571 2.4001-2.7728 1.021-9.1949 0.81232-2.5843 2.1163-3.9881 1.03-11.132-0.95549-2.0549-1.8378-4.4731-3.7267-1.8914z" fill="#a9a9a9"/> <path d="m257.37 408.44c-2.706-1.211-1.3862 20.302-3.6741 25.581-2.3618 4.5007-4.0428 15.725-2.7817 16.223 1.3853-5.2219 3.1955-7.9024 4.21-15.452 2.1505-2.8558 2.3239-6.6221 2.3945-11.567-0.034-3.8564 2.1112-14.189-0.14868-14.785z" fill="#a2a2a2"/> <path d="m241.76 409.84c-2.3046 1.2442-8.021 10.234-8.2858 3.3182 0.41102-2.3068 1.877-6.2848 4.8507-9.2628 4.7373-4.3278 7.6277-4.2122 11.283-5.0164 11.738-0.31686 11.932 2.7663 15.412 5.0946 2.0049 2.3613 2.7365 4.4199 3.3775 5.8569 0.53562 2.3022 4.8649 12.475-7.38 0.61386-9.8487-5.6161-14.707-2.2753-19.257-0.60441z" fill="#a9a9a9" stroke="#000"/> </g> <path d="m241.88 403.69c-1.8498 1.7184-3.3875 3.1593-4.9908 6.1186-2.2381 2.5285-1.8022 2.219-2.5463 3.9176-0.23407 2.6814 1.1468-0.16222 3.3636-4.6405 1.3946-1.103 2.5659-2.4792 3.6294-3.5822l2.0594-0.82972 16.55-1.0906c1.7781 1.7439 2.9987 3.9887 4.6181 5.2566 1.3994 2.5928 3.198 6.1536 4.3548 6.685-0.64162-1.947-0.3841-2.8664-2.0569-5.9919-0.83036-2.0146-2.6118-3.7231-4.407-4.8218-2.695-2.1741-2.2566-2.1048-3.7313-2.601l-12.789 0.0894z" fill="#8a8a8a"/> <path d="m243.48 405.39c-1.8498 1.7184-3.3254 0.97324-4.9286 3.9325-2.2381 2.5285-1.5538 2.0327-2.2979 3.7313-0.23407 2.6814 1.3331-0.59695 3.3636-3.5847 1.3946-1.103 2.2556-1.1626 3.3189-2.2656l2.0594-0.82972 14.19-1.2272c1.7781 1.7439 0.88711 2.2498 2.5066 3.5176 1.3994 2.5928 4.7506 5.9052 5.9074 6.4366-0.64162-1.947-1.9988-2.9285-3.6716-6.054-0.83036-2.0146-0.43814-1.6736-2.2333-2.7724-2.695-2.1741-2.2566-2.1048-3.7313-2.601l-12.54-2.9537z" fill="#9a9a9a"/> <path d="m241.2 402.18c-1.8498 1.7184-3.0522 2.7618-4.6554 5.7211-2.2381 2.5285-1.4296 2.9643-2.1737 4.6628-0.23407 2.6814 0.77419-0.90748 2.991-5.3857 1.3946-1.103 2.2306-2.0818 3.294-3.1847l1.9973-2.196 16.699-0.49438c1.7781 1.7439 3.8681 3.554 5.4876 4.8218 1.3994 2.5928 2.3285 6.5883 3.4853 7.1197-0.64162-1.947-0.3841-2.8664-2.0569-5.9919-0.83036-2.0146-2.6118-3.7231-4.407-4.8218-2.695-2.1741-2.2566-2.1048-3.7313-2.601l-12.789 0.0894z" fill="#8c8c8c"/> <path d="m252.05 398.22c-4.4562 0-9.3 4.2966-9.1062 7.0102s7.9437 14.02 9.6874 14.02 8.525-11.081 8.3312-14.247-6.0062-7.0102-8.9124-6.7841z" fill-opacity=".3137" fill-rule="evenodd"/> <path d="m251.35 395.5c-4.4562 0-9.3 3.8974-9.1062 6.3588s7.9437 12.718 9.6874 12.718 8.525-10.051 8.3312-12.923-6.0062-6.3588-8.9125-6.1537z" fill="url(#q)" fill-rule="evenodd" stroke="#000" stroke-width="1.5834"/> <g transform="matrix(.94454 0 0 1 162.97 67.006)" fill-rule="evenodd" stroke="#000" stroke-width="1.6292"> <path d="m135.69 328.16c-15.677 5.6371 4.615 30.676-12.323 52.523-3.1308 4.0382 18.856 0.68126 26.629-21.696 7.559-21.762 0.36897-35.041-14.306-30.827z" fill="#fff"/> <path d="m135.69 328.16c-15.677 5.6371 13.877 33.276-12.323 52.523-7.3726 5.416 18.856 0.68126 26.629-21.696 7.559-21.762 0.36897-35.041-14.306-30.827z" fill="url(#d)"/> </g> <path d="m231.68 354.58s13.929-41.549 29.436-55.144c6.4543-5.6584 14.41-3.6802 16.645-2.2421 6.4683 4.1611 8.8501 10.16 12.356 15.231-10.269-2.1479-6.823-6.3002-18.129-5.4426l6.7134 53.368c-14.553-3.4918-30.793-4.6235-47.021-5.7704z" fill="url(#t)" fill-rule="evenodd" stroke="#000" stroke-width=".86783"/> <g transform="matrix(.46651 0 0 .4036 36.638 149.15)" fill-rule="evenodd"> <path d="m415.38 510.19 6.6878-17.022c15.702-5.6533 49.492-5.3428 93.583 5.8092l4.2992 34.05c-33.484-9.6866-62.371-26.322-104.57-22.837z" fill="url(#p)"/> <path d="m480.07 520.86 0.32721-30.747 3.1085-1.3525c10.58 0.18033 19.196 1.8034 25.849 4.8691l3.7629 29.575-3.7629 1.623zm9.6595-26.808 1.1322 18.838 13.549 2.0407-1.0711-6.1908-8.4746-4.6876c-2.0062-3.0382 4.4923-1.9725 7.0995-2.4416l-0.72902-5.6614c-3.8353-1.7453-7.6706-2.0845-11.506-1.8971z" fill="#ffcd00" stroke="#000" stroke-linecap="round" stroke-linejoin="round"/> <path d="m480.41 490.21 3.3518-1.4302 0.64873 30.51-4.2168 1.6089 0.21624-30.689z" fill="#bc9500" stroke="#000" stroke-linecap="round" stroke-linejoin="round" stroke-width="1.0002"/> <path d="m489.58 492.29 0.0498 1.7634c3.1896-0.2648 6.9182-0.0784 11.628 1.7909l0.78942 5.8177 2.7865-0.69845-1.2404-6.2945c-5.3145-2.4177-9.6969-2.6755-14.013-2.3791z" fill="#bc9500" stroke="#000" stroke-linecap="round" stroke-linejoin="round"/> <path d="m492.83 503.73 10.451 4.4457 1.301 6.8993 2.7751 0.53493-1.8734-9.5091c-4.1619-0.83901-9.122-1.3489-12.654-2.3709z" fill="#bc9500" stroke="#000" stroke-linecap="round" stroke-linejoin="round"/> </g> <path d="m272.08 307.24c-0.57674-1.3823-1.2579-2.7827-0.63095-3.5316 0.81733-0.97632 2.7834-1.3745 1.885 1.2001" fill="none" stroke="#000" stroke-width=".86783"/> <path d="m233.19 355.43c-8.2671 0.0335-21.109 3.113-24.9 6.8632-0.61099 0.77746-3.3124 4.167-3.7168 5.9995 0.10689 7.3243 9.44-5.2217 16.868-4.3341 30.066 1.5045 57.379 8.6776 85.326 2.1164 1.1082-0.80706 2.5802-2.7576-2.041-3.3928-1.3427-0.42133-1.335 2.1261-13.631 0.76936-15.961-1.7613-32.002-6.546-45.761-7.5171-4.2997-0.30344-8.386-0.5197-12.144-0.5045z" fill="url(#u)" fill-rule="evenodd" stroke="#000" stroke-width=".86783"/> <path d="m263.47 356.01c-0.1633-2.853-0.52871-8.8408 0.36746-9.1208 0.76521 1.0026 1.2303 15.192-0.36746 9.1208z" fill="#fff" opacity=".8034"/> <path d="m210.36 362.76 0.37248 2.1264-2.04 0.68711 2.1235 0.32977 2e-3 1.6999c0.14575-0.10184 0.14441-5e-3 0.44212-0.24537l0.5467-1.2266 0.95814 0.27304c0.19904-0.13473 0.29963-0.18427 0.44138-0.29967l-0.88029-0.8519 1.2476-1.7764-1.9106 1.0116zm35.458 10.476 0.0625 0.15625c0.0502 9e-3 0.10607-9e-3 0.15625 0zm34.968-9.2458-0.8125 2-2.0938-0.5 1.625 1.4062-0.90045 1.4418c0.17759-9e-3 0.12508 0.0724 0.50496 0.0266l1.1142-0.74969 0.64073 0.68771c0.19881 0.0953 0.3687 0.10803 0.53632-6e-3l-0.2708-1.1509 2-0.84375-2.1562-0.15625zm13.646 0.0973 0.0188 3.5893c1.6981-0.40365 1.1124 0.0724 8.2249-1.2077l0.47497-0.44413-6.137 1.3261-1.7693-3.2011h-0.0313c-0.24187-0.0125-0.51994-0.0418-0.78125-0.0625zm-56.396-4.5078-0.5 4.5-4.5312 0.21875c3.0016 0.37332 3.3699 0.52622 8.2214 0.80854l2.8723-2.246-4.4375 0.9375zm35.195 1.4029 1.0553 1.1596-0.28234-1.0105zm-1.3986-0.26487-0.60866 1.0494 1.3787-0.9052zm-44.922-4.1205-3.5938 3.5-3.25-2.4062c-0.14811 0.0369-0.29032 0.0872-0.4375 0.125l1.875 3.8125-3.315 2.1588c1.3212-0.10013 2.7417-0.54808 3.9205-0.14969 1.3048 0.0121 1.8911 0.062 2.6446 0.0534l5.0312 0.0313-4.4688-2.3438 1.5938-4.7812zm31.666 1.6141-1.5403 1.2121-2.2929-1.8658c-0.73285-0.18768-1.2014-0.19773-2.5001-0.38943l1.9492 4.4115-6.3438 4.125 7.5312-0.75 0.54945 1.8143c1.4304 0.11414 1.4625 0.16628 2.5899 0.2982l0.42315-2.175 7.5625 0.40625-6.5312-3.8438 1.0599-2.8567c-1.2785-0.2528-1.9274-0.27596-2.4571-0.38667zm5.1472-15.975-2.875 4-4.4062-2.1875 1.4531 1.9844 1.0995 1.4852c1.4864 0.0542 1.6438 0.60348 1.5532-0.6864 0.54092-0.3051 1.6922-0.73757 2.5605-0.61503l0.25539-1.5432 0.35937-2.4375zm-25.315-0.084-1.8438 0.59375c-0.29827 0.74834-0.50995 1.3658-0.78125 2.0625zm9.1712 4.5551-0.73071-5.4086-5e-5 -5e-5 -2.0452 5.4271zm-4.9729 0.0909-3.9454-0.81209 1.2395 1.0077zm12.18-13.625-0.25 2.5312-2.5312 0.125 2.2812 1.0625-0.65625 2.4375 1.7188-1.875 2.125 1.375-1.25-2.1875 1.9688-1.5938-2.4688 0.5zm15.034-2.4375 1.5 7.5312-7.1875 2.75 7.6562 0.875 0.25613 5.4927c0.53905 0.18266 0.62277 0.20861 1.0591 0.34375l2.2473-5.149 0.6875 0.1875-0.78125-6.375-0.625 0.34375zm-23.173 0.0518-4.9375 1.0938-0.21875-0.59375c-1.2047 2.6594-2.2754 5.1699-3.2812 7.5938l2.8438-3.2188 4.2812 2.6875-2.5625-4.3438zm18.826-11.239 0.28125 4.8125-4.6875 1.0625 4.625 1.2188-0.4375 4.7812 2.5938-4.0625 4.4375 1.9062-3.0625-3.7188 3.1875-3.5938-4.5 1.75zm-14.722-6.0742c-0.32425 0.53402-0.64958 1.08-0.96875 1.625l-0.15625 4-2.25 0.28125c-0.38008 0.70491-0.75457 1.4129-1.125 2.125l2.9688 1.0938-1.4062 7.3125 4.5938-5.8438 6.5312 3.5625-4.1562-6.1562 5.4375-5.0938-7.1562 2.0312zm37.151-3.8018-1.875 0.96875 2.4688-0.0313c-0.19501-0.30934-0.40094-0.6247-0.59375-0.9375zm-16.072-0.36326-2.0312 0.3125 2.1562 0.71875zm14.318-3.5918-5.6562 1.75c0.8509 0.41821 1.5648 0.95231 2.375 1.5zm-19.238-1.3877-2.9688 3.2188-3.6562-2.4062 2.1562 3.8125-3.4375 2.75 4.3125-0.84375 1.5625 4.0938 0.5-4.375 4.375-0.1875-4-1.8438zm9.751-2.5908-0.0313 4.7188c1.0886 0.1102 1.9637 0.29532 2.6875 0.5625l-2.6562-5.2812zm-16.534 0.66206-2.9062 1.6562-0.0313 0.0313c-0.58063 0.69838-1.1469 1.4609-1.7188 2.2188l0.46875 0.0625 0.15625 3.375 1.4062-3.0938 3.2812 0.875-2.5-2.2812 1.8438-2.8438zm8.6377-6.168c-1.5882 0.24424-3.2409 0.79619-4.875 1.6875l-1.1875 2.2812 3.6875-2.5938 3.1875 3.2188-1.3438-4.3125z" fill="url(#o)" fill-rule="evenodd"/> <g transform="matrix(.84256 .42692 -.45199 .89202 320.18 83.724)" fill-rule="evenodd" stroke="#000" stroke-width="1.6292"> <path d="m51.639 328.16c15.677 5.6371-4.615 30.676 12.323 52.523 3.1308 4.0382-18.856 0.68126-26.629-21.696-7.559-21.762-0.36897-35.041 14.306-30.827z" fill="#fff"/> <path d="m51.639 328.16c15.677 5.6371-20.817 56.508 11.98 51.685 0.85954-0.68624-18.512 1.5194-26.285-20.858-7.559-21.762-0.36897-35.041 14.306-30.827z" fill="url(#c)"/> </g> <g transform="matrix(.77993 -.11069 .11069 .77993 -129.96 128.47)"> <path transform="matrix(.65021 0 0 .65021 236.59 308.9)" d="m222.45 56.486c0 15.952-12.932 28.884-28.884 28.884s-28.884-12.932-28.884-28.884 12.932-28.884 28.884-28.884 28.884 12.932 28.884 28.884z" fill="url(#l)"/> <path transform="matrix(.41865 0 0 .41865 281.47 321.98)" d="m222.45 56.486c0 15.952-12.932 28.884-28.884 28.884s-28.884-12.932-28.884-28.884 12.932-28.884 28.884-28.884 28.884 12.932 28.884 28.884z" fill="url(#r)"/> <path transform="matrix(.23549 -.04211 .02967 .16591 313.79 338.87)" d="m222.45 56.486c0 15.952-12.932 28.884-28.884 28.884s-28.884-12.932-28.884-28.884 12.932-28.884 28.884-28.884 28.884 12.932 28.884 28.884z" fill="url(#k)"/> <path transform="matrix(-.28596 .12535 -.09162 -.20901 425.33 337.93)" d="m222.45 56.486c0 15.952-12.932 28.884-28.884 28.884s-28.884-12.932-28.884-28.884 12.932-28.884 28.884-28.884 28.884 12.932 28.884 28.884z" fill="url(#j)"/> <path d="m358.56 323.75c-4.6469 0.13638-7.0204 2.3596-8.75 5.2188-0.59427 7.3942-4.1316 10.009-9.25 10-2.3211 3.2991-3.1347 6.6072 0.6875 9.9062 6.0796 3.0952 5.2093 10.05 7.7812 15.094 3.1145 2.8403 4.1463 0.47051 8.0312-0.15625 2.5353 6.3606-0.52772 5.534-0.84375 8.0312l-1.5938 9.6562c-1.0108 4.0327-5.2508 8.98 2.4688 12.094 1.6912 1.5401 2.359 5.6627 3.0938 9.5938-0.52635 9.9243 1.0994 11.19 1.9062 15.781-4.2208 3.0502 0.29439 12.704 0 17.312-1.7227 3.666-2.6814 2.3615-5.75 15-3.7251 2.7319-6.1125 5.6696-6.9375 8.8438-1.6443 7.1773-4.2663 4.6871-4.5938 24.594 1.4064 7.9684 4.9421 3.159 7.6875 3.0938 3.1361-0.96561 7.149-1.0618 4.5938-7.7188 1.7365-9.5797 2.2896-13.144 3.0938-18.062 3.3333-3.0762 7.5489-5.9786 6.1562-10 2.8138-0.32841 6.9822-2.9102 3.0625-11.156 5.6786-5.662 4.5402-7.4139 3.4688-9.2188l-2.6875-10c0.77186-4.4876 0.12054-8.271 0-12.312-0.23561-3.5434-2.5912-9.541-5.7812-16.531 0.522-4.0593 3.371-8.2964-1.5312-11.906 2.0827-5.1912 6.045-10.73 3.0625-15 3.2293-0.7466 6.6366 2.1014 9.625-3.8438 1.9447-1.4396 3.4658 2.6665 6.1562-8.4688 0.23075-2.5664 2.7089-1.1659-0.375-9.625-0.57866-2.4354 3.7167-4.8458-3.8438-7.2812 1.3522-4.6711-1.4396-7.7809-5.4062-10.406-1.1876-3.6493-4.9471-2.1126-8.0625-1.9062-2.1081-0.47638-3.9198-0.67046-5.4688-0.625zm3.2227 10.77c0.88726 0 2.3749-0.90388 3.2122-0.73293s1.1602 0.14793 1.9182 0.4995c1.6623 0.771 1.1181 1.149 1.8031 1.6104s1.3344 0.37376 1.9173 0.95468 0.63201 2.3743 1.0953 3.0576 1.527 0.38053 1.8532 1.149 0.14489 1.5751 0.31672 2.4115-0.17264 2.4478-0.17264 3.3351c0 1.7745 0.19788 1.7877-0.45461 3.3245s-1.0375 2.61-2.2032 3.7718-2.1186 0.1145-3.6583 0.76406-3.2317 2.6855-5.0062 2.6855-3.4024 0.0756-4.9392-0.57393-1.3678-0.65802-2.5297-1.8199-2.8471-3.1044-3.4967-4.6413 0.54395-2.7921 0.54395-4.5666-1.1314-3.4024-0.48185-4.9392-0.54644-0.42539 3.4346-3.5234c1.6069-1.2505 1.1844-1.8812 2.716-2.503 1.5459-0.62762 2.3573-0.26341 4.1319-0.2634z" fill="#765700" stroke="#000"/> <path d="m358.56 323.75c-4.6469 0.13638-7.0204 2.3596-8.75 5.2188-0.59427 7.3941-4.1316 10.009-9.25 10-2.3211 3.2991-3.1347 6.6072 0.6875 9.9062 6.0796 3.0952 5.2093 10.05 7.7812 15.094 3.1145 2.8403 4.1463 0.47051 8.0312-0.15625 2.5353 6.3606-0.52772 5.534-0.84375 8.0312l-1.5938 9.6562c-1.0108 4.0327-5.2508 8.98 2.4688 12.094 1.6912 1.5401 2.359 5.6627 3.0938 9.5938-0.52635 9.9243 1.0994 11.19 1.9062 15.781-4.2208 3.0502 0.29439 12.704 0 17.312-1.7227 3.666-2.6814 2.3615-5.75 15-3.7251 2.7319-6.1125 5.6696-6.9375 8.8438-1.6443 7.1773-4.2663 4.6871-4.5938 24.594 1.4064 7.9684 4.9421 3.159 7.6875 3.0938 3.1361-0.96561 7.149-1.0618 4.5938-7.7188 1.7365-9.5797 2.2896-13.144 3.0938-18.062 3.3333-3.0762 7.5489-5.9786 6.1562-10 2.8138-0.32841 6.9822-2.9102 3.0625-11.156 5.6786-5.662 4.5402-7.4139 3.4688-9.2188l-2.6875-10c0.77186-4.4876 0.12054-8.271 0-12.312-0.23561-3.5434-2.5912-9.541-5.7812-16.531 0.522-4.0593 3.371-8.2964-1.5312-11.906 2.0827-5.1912 6.045-10.73 3.0625-15 3.2293-0.7466 6.6366 2.1014 9.625-3.8438 1.9447-1.4396 3.4658 2.6665 6.1562-8.4688 0.23075-2.5664 2.7089-1.1659-0.375-9.625-0.57866-2.4354 3.7167-4.8458-3.8438-7.2812 1.3522-4.6711-1.4396-7.7809-5.4062-10.406-1.1876-3.6493-4.9471-2.1126-8.0625-1.9062-2.1081-0.47638-3.9198-0.67046-5.4688-0.625zm3.2227 10.77c0.88726 0 2.3749-0.90388 3.2122-0.73293s1.1602 0.14793 1.9182 0.4995c1.6623 0.771 1.1181 1.149 1.8031 1.6104s1.3344 0.37376 1.9173 0.95468 0.63201 2.3743 1.0953 3.0576 1.527 0.38053 1.8532 1.149 0.14489 1.5751 0.31672 2.4115-0.17264 2.4478-0.17264 3.3351c0 1.7745 0.19788 1.7877-0.45461 3.3245s-1.0375 2.61-2.2032 3.7718-2.1186 0.1145-3.6583 0.76406-3.2317 2.6855-5.0062 2.6855-3.4024 0.0756-4.9392-0.57393-1.3678-0.65802-2.5297-1.8199-2.8471-3.1044-3.4967-4.6413 0.54395-2.7921 0.54395-4.5666-1.1314-3.4024-0.48185-4.9392-0.54644-0.42539 3.4346-3.5234c1.6069-1.2505 1.1844-1.8812 2.716-2.503 1.5459-0.62762 2.3573-0.26341 4.1319-0.2634z" fill="url(#i)" opacity=".3356"/> <path d="m366.19 368.1c-1.3361-3.8936-3.9924-2.372-4.4616 1.9362-2.3544 4.3459-1.0899 6.4698-0.45112 8.7163 0.36574 1.3726 0.78858 0.16745 1.6515 0.42417 1.3398-0.44733 3.1516-5.1456 3.2612-11.077z" fill="url(#h)" stroke="#302112" stroke-linecap="round" stroke-linejoin="round" stroke-width=".83106"/> <path d="m354.06 383.51c0.68297-0.47613 0.53567-1.7825 2.3429-1.1344 1.9613 0.18412 2.5747 1.5165 3.0049 3.0049 1.1103 2.8508 0.0784 4.1308-0.42927 5.7951-0.30858 1.8943-1.0937 1.7235-1.7171 2.2537-3.6035-1.6447-6.4163-3.8074-3.2015-9.9193z" fill="url(#g)" stroke="#302112" stroke-linecap="round" stroke-linejoin="round" stroke-width=".9"/> <path d="m363.49 404.17c0.043 0.64211 0.36322 1.2842 0.95824 1.9263 0.94255 2.4349 1.6552 4.4961 1.5024 5.1512 0.22264 5.4901-0.0996 5.4768-0.6439 6.4927-1.6189 2.2792 0.58759 5.1728 1.2878 8.3171" fill="none" stroke="#302112" stroke-linecap="round" stroke-linejoin="round"/> <path d="m369.58 441.02c-1.1753-0.14429-3.0489-1.331-3.8444 0.17049-2.0359 1.6138-2.3326 2.6064-2.4683 3.5415-0.33449 1.8495-0.21154 2.7841 0 3.5415 0.34463 2.7222 2.2132 2.9946 3.1967 3.8002 4.4084-1.1011 5.8572-4.4712 3.116-11.054z" fill="url(#f)" stroke="#302112" stroke-linecap="round" stroke-linejoin="round" stroke-width=".9"/> <path d="m355.98 451.61 1.472-0.49245c1.0073 0.17784 2.0661 0.27427 1.4621 3.0033-0.58834 2.238-1.1767 4.7151-1.765 6.3104-1.1948 3.4532-2.0723 3.4149-3.1084 5.1223-2.158 2.7939-3.2888 2.0958-4.8293 2.7902-2.3408-0.22062-2.2919-1.4231-1.7688-2.7347 2.2962-4.6664 2.1538-9.3328 8.5374-13.999z" fill="url(#e)" stroke="#302112" stroke-linecap="round" stroke-linejoin="round" stroke-width=".9"/> </g> <g transform="matrix(.84256 .42692 -.45199 .89202 320.03 83.724)" fill-rule="evenodd" stroke="#000" stroke-width="1.6292"> <path d="m54.944 365.26c1.5271 2.0761 3.172 4.3369 4.2688 7.1235s3.662 4.3526 5.7793 7.0836c0.39135 0.50478 0.39024 0.89401 0.07349 1.145s-0.94914 0.36369-1.8204 0.31545-3.0571 0.27752-4.3292-0.11535-2.6599-0.28972-4.1791-1.0726-3.1236-1.7722-4.7364-2.9906-2.9186-3.0674-4.4713-4.7666c0.64108-9.1783 1.7804-17.238 9.4148-6.7224z" fill="#fff"/> <path d="m53.188 365.15c0.57934 2.6929 1.6354 5.3734 3.3653 7.9822s4.1824 2.9569 7.4574 5.3628c1.8432 1.354 1.5863 2.0736 0.04267 2.0417s-4.4224 1.3735-7.726-0.27844c-1.6518-0.82597-3.4219-1.8691-5.2087-3.1439s-3.7167-3.5872-5.4351-5.3402c-14.898-22.968-0.95699-20.036 7.5044-6.624z" fill="url(#c)"/> </g> </g> </svg>