<svg width="167" height="285" viewBox="0 0 167 285" fill="none" xmlns="http://www.w3.org/2000/svg">
<g clip-path="url(#clip0_1_395)">
<path fill-rule="evenodd" clip-rule="evenodd" d="M61.68 167.21C53.4129 167.243 35.549 173.027 35.235 176.262C28.2814 184.127 37.7295 183.754 53.645 180.181C64.704 182.733 74.908 186.598 86.158 186.318C95.9704 186.001 105.803 186.061 115.592 186.886C127.841 186.437 132.447 184.171 135.462 177.792L135.229 177.868C136.339 177.074 137.878 175.103 133.217 174.462C131.874 174.041 131.882 176.588 119.586 175.232C103.625 173.47 87.5839 168.686 73.8249 167.714C69.5252 167.411 65.438 167.195 61.68 167.21Z" fill="url(#paint0_linear_1_395)" stroke="black" stroke-width="0.86783"/>
<path fill-rule="evenodd" clip-rule="evenodd" d="M69.7255 264.326C54.9264 265.939 37.953 278.617 44.6999 281.382C51.4467 284.147 71.027 285.3 74.7268 282.074C76.6279 280.417 80.0293 276.266 80.4301 272.37C80.8315 276.265 84.2229 280.417 86.1239 282.074C89.8236 285.3 109.414 284.147 116.16 281.382C122.906 278.617 105.934 265.939 91.1347 264.326C83.5143 265.104 80.7731 267.814 80.4302 270.924C80.0868 267.814 77.3456 265.104 69.7255 264.326Z" fill="url(#paint1_radial_1_395)" stroke="black" stroke-width="1.51991"/>
<path fill-rule="evenodd" clip-rule="evenodd" d="M69.7283 264.336C62.4647 265.128 54.6846 268.585 49.4348 272.228C57.3853 276.12 67.1062 278.519 77.6435 278.795C78.9938 276.914 80.2034 274.608 80.4326 272.38C80.6601 274.587 81.8413 276.873 83.1737 278.744C93.5381 278.28 103.058 275.764 110.805 271.8C105.575 268.316 98.1182 265.097 91.1371 264.336C83.5167 265.114 80.7755 267.825 80.4326 270.934C80.0892 267.825 77.3484 265.114 69.7283 264.336Z" fill="black" fill-opacity="0.3137"/>
<path d="M130.647 219.016C130.647 233.324 125.279 247.047 115.722 257.164C106.166 267.282 93.2043 272.966 79.6894 272.966C66.1745 272.966 53.2131 267.282 43.6567 257.164C34.1002 247.047 28.7314 233.324 28.7314 219.016C28.7314 204.708 34.1002 190.985 43.6567 180.868C53.2131 170.75 66.1745 165.066 79.6894 165.066C93.2043 165.066 106.166 170.75 115.722 180.868C125.279 190.985 130.647 204.708 130.647 219.016Z" fill="url(#paint2_radial_1_395)" stroke="black" stroke-width="1.51991" stroke-linecap="round"/>
<path d="M104.871 245.986C104.871 249.421 104.232 252.821 102.99 255.995C101.749 259.168 99.9293 262.051 97.6354 264.479C95.3415 266.908 92.6183 268.834 89.6212 270.149C86.6241 271.463 83.4118 272.14 80.1678 272.14C76.9237 272.14 73.7114 271.463 70.7143 270.149C67.7172 268.834 64.994 266.908 62.7001 264.479C60.4062 262.051 58.5866 259.168 57.3451 255.995C56.1037 252.821 55.4647 249.421 55.4647 245.986C55.4647 242.551 56.1037 239.151 57.3451 235.978C58.5866 232.804 60.4062 229.921 62.7001 227.493C64.994 225.064 67.7172 223.138 70.7143 221.823C73.7114 220.509 76.9237 219.833 80.1678 219.833C83.4118 219.833 86.6241 220.509 89.6212 221.823C92.6183 223.138 95.3415 225.064 97.6354 227.493C99.9293 229.921 101.749 232.804 102.99 235.978C104.232 239.151 104.871 242.551 104.871 245.986Z" fill="white" stroke="black" stroke-width="1.58338" stroke-linecap="round"/>
<path d="M128.635 204.016C128.739 205.419 128.799 206.832 128.799 208.262C128.799 238.041 105.962 262.209 77.8344 262.209C54.6223 262.209 35.0316 245.75 28.8893 223.261C30.9388 251.056 52.9052 272.962 79.681 272.962C107.808 272.962 130.646 248.794 130.646 219.015C130.646 213.811 129.936 208.778 128.635 204.016Z" fill="black" fill-opacity="0.3137"/>
<path d="M69.52 183.11C62.4613 183.11 56.728 190.094 56.728 198.699C56.728 207.304 62.4611 214.288 69.52 214.288C73.6682 214.288 77.3493 211.873 79.686 208.138C82.0227 211.876 85.7118 214.288 89.862 214.288C96.9207 214.288 102.654 207.304 102.654 198.699C102.654 190.094 96.9209 183.11 89.862 183.11C85.7126 183.11 82.023 185.523 79.686 189.26C77.3491 185.525 73.6676 183.11 69.52 183.11Z" fill="white" stroke="black" stroke-width="1.5834" stroke-linecap="round"/>
<path d="M77.3938 190.404C77.389 191.298 77.0501 192.154 76.4511 192.785C75.8521 193.415 75.0417 193.769 74.1969 193.769C73.3521 193.769 72.5417 193.415 71.9427 192.785C71.3437 192.154 71.0048 191.298 71.0001 190.404C70.9977 189.957 71.0786 189.515 71.2382 189.102C71.3978 188.69 71.633 188.314 71.93 187.998C72.2271 187.682 72.5803 187.431 72.9694 187.259C73.3584 187.088 73.7756 187 74.1969 187C74.6182 187 75.0354 187.088 75.4244 187.259C75.8135 187.431 76.1667 187.682 76.4638 187.998C76.7609 188.314 76.996 188.69 77.1556 189.102C77.3152 189.515 77.3961 189.957 77.3938 190.404Z" fill="black" stroke="black" stroke-width="1.5834" stroke-linecap="round"/>
<path d="M88.8337 190.404C88.836 190.85 88.7551 191.292 88.5955 191.705C88.4359 192.117 88.2008 192.493 87.9037 192.809C87.6066 193.125 87.2534 193.376 86.8644 193.548C86.4753 193.719 86.0582 193.807 85.6368 193.807C85.2155 193.807 84.7983 193.719 84.4093 193.548C84.0203 193.376 83.6671 193.125 83.37 192.809C83.0729 192.493 82.8378 192.117 82.6782 191.705C82.5186 191.292 82.4376 190.85 82.44 190.404C82.4376 189.957 82.5186 189.515 82.6782 189.102C82.8378 188.69 83.0729 188.314 83.37 187.998C83.6671 187.682 84.0203 187.431 84.4093 187.259C84.7983 187.088 85.2155 187 85.6368 187C86.0582 187 86.4753 187.088 86.8644 187.259C87.2534 187.431 87.6066 187.682 87.9037 187.998C88.2008 188.314 88.4359 188.69 88.5955 189.102C88.7551 189.515 88.836 189.957 88.8337 190.404Z" fill="black" stroke="black" stroke-width="1.5834" stroke-linecap="round"/>
<path d="M70.6326 216.85C68.6717 215.859 67.4322 216.914 66.4601 219.384C65.6999 224.224 63.6358 229.331 67.4492 232.798C67.1631 237.019 68.1097 239.236 70.2927 240C70.0366 245.95 71.7027 245.102 73.1053 248.685C72.4977 253.561 73.0655 250.728 73.6925 253.785C74.9117 260.675 75.6135 260.345 76.6596 261.542C77.6546 264.601 79.1936 263.772 80.2758 262.624C81.3068 258.719 82.4863 257.907 82.2848 255.763C84.7449 253.823 83.9425 252.088 84.8192 251.065C87.1255 245.619 87.3367 244.999 87.4772 241.947C92.0215 232.742 90.3368 233.957 90.2589 231.222C91.2513 228.537 92.4411 223.963 91.1243 223.124C94.0612 220.567 92.4251 220.929 91.4334 219.354C90.5129 217.398 90.3767 218.325 87.3844 217.499C81.7544 219.777 78.2395 218.526 70.6326 216.85Z" fill="#D2D2D2" stroke="black"/>
<path d="M67.9427 221.76C66.4873 223.793 67.3453 226.289 68.3136 228.807C69.4067 239.068 69.6988 234.109 70.3535 236.039C70.4206 239.565 71.319 240.63 71.6516 242.344C73.9667 245.466 74.8542 256.362 74.9896 254.769C75.0899 252.706 76.1368 247.459 74.4332 240.861C75.1141 238.885 76.4556 238.23 74.8041 231.589C76.0321 227.493 76.6598 224.447 75.9168 223.801C77.1402 221.469 76.7941 220.054 75.5459 219.164C70.1233 219.168 70.271 217.312 69.2511 216.91C68.2353 217.929 68.0545 217.577 67.9427 221.76Z" fill="#B9B9B9"/>
<path d="M78.5126 220.47C77.6349 224.061 76.5193 227.772 78.5126 229.928C77.4539 233.966 81.2081 240.27 77.2145 248.287C77.2617 253.77 76.6232 261.311 78.5126 261.268C79.4267 260.087 78.8646 255.685 80.2305 244.11C80.6636 241.082 82.7849 242.979 81.4307 235.93C82.936 233.307 84.7253 230.837 83.8904 223.066C82.6861 220.73 81.6319 218.019 78.5126 220.47Z" fill="#A9A9A9"/>
<path d="M88.2526 218.36C85.0027 217.077 86.1211 229.475 85.1876 239.383C82.3957 243.621 81.212 250.476 81.2933 256.629C82.9309 251.712 84.9157 248.531 86.1149 241.423C88.657 238.734 89.3695 234.581 89.4529 229.925C89.4127 226.294 90.9239 218.921 88.2526 218.36Z" fill="#BABABA"/>
<path d="M66.3927 225.54C66.0546 227.448 66.8668 229.556 67.7339 231.675C68.3784 237.131 69.2563 237.236 69.8804 238.869C71.8849 239.459 70.6241 242.394 71.2307 243.677C73.5543 246.008 75.6024 255.121 75.1391 253.81C74.8433 251.995 74.4586 247.31 72.5735 241.685C72.5616 239.896 73.0754 239.205 71.2073 233.538C71.0975 229.845 70.8835 227.124 70.4314 226.623C70.6124 224.475 70.7535 223.159 70.0267 222.491C67.5109 222.971 68.334 218.296 67.7941 218.034C67.4918 219.015 65.7506 221.869 66.3927 225.54Z" fill="#A9A9A9"/>
<path d="M73.9627 222.96C73.6311 226.384 73.1508 229.942 74.6144 231.753C74.0637 235.695 72.441 242.245 75.0232 248.947C75.4322 254.04 75.5306 261.113 76.7741 260.889C77.2957 259.702 78.0032 255.964 75.6384 245.178C75.7155 242.321 78.0385 242.405 76.6594 235.983C77.4718 233.398 78.7757 231.995 77.6894 224.851C76.734 222.796 75.8516 220.378 73.9627 222.96Z" fill="#A9A9A9"/>
<path d="M85.5327 220.22C82.8267 219.009 84.1465 240.522 81.8586 245.801C79.4968 250.302 77.8158 261.526 79.0769 262.024C80.4622 256.802 82.2724 254.122 83.2869 246.572C85.4374 243.716 85.6108 239.95 85.6814 235.005C85.6474 231.149 87.7925 220.816 85.5327 220.22Z" fill="#A2A2A2"/>
<path d="M69.9226 221.62C67.618 222.864 61.9016 231.854 61.6368 224.938C62.0479 222.631 63.5138 218.653 66.4875 215.675C71.2248 211.348 74.1152 211.463 77.7705 210.659C89.5085 210.342 89.7025 213.425 93.1825 215.754C95.1874 218.115 95.919 220.174 96.56 221.611C97.0957 223.913 101.425 234.086 89.18 222.224C79.3313 216.608 74.4726 219.949 69.9226 221.62Z" fill="#A9A9A9" stroke="black"/>
<path d="M70.12 215.47C68.2702 217.188 66.7325 218.629 65.1292 221.589C62.8911 224.117 63.327 223.808 62.5829 225.506C62.3488 228.188 63.7297 225.344 65.9465 220.866C67.3411 219.763 68.5124 218.387 69.5759 217.284L71.6353 216.454L88.1853 215.363C89.9634 217.107 91.184 219.352 92.8034 220.62C94.2028 223.213 96.0014 226.773 97.1582 227.305C96.5166 225.358 96.7741 224.438 95.1013 221.313C94.2709 219.298 92.4895 217.59 90.6943 216.491C87.9993 214.317 88.4377 214.386 86.963 213.89L74.174 213.98L70.12 215.47Z" fill="#8A8A8A"/>
<path d="M71.7199 217.17C69.8701 218.889 68.3945 218.143 66.7913 221.103C64.5532 223.631 65.2375 223.135 64.4934 224.834C64.2593 227.515 65.8265 224.237 67.857 221.249C69.2516 220.146 70.1126 220.087 71.1759 218.984L73.2353 218.154L87.4253 216.927C89.2034 218.671 88.3124 219.176 89.9319 220.444C91.3313 223.037 94.6825 226.349 95.8393 226.881C95.1977 224.934 93.8405 223.952 92.1677 220.827C91.3373 218.812 91.7296 219.153 89.9344 218.054C87.2394 215.88 87.6778 215.95 86.2031 215.453L73.6631 212.5L71.7199 217.17Z" fill="#9A9A9A"/>
<path d="M69.44 213.96C67.5902 215.678 66.3878 216.722 64.7846 219.681C62.5465 222.21 63.355 222.645 62.6109 224.344C62.3768 227.025 63.3851 223.436 65.6019 218.958C66.9965 217.855 67.8325 216.876 68.8959 215.774L70.8932 213.578L87.5922 213.083C89.3703 214.827 91.4603 216.637 93.0798 217.905C94.4792 220.498 95.4083 224.493 96.5651 225.025C95.9235 223.078 96.181 222.158 94.5082 219.033C93.6778 217.018 91.8964 215.31 90.1012 214.211C87.4062 212.037 87.8446 212.106 86.3699 211.61L73.5809 211.699L69.44 213.96Z" fill="#8C8C8C"/>
<path fill-rule="evenodd" clip-rule="evenodd" d="M80.2899 210C75.8337 210 70.9899 214.297 71.1837 217.01C71.3775 219.724 79.1274 231.03 80.8711 231.03C82.6148 231.03 89.3961 219.949 89.2023 216.783C89.0085 213.617 83.1961 209.774 80.2899 210Z" fill="black" fill-opacity="0.3137"/>
<path fill-rule="evenodd" clip-rule="evenodd" d="M79.59 207.28C75.1338 207.28 70.29 211.177 70.4838 213.639C70.6776 216.1 78.4275 226.357 80.1712 226.357C81.9149 226.357 88.6962 216.306 88.5024 213.434C88.3086 210.562 82.4963 207.075 79.59 207.28Z" fill="url(#paint3_linear_1_395)" stroke="black" stroke-width="1.5834"/>
<path fill-rule="evenodd" clip-rule="evenodd" d="M59.9199 166.36C59.9199 166.36 73.8489 124.811 89.3559 111.216C95.8102 105.558 103.766 107.536 106.001 108.974C112.469 113.135 114.851 119.134 118.357 124.205C108.088 122.057 111.534 117.905 100.228 118.762L106.941 172.13C92.3883 168.639 76.1479 167.507 59.9199 166.36Z" fill="url(#paint4_linear_1_395)" stroke="black" stroke-width="0.86783"/>
<path fill-rule="evenodd" clip-rule="evenodd" d="M58.6569 166.843L61.7768 159.973C69.1019 157.691 84.8653 157.816 105.434 162.317L107.44 176.06C91.8192 172.15 78.3431 165.436 58.6569 166.843Z" fill="url(#paint5_linear_1_395)"/>
<path fill-rule="evenodd" clip-rule="evenodd" d="M88.8354 171.149L88.9881 158.74L90.4382 158.194C95.3739 158.267 99.3934 158.922 102.497 160.159L104.252 172.095L102.497 172.751L88.8354 171.149ZM93.3417 160.329L93.8699 167.933L100.191 168.756L99.6909 166.258L95.7375 164.366C94.8015 163.139 97.8332 163.57 99.0495 163.38L98.7094 161.095C96.9201 160.391 95.1309 160.254 93.3417 160.329Z" fill="#FFCD00" stroke="black" stroke-width="0.433916" stroke-linecap="round" stroke-linejoin="round"/>
<path fill-rule="evenodd" clip-rule="evenodd" d="M88.994 158.779L90.5576 158.202L90.8602 170.515L88.8931 171.165L88.994 158.779Z" fill="#BC9500" stroke="black" stroke-width="0.434003" stroke-linecap="round" stroke-linejoin="round"/>
<path fill-rule="evenodd" clip-rule="evenodd" d="M93.2719 159.618L93.2951 160.33C94.7831 160.223 96.5225 160.298 98.7197 161.053L99.0879 163.401L100.388 163.119L99.8092 160.579C97.3299 159.603 95.2854 159.499 93.2719 159.618Z" fill="#BC9500" stroke="black" stroke-width="0.433916" stroke-linecap="round" stroke-linejoin="round"/>
<path fill-rule="evenodd" clip-rule="evenodd" d="M94.7881 164.236L99.6636 166.03L100.271 168.814L101.565 169.03L100.691 165.192C98.7496 164.854 96.4358 164.648 94.7881 164.236Z" fill="#BC9500" stroke="black" stroke-width="0.433916" stroke-linecap="round" stroke-linejoin="round"/>
<path d="M100.32 119.02C99.7432 117.638 99.062 116.237 99.689 115.488C100.506 114.512 102.472 114.114 101.574 116.689" stroke="black" stroke-width="0.86783"/>
<path fill-rule="evenodd" clip-rule="evenodd" d="M61.4299 167.21C53.1628 167.244 40.3209 170.323 36.5299 174.073C35.9189 174.851 33.2175 178.24 32.8131 180.073C32.92 187.397 42.2531 174.851 49.6811 175.739C79.7471 177.243 107.06 184.416 135.007 177.855C136.115 177.048 137.587 175.097 132.966 174.462C131.623 174.041 131.631 176.588 119.335 175.232C103.374 173.47 87.3331 168.686 73.5741 167.714C69.2744 167.411 65.1879 167.195 61.4299 167.21Z" fill="url(#paint6_linear_1_395)" stroke="black" stroke-width="0.86783"/>
<path opacity="0.8034" d="M91.7099 167.79C91.5466 164.937 91.1812 158.949 92.0774 158.669C92.8426 159.672 93.3077 173.861 91.7099 167.79Z" fill="white"/>
<path fill-rule="evenodd" clip-rule="evenodd" d="M38.5999 174.54L38.9724 176.666L36.9324 177.354L39.0559 177.683L39.0579 179.383C39.2036 179.281 39.2023 179.378 39.5 179.138L40.0467 177.911L41.0048 178.184C41.2039 178.05 41.3045 178 41.4462 177.885L40.5659 177.033L41.8135 175.256L39.9029 176.268L38.5999 174.54ZM74.0579 185.016L74.1204 185.172C74.1706 185.181 74.2265 185.163 74.2766 185.172L74.0579 185.016ZM109.026 175.77L108.213 177.77L106.12 177.27L107.745 178.676L106.844 180.118C107.022 180.109 106.969 180.191 107.349 180.145L108.463 179.395L109.104 180.083C109.303 180.178 109.473 180.191 109.64 180.077L109.37 178.926L111.37 178.082L109.213 177.926L109.026 175.77ZM122.672 175.868L122.691 179.457C124.389 179.053 123.803 179.529 130.916 178.249L131.391 177.805L125.254 179.131L123.484 175.93H123.453C123.211 175.918 122.933 175.888 122.672 175.868ZM66.2759 171.36L65.7759 175.86L61.2447 176.079C64.2463 176.452 64.6146 176.605 69.4661 176.887L72.3384 174.641L67.9009 175.579L66.2759 171.36ZM101.471 172.763L102.526 173.922L102.244 172.912L101.471 172.763ZM100.072 172.498L99.4637 173.547L100.842 172.642L100.072 172.498ZM55.1503 168.377L51.5565 171.877L48.3065 169.471C48.1584 169.508 48.0162 169.558 47.869 169.596L49.744 173.409L46.429 175.567C47.7502 175.467 49.1707 175.019 50.3495 175.418C51.6543 175.43 52.2406 175.48 52.9941 175.471L58.0253 175.502L53.5565 173.159L55.1503 168.377ZM86.8163 169.991L85.276 171.203L82.9831 169.338C82.2502 169.15 81.7817 169.14 80.483 168.948L82.4322 173.36L76.0884 177.485L83.6196 176.735L84.1691 178.549C85.5995 178.663 85.6315 178.715 86.7589 178.847L87.1821 176.672L94.7446 177.079L88.2134 173.235L89.2733 170.378C87.9948 170.125 87.346 170.102 86.8163 169.991ZM91.9635 154.016L89.0885 158.016L84.6823 155.829L86.1354 157.813L87.2349 159.298C88.7213 159.353 88.8787 159.902 88.7881 158.612C89.329 158.307 90.4803 157.875 91.3486 157.997L91.604 156.454L91.9635 154.016ZM66.6485 153.932L64.8047 154.526C64.5064 155.274 64.2948 155.892 64.0235 156.589L66.6485 153.932ZM75.8197 158.487L75.089 153.079L73.0437 158.506L75.8197 158.487ZM70.8468 158.578L66.9014 157.766L68.1409 158.774L70.8468 158.578ZM83.0268 144.953L82.7768 147.485L80.2456 147.61L82.5268 148.672L81.8705 151.11L83.5894 149.235L85.7144 150.61L84.4644 148.422L86.4331 146.828L83.9644 147.328L83.0268 144.953ZM98.0608 142.516L99.5608 150.047L92.3733 152.797L100.03 153.672L100.286 159.165C100.825 159.347 100.908 159.373 101.345 159.509L103.592 154.36L104.28 154.547L103.498 148.172L102.873 148.516L98.0608 142.516ZM74.8878 142.568L69.9503 143.661L69.7316 143.068C68.5269 145.727 67.4561 148.238 66.4503 150.662L69.2941 147.443L73.5753 150.13L71.0128 145.786L74.8878 142.568ZM93.7138 131.329L93.9951 136.141L89.3076 137.204L93.9326 138.422L93.4951 143.204L96.0888 139.141L100.526 141.047L97.4638 137.329L100.651 133.735L96.1513 135.485L93.7138 131.329ZM78.9918 125.254C78.6676 125.789 78.3422 126.334 78.0231 126.879L77.8668 130.879L75.6168 131.161C75.2367 131.866 74.8622 132.574 74.4918 133.286L77.4606 134.38L76.0544 141.692L80.6482 135.848L87.1794 139.411L83.0232 133.255L88.4607 128.161L81.3045 130.192L78.9918 125.254ZM116.143 121.453L114.268 122.421L116.737 122.39C116.542 122.081 116.336 121.765 116.143 121.453ZM100.071 121.089L98.0396 121.402L100.196 122.121L100.071 121.089ZM114.389 117.498L108.733 119.248C109.584 119.666 110.297 120.2 111.108 120.748L114.389 117.498ZM95.1508 116.11L92.182 119.329L88.5258 116.923L90.682 120.735L87.2445 123.485L91.557 122.641L93.1195 126.735L93.6195 122.36L97.9945 122.173L93.9945 120.329L95.1508 116.11ZM104.902 113.519L104.871 118.238C105.959 118.348 106.834 118.533 107.558 118.8L104.902 113.519ZM88.3678 114.181L85.4616 115.837L85.4303 115.869C84.8497 116.567 84.2834 117.33 83.7115 118.087L84.1803 118.15L84.3365 121.525L85.7427 118.431L89.0239 119.306L86.5239 117.025L88.3678 114.181ZM97.0055 108.013C95.4173 108.257 93.7646 108.809 92.1305 109.701L90.943 111.982L94.6305 109.388L97.818 112.607L96.4742 108.294L97.0055 108.013Z" fill="url(#paint7_linear_1_395)"/>
<path fill-rule="evenodd" clip-rule="evenodd" d="M43.6039 210.275C54.2648 221.996 25.8503 235.668 30.2469 262.387C31.0596 267.326 14.0517 254.945 17.6168 231.666C21.0841 209.027 33.1441 200.251 43.6039 210.275Z" fill="white" stroke="black" stroke-width="1.58338"/>
<path fill-rule="evenodd" clip-rule="evenodd" d="M43.604 210.275C54.2649 221.996 0.523335 251.794 30.3367 261.493C31.3711 261.248 14.0525 254.946 17.6176 231.666C21.0849 209.027 33.1441 200.251 43.604 210.275Z" fill="url(#paint8_radial_1_395)" stroke="black" stroke-width="1.58338"/>
<path d="M33.8695 167.617C35.0176 175.707 29.3903 183.196 21.3007 184.344C13.2112 185.492 5.72241 179.864 4.57432 171.775C3.42622 163.685 9.05353 156.197 17.1431 155.048C25.2326 153.9 32.7214 159.528 33.8695 167.617Z" fill="url(#paint9_radial_1_395)"/>
<path d="M28.6982 168.351C29.4374 173.56 25.8142 178.382 20.6056 179.121C15.3969 179.86 10.5752 176.237 9.83593 171.028C9.09671 165.82 12.72 160.998 17.9286 160.259C23.1372 159.519 27.959 163.143 28.6982 168.351Z" fill="url(#paint10_linear_1_395)"/>
<path d="M22.6878 163.831C23.3499 165.843 21.5717 168.235 18.7162 169.175C15.8607 170.115 13.0091 169.246 12.347 167.234C11.6849 165.222 13.4631 162.829 16.3186 161.89C19.174 160.95 22.0257 161.819 22.6878 163.831Z" fill="url(#paint11_radial_1_395)"/>
<path d="M15.5437 176.886C14.0347 174.447 15.5162 170.797 18.8527 168.732C22.1891 166.668 26.1171 166.971 27.6261 169.41C29.135 171.848 27.6535 175.499 24.3171 177.563C20.9807 179.628 17.0526 179.324 15.5437 176.886Z" fill="url(#paint12_radial_1_395)"/>
<path d="M13.7675 153.063C10.1584 153.684 8.55331 155.681 7.52082 158.102C7.8758 163.935 5.40636 166.366 1.41337 166.925C-0.031747 169.755 -0.300126 172.426 3.04609 174.575C8.13036 176.317 8.2214 181.837 10.7856 185.486C13.5291 187.357 14.0715 185.394 17.0321 184.476C19.7135 189.156 17.2331 188.85 17.263 190.833L17.0888 198.54C16.7468 201.797 13.9876 206.125 20.353 207.7C21.8425 208.713 22.8196 211.855 23.8279 214.84C24.5159 222.638 25.924 223.445 27.0614 226.937C24.1071 229.783 28.6972 236.812 28.9776 240.439C28.0399 243.489 27.1477 242.577 26.1534 252.774C23.5505 255.317 22.0136 257.873 21.7216 260.44C21.2336 266.219 18.9129 264.568 20.861 280.13C22.8399 286.189 25.0652 282.047 27.1992 281.692C29.5382 280.592 32.6574 280.072 29.9276 275.163C30.2216 267.499 30.2584 264.658 30.3413 260.734C32.6005 257.965 35.5671 255.235 34.0358 252.253C36.194 251.685 39.1593 249.21 35.1895 243.213C38.9917 238.168 37.9099 236.928 36.8745 235.639L33.6715 228.137C33.7768 224.552 32.85 221.673 32.3087 218.535C31.7327 215.797 29.2316 211.38 25.9699 206.282C25.9277 203.058 27.6808 199.438 23.4579 197.165C24.5076 192.886 26.9848 188.127 24.186 185.127C26.622 184.188 29.5947 186.032 31.2674 181.064C32.6248 179.726 34.2656 182.76 35.1314 173.777C35.0273 171.75 37.1151 172.568 33.7735 166.312C33.0526 164.477 36.1359 162.121 29.9697 161.059C30.5072 157.266 27.9856 155.15 24.6014 153.541C23.2712 150.827 20.5091 152.441 18.1022 152.947C16.4053 152.809 14.9708 152.858 13.7677 153.065L13.7675 153.063ZM17.4732 161.106C18.1652 161.008 19.2254 160.139 19.8973 160.179C20.5693 160.22 20.8186 160.166 21.4487 160.357C22.8305 160.774 22.4479 161.129 23.0332 161.413C23.6185 161.697 24.1153 161.557 24.6343 161.945C25.1532 162.334 25.39 163.727 25.8269 164.209C26.2639 164.69 27.06 164.337 27.3995 164.9C27.739 165.463 27.6868 166.112 27.9134 166.746C28.14 167.379 28.0497 168.674 28.148 169.366C28.3444 170.75 28.5002 170.738 28.1614 172.009C27.8226 173.28 27.6411 174.159 26.8605 175.195C26.08 176.23 25.2209 175.518 24.0919 176.195C22.963 176.873 21.8687 178.648 20.4847 178.844C19.1007 179.041 17.8394 179.28 16.5689 178.943C15.2984 178.607 15.4293 178.581 14.3945 177.804C13.3597 177.026 11.8303 175.698 11.1536 174.571C10.4768 173.444 11.2687 172.333 11.0723 170.949C10.8759 169.565 9.8133 168.421 10.1498 167.15C10.4863 165.88 9.67653 166.879 12.4385 164.022C13.5534 162.869 13.1541 162.424 14.2798 161.769C15.416 161.109 16.0891 161.303 17.4732 161.106Z" fill="#765700" stroke="black" stroke-width="0.787746"/>
<path opacity="0.3356" d="M13.7675 153.063C10.1584 153.684 8.55331 155.681 7.52082 158.102C7.87579 163.935 5.40636 166.366 1.41337 166.925C-0.031747 169.755 -0.300126 172.426 3.04609 174.575C8.13036 176.317 8.2214 181.837 10.7856 185.486C13.5291 187.357 14.0715 185.394 17.0321 184.476C19.7135 189.156 17.2331 188.85 17.263 190.833L17.0888 198.54C16.7468 201.797 13.9876 206.125 20.353 207.7C21.8425 208.713 22.8196 211.855 23.8279 214.84C24.5159 222.638 25.924 223.445 27.0614 226.937C24.1071 229.783 28.6972 236.812 28.9776 240.439C28.0399 243.489 27.1477 242.577 26.1534 252.774C23.5505 255.317 22.0136 257.873 21.7216 260.44C21.2336 266.219 18.9129 264.568 20.861 280.13C22.8399 286.189 25.0652 282.047 27.1992 281.692C29.5382 280.592 32.6574 280.072 29.9276 275.163C30.2216 267.499 30.2584 264.658 30.3413 260.734C32.6005 257.965 35.5671 255.235 34.0358 252.253C36.194 251.685 39.1593 249.21 35.1895 243.213C38.9917 238.168 37.9099 236.928 36.8745 235.639L33.6715 228.137C33.7768 224.552 32.85 221.673 32.3087 218.535C31.7327 215.797 29.2316 211.38 25.9699 206.282C25.9277 203.058 27.6808 199.438 23.4579 197.165C24.5076 192.886 26.9848 188.127 24.186 185.127C26.622 184.188 29.5947 186.032 31.2674 181.064C32.6248 179.726 34.2656 182.76 35.1314 173.777C35.0273 171.75 37.1151 172.568 33.7735 166.312C33.0526 164.477 36.1359 162.121 29.9697 161.059C30.5072 157.266 27.9856 155.15 24.6014 153.541C23.2712 150.827 20.5091 152.441 18.1022 152.947C16.4053 152.809 14.9708 152.858 13.7677 153.065L13.7675 153.063ZM17.4732 161.106C18.1652 161.008 19.2254 160.139 19.8973 160.179C20.5693 160.22 20.8186 160.166 21.4487 160.357C22.8305 160.774 22.4479 161.129 23.0332 161.413C23.6185 161.697 24.1153 161.557 24.6343 161.945C25.1532 162.334 25.39 163.727 25.8269 164.209C26.2639 164.69 27.06 164.337 27.3995 164.9C27.739 165.463 27.6868 166.112 27.9134 166.746C28.14 167.379 28.0497 168.674 28.148 169.366C28.3444 170.75 28.5002 170.738 28.1614 172.009C27.8226 173.28 27.6411 174.159 26.8605 175.195C26.08 176.23 25.2209 175.518 24.0919 176.195C22.963 176.873 21.8687 178.648 20.4847 178.844C19.1007 179.041 17.8394 179.28 16.5689 178.943C15.2984 178.607 15.4293 178.581 14.3945 177.804C13.3597 177.026 11.8303 175.698 11.1536 174.571C10.4768 173.444 11.2687 172.333 11.0723 170.949C10.8759 169.565 9.8133 168.421 10.1498 167.15C10.4863 165.88 9.67653 166.879 12.4385 164.022C13.5534 162.869 13.1541 162.424 14.2798 161.769C15.416 161.109 16.0891 161.303 17.4732 161.106Z" fill="url(#paint13_radial_1_395)"/>
<path d="M24.6276 186.809C23.1545 183.92 21.2512 185.401 21.3621 188.813C20.0069 192.463 21.2282 193.979 21.9751 195.661C22.4123 196.691 22.6087 195.704 23.3101 195.809C24.3055 195.312 25.1986 191.447 24.6276 186.809Z" fill="url(#paint14_radial_1_395)" stroke="#302112" stroke-width="0.654664" stroke-linecap="round" stroke-linejoin="round"/>
<path d="M16.8727 200.17C17.3526 199.723 17.0931 198.721 18.5744 199.026C20.1245 198.952 20.7504 199.924 21.2506 201.037C22.4321 203.137 21.769 204.25 21.5573 205.604C21.5263 207.116 20.8951 207.07 20.4675 207.552C17.475 206.668 15.0419 205.293 16.8727 200.17Z" fill="url(#paint15_radial_1_395)" stroke="#302112" stroke-width="0.708971" stroke-linecap="round" stroke-linejoin="round"/>
<path d="M26.5143 215.24C26.6189 215.736 26.9397 216.201 27.4749 216.636C28.4795 218.431 29.2635 219.959 29.2168 220.487C29.9982 224.744 29.7454 224.77 29.4333 225.622C28.423 227.579 30.4642 229.592 31.3583 231.967" stroke="#302112" stroke-width="0.787746" stroke-linecap="round" stroke-linejoin="round"/>
<path d="M35.343 243.306C34.4103 243.324 32.8177 242.605 32.3635 243.864C30.9542 245.348 30.8327 246.155 30.8304 246.9C30.7742 248.379 30.9736 249.095 31.2224 249.662C31.7925 251.747 33.28 251.753 34.1362 252.272C37.4526 250.925 38.2096 248.137 35.343 243.306Z" fill="url(#paint16_radial_1_395)" stroke="#302112" stroke-width="0.708971" stroke-linecap="round" stroke-linejoin="round"/>
<path d="M25.9082 253.071L27.0017 252.524C27.807 252.551 28.6435 252.509 28.4745 254.704C28.2633 256.515 28.0787 258.512 27.7964 259.821C27.2468 262.647 26.5582 262.714 25.9391 264.16C24.5652 266.578 23.606 266.159 22.4814 266.871C20.6313 266.958 20.5363 266.015 20.7991 264.934C22.0735 261.04 21.4459 257.417 25.9082 253.071Z" fill="url(#paint17_radial_1_395)" stroke="#302112" stroke-width="0.708971" stroke-linecap="round" stroke-linejoin="round"/>
<path fill-rule="evenodd" clip-rule="evenodd" d="M29.4697 244.78C29.818 247.284 30.182 250.003 29.8466 252.957C29.5112 255.911 30.9648 258.403 31.5143 261.743C31.6159 262.36 31.439 262.707 31.0587 262.795C30.6784 262.884 30.0946 262.715 29.3823 262.3C28.67 261.885 26.6811 261.242 25.7869 260.349C24.8926 259.455 23.6767 258.955 22.7505 257.608C21.8244 256.261 20.9197 254.693 20.1115 252.918C19.3034 251.143 19.0389 248.936 18.4987 246.757C23.1873 238.844 27.7902 232.141 29.4697 244.78Z" fill="white" stroke="black" stroke-width="1.58338"/>
<path fill-rule="evenodd" clip-rule="evenodd" d="M28.0399 243.932C27.3109 246.582 26.9891 249.424 27.2675 252.489C27.5459 255.555 29.4549 256.912 31.1269 260.457C32.0679 262.451 31.5262 262.984 30.24 262.296C28.9538 261.609 25.893 261.633 23.8562 258.749C22.8378 257.307 21.8179 255.621 20.8886 253.721C19.9593 251.821 19.3784 248.935 18.7229 246.637C16.5518 219.789 26.9728 228.356 28.0399 243.932Z" fill="url(#paint18_radial_1_395)" stroke="black" stroke-width="1.58338"/>
</g>
<path fill-rule="evenodd" clip-rule="evenodd" d="M125.793 220.609C115.545 208.525 144.416 195.847 140.949 168.991C140.309 164.027 156.877 176.991 152.506 200.132C148.255 222.638 135.898 230.99 125.793 220.609Z" fill="white" stroke="black" stroke-width="1.58338"/>
<path fill-rule="evenodd" clip-rule="evenodd" d="M125.793 220.609C115.545 208.525 153.333 197.792 140.949 168.991C137.465 160.886 156.877 176.991 152.506 200.132C148.255 222.638 135.898 230.99 125.793 220.609Z" fill="url(#paint19_radial_1_395)" stroke="black" stroke-width="1.58338"/>
<path fill-rule="evenodd" clip-rule="evenodd" d="M86.913 89.0103L85.9123 88.7878L85.4231 88.4542L85.1562 87.6758L85.045 86.9196L85.0895 86.2968L85.5342 84.9178L85.4231 83.8724L84.956 82.271L84.3778 81.07L83.9108 80.0023L83.6217 78.779L83.5995 77.7781L83.9108 76.5771L84.4668 75.5317L85.045 74.6865L85.5342 73.5299L85.7566 72.5735L85.7344 71.4392L85.4675 70.1714L85.0227 69.5042L84.0442 68.3254L83.9553 67.925L83.9998 67.1911L84.1332 66.6572L84.6669 65.7898H106.86L106.883 66.4126L107.394 67.3912L107.772 68.748L107.794 69.7266L107.483 71.4837L106.371 74.5753L106.127 75.7319V76.3991L106.683 78.69L106.927 79.5575L107.505 80.6696L107.794 81.8929L107.772 82.7826L107.416 84.2727L106.594 86.4302L106.171 88.7211L105.86 88.9435L105.304 88.988L86.913 89.0103Z" fill="#C0C0C0" stroke="black" stroke-width="1.2665" stroke-linecap="round" stroke-linejoin="round"/>
<path fill-rule="evenodd" clip-rule="evenodd" d="M87.4908 89.0104L91.338 92.8805H100.456L104.303 89.0104H87.4908Z" fill="black" stroke="black" stroke-width="1.2665" stroke-linecap="round" stroke-linejoin="round"/>
<path fill-rule="evenodd" clip-rule="evenodd" d="M106.77 65.7911H84.6648L84.4646 64.212L84.0866 62.4326L83.197 59.9193L81.9517 57.5172L79.6167 53.5136L76.7702 48.0644L76.0141 46.1961L75.4804 43.9942L75.258 42.2371L75.2135 40.2131L75.4359 38.0779L75.7917 36.1873L76.4144 34.1188L77.4373 31.8279L78.7271 29.6482L80.1504 27.7132L81.9072 25.7782L83.5528 24.4214L85.3319 23.2871L87.8226 22.1083L90.2021 21.2631L92.248 20.7738L94.1827 20.5514H96.2731L98.9862 20.8183L101.699 21.3521L103.968 22.1306L105.813 23.087L108.126 24.6884L110.283 26.5567L111.684 28.0692L112.974 29.7596L114.064 31.6279L115.042 33.8076L115.62 35.5647L116.043 37.5442L116.221 39.5015L116.176 41.7479L115.865 44.1056L115.287 46.5299L114.664 48.465L111.64 53.4471L109.016 58.1402L108.082 60.2754L107.259 62.9444L106.814 65.3465L106.77 65.7911Z" fill="#FFFF00" stroke="black" stroke-width="1.2665" stroke-linecap="round" stroke-linejoin="round"/>
<path d="M84.6669 69.0834L106.883 73.1536" stroke="black" stroke-width="1.2665" stroke-linecap="round" stroke-linejoin="round"/>
<path d="M84.7333 75.3096L106.95 79.3798" stroke="black" stroke-width="1.2665" stroke-linecap="round" stroke-linejoin="round"/>
<path d="M84.7333 81.541L106.95 85.6335" stroke="black" stroke-width="1.2665" stroke-linecap="round" stroke-linejoin="round"/>
<path d="M124.827 99.7771V99.6659" stroke="black" stroke-width="0.04222" stroke-linecap="round" stroke-linejoin="round"/>
<path d="M90.0038 65.7245L86.6903 43.4382L86.7348 41.1918L86.9349 39.7906L87.2907 38.7897L87.691 38.2559L88.247 37.9668L88.5361 37.9L89.3144 37.9445L90.0261 38.2781L90.4708 38.7675L90.8266 39.6349L91.2269 41.8813L91.4048 44.3279L91.3604 45.7514L91.0935 46.3742L90.6932 46.6633L90.4931 46.73L90.0261 46.6855L89.559 46.3964L89.2255 45.7736L88.7807 43.9276L88.6028 42.5708L88.625 41.3253L88.9141 40.3466L89.559 39.2568L90.8489 37.8778L91.8274 37.2105L92.4056 37.0993L93.0727 37.344L93.7399 37.9445L94.4515 39.0566L94.8962 40.4356L95.3188 42.9267L95.3855 44.1722L95.2521 45.2176L95.0074 45.7514L94.5182 46.0405L93.8733 46.1073L93.3173 45.8848L93.006 45.44L92.7614 44.3057L92.4055 40.6135L92.4723 39.5237L92.7614 38.8119L93.3618 38.1892L94.4737 37.5219L95.9414 36.9881L96.364 36.9214L97.0756 36.9659L97.676 37.2773L98.4099 38.2114L99.1437 39.7683L99.4773 41.2141L99.544 42.5486L99.3661 44.3279L99.077 45.2843L98.8102 45.6846L98.2765 45.9516L97.8095 45.9738L97.4092 45.8626L97.0533 45.4845L96.742 44.5503L96.5419 42.7042V40.2799L96.6975 39.0788L97.0311 38.3449L97.6093 37.8555L98.4544 37.5664L99.1215 37.5442L99.8331 37.7443L100.456 38.2114L100.923 39.0566L101.123 40.013L101.145 40.8582L98.6323 65.8357" stroke="black" stroke-width="1.2665" stroke-linecap="round" stroke-linejoin="round"/>
<path fill-rule="evenodd" clip-rule="evenodd" d="M56.2461 40.2802H68.2323V42.104H56.2461V40.2802Z" fill="#FFFF00" stroke="black" stroke-width="0.04222" stroke-linecap="round" stroke-linejoin="round"/>
<path fill-rule="evenodd" clip-rule="evenodd" d="M122.825 40.1689H134.834V41.9928H122.825V40.1689Z" fill="#FFFF00" stroke="black" stroke-width="0.04222" stroke-linecap="round" stroke-linejoin="round"/>
<path fill-rule="evenodd" clip-rule="evenodd" d="M96.364 2.24646H94.5404V14.2348H96.364V2.24646Z" fill="#FFFF00" stroke="black" stroke-width="0.04222" stroke-linecap="round" stroke-linejoin="round"/>
<path fill-rule="evenodd" clip-rule="evenodd" d="M67.8546 12.878L66.5425 14.168L75.0374 22.6867L76.3272 21.3744L67.8546 12.878Z" fill="#FFFF00" stroke="black" stroke-width="0.04222" stroke-linecap="round" stroke-linejoin="round"/>
<path fill-rule="evenodd" clip-rule="evenodd" d="M123.094 14.1681L121.804 12.8781L113.309 21.3745L114.599 22.6868L123.094 14.1681Z" fill="#FFFF00" stroke="black" stroke-width="0.04222" stroke-linecap="round" stroke-linejoin="round"/>
<path fill-rule="evenodd" clip-rule="evenodd" d="M119.628 55.2509L118.338 56.5631L126.811 65.0596L128.123 63.7473L119.628 55.2509Z" fill="#FFFF00" stroke="black" stroke-width="0.04222" stroke-linecap="round" stroke-linejoin="round"/>
<path fill-rule="evenodd" clip-rule="evenodd" d="M73.7032 57.4737L72.4134 56.1837L63.9185 64.6581L65.2305 65.9703L73.7032 57.4737Z" fill="#FFFF00" stroke="black" stroke-width="0.04222" stroke-linecap="round" stroke-linejoin="round"/>
<defs>
<linearGradient id="paint0_linear_1_395" x1="193.27" y1="214.1" x2="199.99" y2="160.92" gradientUnits="userSpaceOnUse">
<stop stop-color="#000079"/>
<stop offset="1" stop-color="#000079"/>
</linearGradient>
<radialGradient id="paint1_radial_1_395" cx="0" cy="0" r="1" gradientTransform="matrix(-0.000212764 34.5545 -71.1005 0 93.6779 -44.4963)" gradientUnits="userSpaceOnUse">
<stop stop-color="#FFB142"/>
<stop offset="0.8868" stop-color="#FFB141"/>
<stop offset="1" stop-color="#C87600"/>
</radialGradient>
<radialGradient id="paint2_radial_1_395" cx="0" cy="0" r="1" gradientTransform="matrix(0 -80.7958 68.3556 -0.000210154 46.1601 135.778)" gradientUnits="userSpaceOnUse">
<stop stop-color="#A5A5A5"/>
<stop offset="1"/>
</radialGradient>
<linearGradient id="paint3_linear_1_395" x1="78.43" y1="-188.22" x2="82.5" y2="-188.22" gradientUnits="userSpaceOnUse">
<stop stop-color="#FFB142"/>
<stop offset="1" stop-color="#C87600"/>
</linearGradient>
<linearGradient id="paint4_linear_1_395" x1="46.8899" y1="151.75" x2="133.45" y2="154.81" gradientUnits="userSpaceOnUse">
<stop stop-color="#0000AB"/>
<stop offset="1" stop-color="#00005C"/>
</linearGradient>
<linearGradient id="paint5_linear_1_395" x1="55.4505" y1="164.324" x2="115.499" y2="176.743" gradientUnits="userSpaceOnUse">
<stop/>
<stop offset="0.5"/>
<stop offset="1"/>
</linearGradient>
<linearGradient id="paint6_linear_1_395" x1="40.3899" y1="174.25" x2="106.93" y2="153.43" gradientUnits="userSpaceOnUse">
<stop stop-color="#0000C5"/>
<stop offset="1" stop-color="#00006B"/>
</linearGradient>
<linearGradient id="paint7_linear_1_395" x1="72.1799" y1="137.94" x2="104.48" y2="146.6" gradientUnits="userSpaceOnUse">
<stop stop-color="#FFE257"/>
<stop offset="1" stop-color="#D7B200"/>
</linearGradient>
<radialGradient id="paint8_radial_1_395" cx="0" cy="0" r="1" gradientTransform="matrix(19.9132 -39.2994 32.9716 16.7065 52.1866 182.386)" gradientUnits="userSpaceOnUse">
<stop stop-color="#A5A5A5"/>
<stop offset="1"/>
</radialGradient>
<radialGradient id="paint9_radial_1_395" cx="0" cy="0" r="1" gradientTransform="matrix(12.8182 -1.5429 1.52397 12.6616 19.2184 169.696)" gradientUnits="userSpaceOnUse">
<stop stop-opacity="0.5415"/>
<stop offset="1" stop-opacity="0"/>
</radialGradient>
<linearGradient id="paint10_linear_1_395" x1="-45.0771" y1="170.617" x2="-43.091" y2="184.611" gradientUnits="userSpaceOnUse">
<stop stop-color="#1F593A"/>
<stop offset="1" stop-color="#2FEA8F"/>
</linearGradient>
<radialGradient id="paint11_radial_1_395" cx="0" cy="0" r="1" gradientTransform="matrix(3.36546 7.39763 -8.42769 3.83391 15.7631 160.93)" gradientUnits="userSpaceOnUse">
<stop stop-color="white" stop-opacity="0.8745"/>
<stop offset="1" stop-color="white" stop-opacity="0"/>
</radialGradient>
<radialGradient id="paint12_radial_1_395" cx="0" cy="0" r="1" gradientTransform="matrix(6.14933 -3.805 3.23056 5.22095 22.7276 175.228)" gradientUnits="userSpaceOnUse">
<stop stop-color="white"/>
<stop offset="1" stop-color="white" stop-opacity="0"/>
</radialGradient>
<radialGradient id="paint13_radial_1_395" cx="0" cy="0" r="1" gradientUnits="userSpaceOnUse" gradientTransform="translate(19.2493 169.32) rotate(-8.07764) scale(17.8275)">
<stop stop-color="#4A3600"/>
<stop offset="0.6475" stop-color="#DECFA7"/>
<stop offset="1" stop-color="#392A00"/>
</radialGradient>
<radialGradient id="paint14_radial_1_395" cx="0" cy="0" r="1" gradientTransform="matrix(1.79124 0.262557 -0.491594 5.52004 22.8669 190.831)" gradientUnits="userSpaceOnUse">
<stop stop-color="#231A00"/>
<stop offset="0.4544" stop-color="#756331"/>
<stop offset="1" stop-color="#2E2200"/>
</radialGradient>
<radialGradient id="paint15_radial_1_395" cx="0" cy="0" r="1" gradientTransform="matrix(2.31006 -0.580656 0.966881 3.84644 19.0909 203.037)" gradientUnits="userSpaceOnUse">
<stop stop-color="#4A3600" stop-opacity="0.6576"/>
<stop offset="0.6475" stop-color="#DECFA7" stop-opacity="0.3831"/>
<stop offset="1" stop-color="#392A00" stop-opacity="0.3763"/>
</radialGradient>
<radialGradient id="paint16_radial_1_395" cx="0" cy="0" r="1" gradientTransform="matrix(2.55916 0.183643 -0.284233 3.96154 33.9179 247.659)" gradientUnits="userSpaceOnUse">
<stop stop-color="#4A3600" stop-opacity="0.6576"/>
<stop offset="0.6475" stop-color="#DECFA7" stop-opacity="0.3831"/>
<stop offset="1" stop-color="#392A00" stop-opacity="0.3763"/>
</radialGradient>
<radialGradient id="paint17_radial_1_395" cx="0" cy="0" r="1" gradientTransform="matrix(2.27404 0.926525 -2.84318 6.9779 24.7562 259.82)" gradientUnits="userSpaceOnUse">
<stop stop-color="#4A3600" stop-opacity="0.6576"/>
<stop offset="0.6475" stop-color="#DECFA7" stop-opacity="0.3831"/>
<stop offset="1" stop-color="#392A00" stop-opacity="0.3763"/>
</radialGradient>
<radialGradient id="paint18_radial_1_395" cx="0" cy="0" r="1" gradientTransform="matrix(19.9132 -39.2995 32.9716 16.7065 52.0365 182.386)" gradientUnits="userSpaceOnUse">
<stop stop-color="#A5A5A5"/>
<stop offset="1"/>
</radialGradient>
<radialGradient id="paint19_radial_1_395" cx="0" cy="0" r="1" gradientUnits="userSpaceOnUse" gradientTransform="translate(105.643 234.86) rotate(118.859) scale(44.0567 36.9623)">
<stop stop-color="#A5A5A5"/>
<stop offset="1"/>
</radialGradient>
<clipPath id="clip0_1_395">
<rect width="136.82" height="177.79" fill="white" transform="translate(0 107)"/>
</clipPath>
</defs>
</svg>
