<svg width="173" height="253" viewBox="0 0 173 253" fill="none" xmlns="http://www.w3.org/2000/svg">
<g clip-path="url(#clip0_1_480)">
<path fill-rule="evenodd" clip-rule="evenodd" d="M67.68 135.21C59.4129 135.243 41.549 141.027 41.235 144.262C34.2814 152.127 43.7295 151.754 59.645 148.181C70.704 150.733 80.908 154.598 92.158 154.318C101.97 154.001 111.803 154.061 121.592 154.886C133.841 154.437 138.447 152.171 141.462 145.792L141.229 145.868C142.339 145.074 143.878 143.103 139.217 142.462C137.874 142.041 137.882 144.588 125.586 143.232C109.625 141.47 93.5839 136.686 79.8249 135.714C75.5252 135.411 71.438 135.195 67.68 135.21Z" fill="url(#paint0_linear_1_480)" stroke="black" stroke-width="0.86783"/>
<path fill-rule="evenodd" clip-rule="evenodd" d="M75.7254 232.326C60.9263 233.939 43.953 246.617 50.6998 249.382C57.4467 252.147 77.027 253.3 80.7267 250.074C82.6278 248.417 86.0292 244.266 86.4301 240.37C86.8315 244.265 90.2229 248.417 92.1238 250.074C95.8235 253.3 115.414 252.147 122.16 249.382C128.906 246.617 111.934 233.939 97.1346 232.326C89.5143 233.104 86.773 235.814 86.4302 238.924C86.0868 235.814 83.3456 233.104 75.7254 232.326Z" fill="url(#paint1_radial_1_480)" stroke="black" stroke-width="1.51991"/>
<path fill-rule="evenodd" clip-rule="evenodd" d="M75.7283 232.336C68.4647 233.128 60.6846 236.585 55.4348 240.228C63.3853 244.12 73.1062 246.519 83.6435 246.795C84.9938 244.914 86.2034 242.608 86.4326 240.38C86.6601 242.587 87.8413 244.873 89.1737 246.744C99.5381 246.28 109.058 243.764 116.805 239.8C111.575 236.316 104.118 233.097 97.1371 232.336C89.5167 233.114 86.7755 235.825 86.4326 238.934C86.0892 235.825 83.3484 233.114 75.7283 232.336Z" fill="black" fill-opacity="0.3137"/>
<path d="M136.647 187.016C136.647 201.324 131.279 215.047 121.722 225.164C112.166 235.282 99.2043 240.966 85.6894 240.966C72.1745 240.966 59.2131 235.282 49.6567 225.164C40.1002 215.047 34.7314 201.324 34.7314 187.016C34.7314 172.708 40.1002 158.985 49.6567 148.868C59.2131 138.75 72.1745 133.066 85.6894 133.066C99.2043 133.066 112.166 138.75 121.722 148.868C131.279 158.985 136.647 172.708 136.647 187.016Z" fill="url(#paint2_radial_1_480)" stroke="black" stroke-width="1.51991" stroke-linecap="round"/>
<path d="M110.871 213.986C110.871 217.421 110.232 220.821 108.99 223.995C107.749 227.168 105.929 230.051 103.635 232.479C101.342 234.908 98.6184 236.834 95.6212 238.149C92.6241 239.463 89.4119 240.14 86.1678 240.14C82.9238 240.14 79.7115 239.463 76.7144 238.149C73.7173 236.834 70.994 234.908 68.7001 232.479C66.4062 230.051 64.5866 227.168 63.3452 223.995C62.1037 220.821 61.4648 217.421 61.4648 213.986C61.4648 210.551 62.1037 207.151 63.3452 203.978C64.5866 200.804 66.4062 197.921 68.7001 195.493C70.994 193.064 73.7173 191.138 76.7144 189.823C79.7115 188.509 82.9238 187.833 86.1678 187.833C89.4119 187.833 92.6241 188.509 95.6212 189.823C98.6184 191.138 101.342 193.064 103.635 195.493C105.929 197.921 107.749 200.804 108.99 203.978C110.232 207.151 110.871 210.551 110.871 213.986Z" fill="white" stroke="black" stroke-width="1.58338" stroke-linecap="round"/>
<path d="M134.635 172.016C134.739 173.419 134.799 174.832 134.799 176.262C134.799 206.041 111.962 230.209 83.8344 230.209C60.6223 230.209 41.0316 213.75 34.8893 191.261C36.9388 219.056 58.9052 240.962 85.681 240.962C113.808 240.962 136.646 216.794 136.646 187.015C136.646 181.811 135.936 176.778 134.635 172.016Z" fill="black" fill-opacity="0.3137"/>
<path d="M75.52 151.11C68.4613 151.11 62.728 158.094 62.728 166.699C62.728 175.304 68.4611 182.288 75.52 182.288C79.6682 182.288 83.3493 179.873 85.686 176.138C88.0227 179.876 91.7118 182.288 95.862 182.288C102.921 182.288 108.654 175.304 108.654 166.699C108.654 158.094 102.921 151.11 95.862 151.11C91.7126 151.11 88.023 153.523 85.686 157.26C83.3491 153.525 79.6676 151.11 75.52 151.11Z" fill="white" stroke="black" stroke-width="1.5834" stroke-linecap="round"/>
<path d="M83.3937 158.404C83.389 159.298 83.0501 160.154 82.4511 160.785C81.852 161.415 81.0416 161.769 80.1968 161.769C79.3521 161.769 78.5416 161.415 77.9426 160.785C77.3436 160.154 77.0047 159.298 77 158.404C76.9976 157.957 77.0786 157.515 77.2382 157.102C77.3978 156.69 77.6329 156.314 77.93 155.998C78.2271 155.682 78.5803 155.431 78.9693 155.259C79.3583 155.088 79.7755 155 80.1968 155C80.6182 155 81.0353 155.088 81.4244 155.259C81.8134 155.431 82.1666 155.682 82.4637 155.998C82.7608 156.314 82.9959 156.69 83.1555 157.102C83.3151 157.515 83.3961 157.957 83.3937 158.404Z" fill="black" stroke="black" stroke-width="1.5834" stroke-linecap="round"/>
<path d="M94.8337 158.404C94.836 158.85 94.7551 159.292 94.5955 159.705C94.4359 160.117 94.2008 160.493 93.9037 160.809C93.6066 161.125 93.2534 161.376 92.8644 161.548C92.4753 161.719 92.0582 161.807 91.6368 161.807C91.2155 161.807 90.7983 161.719 90.4093 161.548C90.0203 161.376 89.6671 161.125 89.37 160.809C89.0729 160.493 88.8378 160.117 88.6782 159.705C88.5186 159.292 88.4376 158.85 88.44 158.404C88.4376 157.957 88.5186 157.515 88.6782 157.102C88.8378 156.69 89.0729 156.314 89.37 155.998C89.6671 155.682 90.0203 155.431 90.4093 155.259C90.7983 155.088 91.2155 155 91.6368 155C92.0582 155 92.4753 155.088 92.8644 155.259C93.2534 155.431 93.6066 155.682 93.9037 155.998C94.2008 156.314 94.4359 156.69 94.5955 157.102C94.7551 157.515 94.836 157.957 94.8337 158.404Z" fill="black" stroke="black" stroke-width="1.5834" stroke-linecap="round"/>
<path d="M76.6326 184.85C74.6717 183.859 73.4322 184.914 72.4601 187.384C71.6999 192.224 69.6358 197.331 73.4492 200.798C73.1631 205.019 74.1097 207.236 76.2927 208C76.0366 213.95 77.7027 213.102 79.1053 216.685C78.4977 221.561 79.0655 218.728 79.6925 221.785C80.9117 228.675 81.6135 228.345 82.6596 229.542C83.6546 232.601 85.1936 231.772 86.2758 230.624C87.3068 226.719 88.4863 225.907 88.2848 223.763C90.7449 221.823 89.9425 220.088 90.8192 219.065C93.1255 213.619 93.3367 212.999 93.4772 209.947C98.0215 200.742 96.3368 201.957 96.2589 199.222C97.2513 196.537 98.4411 191.963 97.1243 191.124C100.061 188.567 98.4251 188.929 97.4334 187.354C96.5129 185.398 96.3767 186.325 93.3844 185.499C87.7544 187.777 84.2395 186.526 76.6326 184.85Z" fill="#D2D2D2" stroke="black"/>
<path d="M73.9427 189.76C72.4873 191.793 73.3453 194.289 74.3136 196.807C75.4067 207.068 75.6988 202.109 76.3535 204.039C76.4206 207.565 77.319 208.63 77.6516 210.344C79.9667 213.466 80.8542 224.362 80.9896 222.769C81.0899 220.706 82.1368 215.459 80.4332 208.861C81.1141 206.885 82.4556 206.23 80.8041 199.589C82.0321 195.493 82.6598 192.447 81.9168 191.801C83.1402 189.469 82.7941 188.054 81.5459 187.164C76.1233 187.168 76.271 185.312 75.2511 184.91C74.2353 185.929 74.0545 185.577 73.9427 189.76Z" fill="#B9B9B9"/>
<path d="M84.5126 188.47C83.6349 192.061 82.5193 195.772 84.5126 197.928C83.4539 201.966 87.2081 208.27 83.2145 216.287C83.2617 221.77 82.6232 229.311 84.5126 229.268C85.4267 228.087 84.8646 223.685 86.2305 212.11C86.6636 209.082 88.7849 210.979 87.4307 203.93C88.936 201.307 90.7253 198.837 89.8904 191.066C88.6861 188.73 87.6319 186.019 84.5126 188.47Z" fill="#A9A9A9"/>
<path d="M94.2526 186.36C91.0027 185.077 92.1211 197.475 91.1876 207.383C88.3957 211.621 87.212 218.476 87.2933 224.629C88.9309 219.712 90.9157 216.531 92.1149 209.423C94.657 206.734 95.3695 202.581 95.4529 197.925C95.4127 194.294 96.9239 186.921 94.2526 186.36Z" fill="#BABABA"/>
<path d="M72.3927 193.54C72.0546 195.448 72.8668 197.556 73.7339 199.675C74.3784 205.131 75.2563 205.236 75.8804 206.869C77.8849 207.459 76.6241 210.394 77.2307 211.677C79.5543 214.008 81.6024 223.121 81.1391 221.81C80.8433 219.995 80.4586 215.31 78.5735 209.685C78.5616 207.896 79.0754 207.205 77.2073 201.538C77.0975 197.845 76.8835 195.124 76.4314 194.623C76.6124 192.475 76.7535 191.159 76.0267 190.491C73.5109 190.971 74.334 186.296 73.7941 186.034C73.4918 187.015 71.7506 189.869 72.3927 193.54Z" fill="#A9A9A9"/>
<path d="M79.9627 190.96C79.6311 194.384 79.1508 197.942 80.6144 199.753C80.0637 203.695 78.441 210.245 81.0232 216.947C81.4322 222.04 81.5306 229.113 82.7741 228.889C83.2957 227.702 84.0032 223.964 81.6384 213.178C81.7155 210.321 84.0385 210.405 82.6594 203.983C83.4718 201.398 84.7757 199.995 83.6894 192.851C82.734 190.796 81.8516 188.378 79.9627 190.96Z" fill="#A9A9A9"/>
<path d="M91.5327 188.22C88.8267 187.009 90.1465 208.522 87.8586 213.801C85.4968 218.302 83.8158 229.526 85.0769 230.024C86.4622 224.802 88.2724 222.122 89.2869 214.572C91.4374 211.716 91.6108 207.95 91.6814 203.005C91.6474 199.149 93.7925 188.816 91.5327 188.22Z" fill="#A2A2A2"/>
<path d="M75.9226 189.62C73.618 190.864 67.9016 199.854 67.6368 192.938C68.0479 190.631 69.5138 186.653 72.4875 183.675C77.2248 179.348 80.1152 179.463 83.7705 178.659C95.5085 178.342 95.7025 181.425 99.1825 183.754C101.187 186.115 101.919 188.174 102.56 189.611C103.096 191.913 107.425 202.086 95.18 190.224C85.3313 184.608 80.4726 187.949 75.9226 189.62Z" fill="#A9A9A9" stroke="black"/>
<path d="M76.12 183.47C74.2702 185.188 72.7325 186.629 71.1292 189.589C68.8911 192.117 69.327 191.808 68.5829 193.506C68.3488 196.188 69.7297 193.344 71.9465 188.866C73.3411 187.763 74.5124 186.387 75.5759 185.284L77.6353 184.454L94.1853 183.363C95.9634 185.107 97.184 187.352 98.8034 188.62C100.203 191.213 102.001 194.773 103.158 195.305C102.517 193.358 102.774 192.438 101.101 189.313C100.271 187.298 98.4895 185.59 96.6943 184.491C93.9993 182.317 94.4377 182.386 92.963 181.89L80.174 181.98L76.12 183.47Z" fill="#8A8A8A"/>
<path d="M77.72 185.17C75.8702 186.889 74.3946 186.143 72.7914 189.103C70.5533 191.631 71.2376 191.135 70.4935 192.834C70.2594 195.515 71.8266 192.237 73.8571 189.249C75.2517 188.146 76.1127 188.087 77.176 186.984L79.2354 186.154L93.4254 184.927C95.2035 186.671 94.3125 187.176 95.932 188.444C97.3314 191.037 100.683 194.349 101.839 194.881C101.198 192.934 99.8406 191.952 98.1678 188.827C97.3374 186.812 97.7296 187.153 95.9345 186.054C93.2395 183.88 93.6779 183.95 92.2032 183.453L79.6632 180.5L77.72 185.17Z" fill="#9A9A9A"/>
<path d="M75.44 181.96C73.5902 183.678 72.3878 184.722 70.7846 187.681C68.5465 190.21 69.355 190.645 68.6109 192.344C68.3768 195.025 69.3851 191.436 71.6019 186.958C72.9965 185.855 73.8325 184.876 74.8959 183.774L76.8932 181.578L93.5922 181.083C95.3703 182.827 97.4603 184.637 99.0798 185.905C100.479 188.498 101.408 192.493 102.565 193.025C101.923 191.078 102.181 190.158 100.508 187.033C99.6778 185.018 97.8964 183.31 96.1012 182.211C93.4062 180.037 93.8446 180.106 92.3699 179.61L79.5809 179.699L75.44 181.96Z" fill="#8C8C8C"/>
<path fill-rule="evenodd" clip-rule="evenodd" d="M86.2899 178C81.8337 178 76.9899 182.297 77.1837 185.01C77.3775 187.724 85.1274 199.03 86.8711 199.03C88.6148 199.03 95.3961 187.949 95.2023 184.783C95.0085 181.617 89.1961 177.774 86.2899 178Z" fill="black" fill-opacity="0.3137"/>
<path fill-rule="evenodd" clip-rule="evenodd" d="M85.59 175.28C81.1338 175.28 76.29 179.177 76.4838 181.639C76.6776 184.1 84.4275 194.357 86.1712 194.357C87.9149 194.357 94.6962 184.306 94.5024 181.434C94.3086 178.562 88.4963 175.075 85.59 175.28Z" fill="url(#paint3_linear_1_480)" stroke="black" stroke-width="1.5834"/>
<path fill-rule="evenodd" clip-rule="evenodd" d="M65.9199 134.36C65.9199 134.36 79.8489 92.811 95.3559 79.216C101.81 73.5576 109.766 75.5358 112.001 76.9739C118.469 81.135 120.851 87.1339 124.357 92.2049C114.088 90.057 117.534 85.9047 106.228 86.7623L112.941 140.13C98.3883 136.639 82.1479 135.507 65.9199 134.36Z" fill="url(#paint4_linear_1_480)" stroke="black" stroke-width="0.86783"/>
<path fill-rule="evenodd" clip-rule="evenodd" d="M64.6569 134.843L67.7768 127.973C75.1019 125.691 90.8653 125.816 111.434 130.317L113.44 144.06C97.8192 140.15 84.3431 133.436 64.6569 134.843Z" fill="url(#paint5_linear_1_480)"/>
<path fill-rule="evenodd" clip-rule="evenodd" d="M94.8354 139.149L94.988 126.74L96.4382 126.194C101.374 126.267 105.393 126.922 108.497 128.159L110.252 140.095L108.497 140.751L94.8354 139.149ZM99.3416 128.329L99.8698 135.933L106.191 136.756L105.691 134.258L101.737 132.366C100.801 131.139 103.833 131.57 105.049 131.38L104.709 129.095C102.92 128.391 101.131 128.254 99.3416 128.329Z" fill="#FFCD00" stroke="black" stroke-width="0.433916" stroke-linecap="round" stroke-linejoin="round"/>
<path fill-rule="evenodd" clip-rule="evenodd" d="M94.994 126.779L96.5576 126.202L96.8602 138.515L94.8931 139.165L94.994 126.779Z" fill="#BC9500" stroke="black" stroke-width="0.434003" stroke-linecap="round" stroke-linejoin="round"/>
<path fill-rule="evenodd" clip-rule="evenodd" d="M99.2719 127.618L99.2951 128.33C100.783 128.223 102.523 128.298 104.72 129.053L105.088 131.401L106.388 131.119L105.809 128.579C103.33 127.603 101.285 127.499 99.2719 127.618Z" fill="#BC9500" stroke="black" stroke-width="0.433916" stroke-linecap="round" stroke-linejoin="round"/>
<path fill-rule="evenodd" clip-rule="evenodd" d="M100.788 132.236L105.664 134.03L106.27 136.814L107.565 137.03L106.691 133.192C104.75 132.854 102.436 132.648 100.788 132.236Z" fill="#BC9500" stroke="black" stroke-width="0.433916" stroke-linecap="round" stroke-linejoin="round"/>
<path d="M106.32 87.0201C105.743 85.6378 105.062 84.2374 105.689 83.4885C106.506 82.5122 108.472 82.114 107.574 84.6886" stroke="black" stroke-width="0.86783"/>
<path fill-rule="evenodd" clip-rule="evenodd" d="M67.43 135.21C59.1629 135.244 46.321 138.323 42.53 142.073C41.919 142.851 39.2176 146.24 38.8132 148.073C38.9201 155.397 48.2532 142.851 55.6812 143.739C85.7472 145.243 113.06 152.416 141.007 145.855C142.115 145.048 143.587 143.097 138.966 142.462C137.623 142.041 137.631 144.588 125.335 143.232C109.374 141.47 93.3332 136.686 79.5742 135.714C75.2745 135.411 71.188 135.195 67.43 135.21Z" fill="url(#paint6_linear_1_480)" stroke="black" stroke-width="0.86783"/>
<path opacity="0.8034" d="M97.71 135.79C97.5467 132.937 97.1813 126.949 98.0774 126.669C98.8426 127.672 99.3077 141.861 97.71 135.79Z" fill="white"/>
<path fill-rule="evenodd" clip-rule="evenodd" d="M44.6 142.54L44.9724 144.666L42.9324 145.354L45.0559 145.683L45.0579 147.383C45.2037 147.281 45.2024 147.378 45.5001 147.138L46.0468 145.911L47.0049 146.184C47.2039 146.05 47.3045 146 47.4463 145.885L46.566 145.033L47.8136 143.256L45.903 144.268L44.6 142.54ZM80.058 153.016L80.1205 153.172C80.1707 153.181 80.2265 153.163 80.2767 153.172L80.058 153.016ZM115.026 143.77L114.213 145.77L112.12 145.27L113.745 146.676L112.844 148.118C113.022 148.109 112.969 148.191 113.349 148.145L114.463 147.395L115.104 148.083C115.303 148.178 115.473 148.191 115.64 148.077L115.37 146.926L117.37 146.082L115.213 145.926L115.026 143.77ZM128.672 143.868L128.691 147.457C130.389 147.053 129.803 147.529 136.916 146.249L137.391 145.805L131.254 147.131L129.484 143.93H129.453C129.211 143.918 128.933 143.888 128.672 143.868ZM72.276 139.36L71.776 143.86L67.2448 144.079C70.2464 144.452 70.6147 144.605 75.4662 144.887L78.3385 142.641L73.901 143.579L72.276 139.36ZM107.471 140.763L108.526 141.922L108.244 140.912L107.471 140.763ZM106.072 140.498L105.464 141.547L106.842 140.642L106.072 140.498ZM61.1504 136.377L57.5566 139.877L54.3066 137.471C54.1585 137.508 54.0162 137.558 53.8691 137.596L55.7441 141.409L52.4291 143.567C53.7503 143.467 55.1708 143.019 56.3496 143.418C57.6544 143.43 58.2407 143.48 58.9942 143.471L64.0254 143.502L59.5566 141.159L61.1504 136.377ZM92.8163 137.991L91.2761 139.203L88.9832 137.338C88.2503 137.15 87.7818 137.14 86.4831 136.948L88.4323 141.36L82.0885 145.485L89.6197 144.735L90.1691 146.549C91.5995 146.663 91.6316 146.715 92.759 146.847L93.1822 144.672L100.745 145.079L94.2135 141.235L95.2733 138.378C93.9948 138.125 93.346 138.102 92.8163 137.991ZM97.9636 122.016L95.0886 126.016L90.6824 123.829L92.1355 125.813L93.235 127.298C94.7214 127.353 94.8787 127.902 94.7881 126.612C95.3291 126.307 96.4804 125.875 97.3487 125.997L97.6041 124.454L97.9636 122.016ZM72.6486 121.932L70.8048 122.526C70.5065 123.274 70.2948 123.892 70.0235 124.589L72.6486 121.932ZM81.8198 126.487L81.0891 121.079L79.0438 126.506L81.8198 126.487ZM76.8469 126.578L72.9015 125.766L74.141 126.774L76.8469 126.578ZM89.0269 112.953L88.7769 115.485L86.2457 115.61L88.5269 116.672L87.8706 119.11L89.5894 117.235L91.7144 118.61L90.4644 116.422L92.4332 114.828L89.9644 115.328L89.0269 112.953ZM104.061 110.516L105.561 118.047L98.3734 120.797L106.03 121.672L106.286 127.165C106.825 127.347 106.908 127.373 107.345 127.509L109.592 122.36L110.28 122.547L109.498 116.172L108.873 116.516L104.061 110.516ZM80.8879 110.568L75.9504 111.661L75.7316 111.068C74.5269 113.727 73.4562 116.238 72.4504 118.662L75.2942 115.443L79.5754 118.13L77.0129 113.786L80.8879 110.568ZM99.7139 99.3287L99.9951 104.141L95.3076 105.204L99.9326 106.422L99.4951 111.204L102.089 107.141L106.526 109.047L103.464 105.329L106.651 101.735L102.151 103.485L99.7139 99.3287ZM84.9919 93.2545C84.6676 93.7885 84.3423 94.3345 84.0231 94.8795L83.8669 98.8795L81.6169 99.1607C81.2368 99.8656 80.8623 100.574 80.4919 101.286L83.4607 102.38L82.0545 109.692L86.6483 103.848L93.1795 107.411L89.0233 101.255L94.4608 96.1607L87.3046 98.1919L84.9919 93.2545ZM122.143 89.4527L120.268 90.4214L122.737 90.3901C122.542 90.0808 122.336 89.7655 122.143 89.4527ZM106.071 89.0894L104.04 89.4019L106.196 90.1207L106.071 89.0894ZM120.389 85.4976L114.733 87.2476C115.584 87.6658 116.297 88.1999 117.108 88.7476L120.389 85.4976ZM101.151 84.1099L98.1821 87.3287L94.5258 84.9225L96.6821 88.735L93.2446 91.485L97.5571 90.6413L99.1196 94.7351L99.6196 90.3601L103.995 90.1726L99.9946 88.3288L101.151 84.1099ZM110.902 81.5191L110.871 86.2379C111.959 86.3481 112.834 86.5332 113.558 86.8004L110.902 81.5191ZM94.3679 82.1812L91.4617 83.8374L91.4304 83.8687C90.8497 84.5671 90.2835 85.3296 89.7116 86.0875L90.1803 86.15L90.3365 89.525L91.7428 86.4312L95.024 87.3062L92.524 85.025L94.3679 82.1812ZM103.006 76.0132C101.417 76.2574 99.7647 76.8094 98.1306 77.7007L96.9431 79.9819L100.631 77.3881L103.818 80.6069L102.474 76.2944L103.006 76.0132Z" fill="url(#paint7_linear_1_480)"/>
<path fill-rule="evenodd" clip-rule="evenodd" d="M49.6039 178.275C60.2648 189.996 31.8502 203.668 36.2469 230.387C37.0595 235.326 20.0516 222.945 23.6167 199.666C27.084 177.027 39.144 168.251 49.6039 178.275Z" fill="white" stroke="black" stroke-width="1.58338"/>
<path fill-rule="evenodd" clip-rule="evenodd" d="M49.6039 178.275C60.2648 189.996 6.52327 219.794 36.3367 229.493C37.3711 229.248 20.0524 222.946 23.6176 199.666C27.0849 177.027 39.144 168.251 49.6039 178.275Z" fill="url(#paint8_radial_1_480)" stroke="black" stroke-width="1.58338"/>
<path d="M39.8695 135.617C41.0176 143.707 35.3903 151.196 27.3007 152.344C19.2112 153.492 11.7224 147.864 10.5743 139.775C9.42622 131.685 15.0535 124.197 23.1431 123.048C31.2326 121.9 38.7214 127.528 39.8695 135.617Z" fill="url(#paint9_radial_1_480)"/>
<path d="M34.6982 136.351C35.4374 141.56 31.8142 146.382 26.6056 147.121C21.3969 147.86 16.5752 144.237 15.8359 139.028C15.0967 133.82 18.72 128.998 23.9286 128.259C29.1372 127.519 33.959 131.143 34.6982 136.351Z" fill="url(#paint10_linear_1_480)"/>
<path d="M28.6878 131.831C29.3499 133.843 27.5717 136.235 24.7162 137.175C21.8607 138.115 19.0091 137.246 18.347 135.234C17.6849 133.222 19.4631 130.829 22.3186 129.89C25.174 128.95 28.0257 129.819 28.6878 131.831Z" fill="url(#paint11_radial_1_480)"/>
<path d="M21.5437 144.886C20.0347 142.447 21.5162 138.797 24.8527 136.732C28.1891 134.668 32.1171 134.971 33.6261 137.41C35.135 139.848 33.6535 143.499 30.3171 145.563C26.9807 147.628 23.0526 147.324 21.5437 144.886Z" fill="url(#paint12_radial_1_480)"/>
<path d="M19.7675 121.063C16.1584 121.684 14.5533 123.681 13.5208 126.102C13.8758 131.935 11.4064 134.366 7.41337 134.925C5.96825 137.755 5.69987 140.426 9.04609 142.575C14.1304 144.317 14.2214 149.837 16.7856 153.486C19.5291 155.357 20.0715 153.394 23.0321 152.476C25.7135 157.156 23.2331 156.85 23.263 158.833L23.0888 166.54C22.7468 169.797 19.9876 174.125 26.353 175.7C27.8425 176.713 28.8196 179.855 29.8279 182.84C30.5159 190.638 31.924 191.445 33.0614 194.937C30.1071 197.783 34.6972 204.812 34.9776 208.439C34.0399 211.489 33.1477 210.577 32.1534 220.774C29.5505 223.317 28.0136 225.873 27.7216 228.44C27.2336 234.219 24.9129 232.568 26.861 248.13C28.8399 254.189 31.0652 250.047 33.1992 249.692C35.5382 248.592 38.6574 248.072 35.9276 243.163C36.2216 235.499 36.2584 232.658 36.3413 228.734C38.6005 225.965 41.5671 223.235 40.0358 220.253C42.194 219.685 45.1593 217.21 41.1895 211.213C44.9917 206.168 43.9099 204.928 42.8745 203.639L39.6715 196.137C39.7768 192.552 38.85 189.673 38.3087 186.535C37.7327 183.797 35.2316 179.38 31.9699 174.282C31.9277 171.058 33.6808 167.438 29.4579 165.165C30.5076 160.886 32.9848 156.127 30.186 153.127C32.622 152.188 35.5947 154.032 37.2674 149.064C38.6248 147.726 40.2656 150.76 41.1314 141.777C41.0273 139.75 43.1151 140.568 39.7735 134.312C39.0526 132.477 42.1359 130.121 35.9697 129.059C36.5072 125.266 33.9856 123.15 30.6014 121.541C29.2712 118.827 26.5091 120.441 24.1022 120.947C22.4053 120.809 20.9708 120.858 19.7677 121.065L19.7675 121.063ZM23.4732 129.106C24.1652 129.008 25.2254 128.139 25.8973 128.179C26.5693 128.22 26.8186 128.166 27.4487 128.357C28.8305 128.774 28.4479 129.129 29.0332 129.413C29.6185 129.697 30.1153 129.557 30.6343 129.945C31.1532 130.334 31.39 131.727 31.8269 132.209C32.2639 132.69 33.06 132.337 33.3995 132.9C33.739 133.463 33.6868 134.112 33.9134 134.746C34.14 135.379 34.0497 136.674 34.148 137.366C34.3444 138.75 34.5002 138.738 34.1614 140.009C33.8226 141.28 33.6411 142.159 32.8605 143.195C32.08 144.23 31.2209 143.518 30.0919 144.195C28.963 144.873 27.8687 146.648 26.4847 146.844C25.1007 147.041 23.8394 147.28 22.5689 146.943C21.2984 146.607 21.4293 146.581 20.3945 145.804C19.3597 145.026 17.8303 143.698 17.1536 142.571C16.4768 141.444 17.2687 140.333 17.0723 138.949C16.8759 137.565 15.8133 136.421 16.1498 135.15C16.4863 133.88 15.6765 134.879 18.4385 132.022C19.5534 130.869 19.1541 130.424 20.2798 129.769C21.416 129.109 22.0891 129.303 23.4732 129.106Z" fill="#765700" stroke="black" stroke-width="0.787746"/>
<path opacity="0.3356" d="M19.7675 121.063C16.1584 121.684 14.5533 123.681 13.5208 126.102C13.8758 131.935 11.4064 134.366 7.41337 134.925C5.96825 137.755 5.69987 140.426 9.04609 142.575C14.1304 144.317 14.2214 149.837 16.7856 153.486C19.5291 155.357 20.0715 153.394 23.0321 152.476C25.7135 157.156 23.2331 156.85 23.263 158.833L23.0888 166.54C22.7468 169.797 19.9876 174.125 26.353 175.7C27.8425 176.713 28.8196 179.855 29.8279 182.84C30.5159 190.638 31.924 191.445 33.0614 194.937C30.1071 197.783 34.6972 204.812 34.9776 208.439C34.0399 211.489 33.1477 210.577 32.1534 220.774C29.5505 223.317 28.0136 225.873 27.7216 228.44C27.2336 234.219 24.9129 232.568 26.861 248.13C28.8399 254.189 31.0652 250.047 33.1992 249.692C35.5382 248.592 38.6574 248.072 35.9276 243.163C36.2216 235.499 36.2584 232.658 36.3413 228.734C38.6005 225.965 41.5671 223.235 40.0358 220.253C42.194 219.685 45.1593 217.21 41.1895 211.213C44.9917 206.168 43.9099 204.928 42.8745 203.639L39.6715 196.137C39.7768 192.552 38.85 189.673 38.3087 186.535C37.7327 183.797 35.2316 179.38 31.9699 174.282C31.9277 171.058 33.6808 167.438 29.4579 165.165C30.5076 160.886 32.9848 156.127 30.186 153.127C32.622 152.188 35.5947 154.032 37.2674 149.064C38.6248 147.726 40.2656 150.76 41.1314 141.777C41.0273 139.75 43.1151 140.568 39.7735 134.312C39.0526 132.477 42.1359 130.121 35.9697 129.059C36.5072 125.266 33.9856 123.15 30.6014 121.541C29.2712 118.827 26.5091 120.441 24.1022 120.947C22.4053 120.809 20.9708 120.858 19.7677 121.065L19.7675 121.063ZM23.4732 129.106C24.1652 129.008 25.2254 128.139 25.8973 128.179C26.5693 128.22 26.8186 128.166 27.4487 128.357C28.8305 128.774 28.4479 129.129 29.0332 129.413C29.6185 129.697 30.1153 129.557 30.6343 129.945C31.1532 130.334 31.39 131.727 31.8269 132.209C32.2639 132.69 33.06 132.337 33.3995 132.9C33.739 133.463 33.6868 134.112 33.9134 134.746C34.14 135.379 34.0497 136.674 34.148 137.366C34.3444 138.75 34.5002 138.738 34.1614 140.009C33.8226 141.28 33.6411 142.159 32.8605 143.195C32.08 144.23 31.2209 143.518 30.0919 144.195C28.963 144.873 27.8687 146.648 26.4847 146.844C25.1007 147.041 23.8394 147.28 22.5689 146.943C21.2984 146.607 21.4293 146.581 20.3945 145.804C19.3597 145.026 17.8303 143.698 17.1536 142.571C16.4768 141.444 17.2687 140.333 17.0723 138.949C16.8759 137.565 15.8133 136.421 16.1498 135.15C16.4863 133.88 15.6765 134.879 18.4385 132.022C19.5534 130.869 19.1541 130.424 20.2798 129.769C21.416 129.109 22.0891 129.303 23.4732 129.106Z" fill="url(#paint13_radial_1_480)"/>
<path d="M30.6276 154.809C29.1545 151.92 27.2512 153.401 27.3621 156.813C26.0069 160.463 27.2282 161.979 27.9751 163.661C28.4123 164.691 28.6087 163.704 29.3101 163.809C30.3055 163.312 31.1986 159.447 30.6276 154.809Z" fill="url(#paint14_radial_1_480)" stroke="#302112" stroke-width="0.654664" stroke-linecap="round" stroke-linejoin="round"/>
<path d="M22.8727 168.17C23.3526 167.723 23.0931 166.721 24.5744 167.026C26.1245 166.952 26.7504 167.924 27.2506 169.037C28.4321 171.137 27.769 172.25 27.5573 173.604C27.5263 175.116 26.8951 175.07 26.4675 175.552C23.475 174.668 21.0419 173.293 22.8727 168.17Z" fill="url(#paint15_radial_1_480)" stroke="#302112" stroke-width="0.708971" stroke-linecap="round" stroke-linejoin="round"/>
<path d="M32.5143 183.24C32.6189 183.736 32.9397 184.201 33.4749 184.636C34.4795 186.431 35.2635 187.959 35.2168 188.487C35.9982 192.744 35.7454 192.77 35.4333 193.622C34.423 195.579 36.4642 197.592 37.3583 199.967" stroke="#302112" stroke-width="0.787746" stroke-linecap="round" stroke-linejoin="round"/>
<path d="M41.343 211.306C40.4103 211.324 38.8177 210.605 38.3635 211.864C36.9542 213.348 36.8327 214.155 36.8304 214.9C36.7742 216.379 36.9736 217.095 37.2224 217.662C37.7925 219.747 39.28 219.753 40.1362 220.272C43.4526 218.925 44.2096 216.137 41.343 211.306Z" fill="url(#paint16_radial_1_480)" stroke="#302112" stroke-width="0.708971" stroke-linecap="round" stroke-linejoin="round"/>
<path d="M31.9082 221.071L33.0017 220.524C33.807 220.551 34.6435 220.509 34.4745 222.704C34.2633 224.515 34.0787 226.512 33.7964 227.821C33.2468 230.647 32.5582 230.714 31.9391 232.16C30.5652 234.578 29.606 234.159 28.4814 234.871C26.6313 234.958 26.5363 234.015 26.7991 232.934C28.0735 229.04 27.4459 225.417 31.9082 221.071Z" fill="url(#paint17_radial_1_480)" stroke="#302112" stroke-width="0.708971" stroke-linecap="round" stroke-linejoin="round"/>
<path fill-rule="evenodd" clip-rule="evenodd" d="M35.4697 212.78C35.818 215.284 36.1821 218.003 35.8467 220.957C35.5113 223.911 36.9648 226.403 37.5144 229.743C37.616 230.36 37.4391 230.707 37.0588 230.795C36.6785 230.884 36.0947 230.715 35.3824 230.3C34.6701 229.885 32.6812 229.242 31.7869 228.349C30.8927 227.455 29.6767 226.955 28.7506 225.608C27.8244 224.261 26.9198 222.693 26.1116 220.918C25.3034 219.143 25.0389 216.936 24.4987 214.757C29.1874 206.844 33.7902 200.141 35.4697 212.78Z" fill="white" stroke="black" stroke-width="1.58338"/>
<path fill-rule="evenodd" clip-rule="evenodd" d="M34.0399 211.932C33.3109 214.582 32.9891 217.424 33.2675 220.489C33.5459 223.555 35.4549 224.912 37.1269 228.457C38.0679 230.451 37.5262 230.984 36.24 230.296C34.9538 229.609 31.893 229.633 29.8562 226.749C28.8378 225.307 27.8179 223.621 26.8886 221.721C25.9593 219.821 25.3784 216.935 24.7229 214.637C22.5518 187.789 32.9728 196.356 34.0399 211.932Z" fill="url(#paint18_radial_1_480)" stroke="black" stroke-width="1.58338"/>
</g>
<path fill-rule="evenodd" clip-rule="evenodd" d="M131.793 188.609C121.545 176.525 150.416 163.847 146.949 136.991C146.309 132.027 162.877 144.991 158.506 168.132C154.255 190.638 141.898 198.99 131.793 188.609Z" fill="white" stroke="black" stroke-width="1.58338"/>
<path fill-rule="evenodd" clip-rule="evenodd" d="M131.793 188.609C121.545 176.525 159.333 165.792 146.949 136.991C143.465 128.886 162.877 144.991 158.506 168.132C154.255 190.638 141.898 198.99 131.793 188.609Z" fill="url(#paint19_radial_1_480)" stroke="black" stroke-width="1.58338"/>
<g clip-path="url(#clip1_1_480)">
<path d="M21.9096 4.25077L90.2685 9.12427C97.6066 9.12427 103.493 15.0154 103.493 22.3597L99.2839 63.9311C99.2839 71.2754 94.5897 76.6074 87.2519 76.6074L72.3136 76.8684L75.8284 92.2782L53.7623 77.1664L30.9891 77.8002C23.651 77.8002 14.1335 71.2691 14.1335 63.9249L7.46948 19.9364C7.46948 12.5921 14.5719 4.25077 21.9096 4.25077Z" fill="#CCCCCC" stroke="#CCCCCC" stroke-width="2" stroke-linecap="round" stroke-linejoin="round"/>
<path d="M16.4401 0.000160474L84.799 4.87371C92.1371 4.87371 98.0238 10.7649 98.0238 18.1092L93.8144 59.6805C93.8144 67.0248 89.1203 72.3568 81.7824 72.3568L66.8442 72.6178L70.3589 88.0276L48.2928 72.9158L25.5196 73.5496C18.1815 73.5496 8.66403 67.0185 8.66403 59.6744L2 15.6859C2 8.34153 9.10238 0.000160474 16.4401 0.000160474Z" fill="white" stroke="black" stroke-width="2" stroke-linecap="round" stroke-linejoin="round"/>
</g>
<defs>
<linearGradient id="paint0_linear_1_480" x1="199.27" y1="182.1" x2="205.99" y2="128.92" gradientUnits="userSpaceOnUse">
<stop stop-color="#000079"/>
<stop offset="1" stop-color="#000079"/>
</linearGradient>
<radialGradient id="paint1_radial_1_480" cx="0" cy="0" r="1" gradientTransform="matrix(-0.000212764 34.5545 -71.1005 0 99.6779 -76.4963)" gradientUnits="userSpaceOnUse">
<stop stop-color="#FFB142"/>
<stop offset="0.8868" stop-color="#FFB141"/>
<stop offset="1" stop-color="#C87600"/>
</radialGradient>
<radialGradient id="paint2_radial_1_480" cx="0" cy="0" r="1" gradientTransform="matrix(0 -80.7958 68.3556 -0.000210154 52.1601 103.778)" gradientUnits="userSpaceOnUse">
<stop stop-color="#A5A5A5"/>
<stop offset="1"/>
</radialGradient>
<linearGradient id="paint3_linear_1_480" x1="84.43" y1="-220.22" x2="88.5" y2="-220.22" gradientUnits="userSpaceOnUse">
<stop stop-color="#FFB142"/>
<stop offset="1" stop-color="#C87600"/>
</linearGradient>
<linearGradient id="paint4_linear_1_480" x1="52.8899" y1="119.75" x2="139.45" y2="122.81" gradientUnits="userSpaceOnUse">
<stop stop-color="#0000AB"/>
<stop offset="1" stop-color="#00005C"/>
</linearGradient>
<linearGradient id="paint5_linear_1_480" x1="61.4505" y1="132.324" x2="121.499" y2="144.743" gradientUnits="userSpaceOnUse">
<stop/>
<stop offset="0.5"/>
<stop offset="1"/>
</linearGradient>
<linearGradient id="paint6_linear_1_480" x1="46.39" y1="142.25" x2="112.93" y2="121.43" gradientUnits="userSpaceOnUse">
<stop stop-color="#0000C5"/>
<stop offset="1" stop-color="#00006B"/>
</linearGradient>
<linearGradient id="paint7_linear_1_480" x1="78.18" y1="105.94" x2="110.48" y2="114.6" gradientUnits="userSpaceOnUse">
<stop stop-color="#FFE257"/>
<stop offset="1" stop-color="#D7B200"/>
</linearGradient>
<radialGradient id="paint8_radial_1_480" cx="0" cy="0" r="1" gradientTransform="matrix(19.9132 -39.2994 32.9716 16.7065 58.1865 150.386)" gradientUnits="userSpaceOnUse">
<stop stop-color="#A5A5A5"/>
<stop offset="1"/>
</radialGradient>
<radialGradient id="paint9_radial_1_480" cx="0" cy="0" r="1" gradientTransform="matrix(12.8182 -1.5429 1.52397 12.6616 25.2184 137.696)" gradientUnits="userSpaceOnUse">
<stop stop-opacity="0.5415"/>
<stop offset="1" stop-opacity="0"/>
</radialGradient>
<linearGradient id="paint10_linear_1_480" x1="-39.0771" y1="138.617" x2="-37.091" y2="152.611" gradientUnits="userSpaceOnUse">
<stop stop-color="#1F593A"/>
<stop offset="1" stop-color="#2FEA8F"/>
</linearGradient>
<radialGradient id="paint11_radial_1_480" cx="0" cy="0" r="1" gradientTransform="matrix(3.36546 7.39763 -8.42769 3.83391 21.7631 128.93)" gradientUnits="userSpaceOnUse">
<stop stop-color="white" stop-opacity="0.8745"/>
<stop offset="1" stop-color="white" stop-opacity="0"/>
</radialGradient>
<radialGradient id="paint12_radial_1_480" cx="0" cy="0" r="1" gradientTransform="matrix(6.14933 -3.805 3.23056 5.22095 28.7276 143.228)" gradientUnits="userSpaceOnUse">
<stop stop-color="white"/>
<stop offset="1" stop-color="white" stop-opacity="0"/>
</radialGradient>
<radialGradient id="paint13_radial_1_480" cx="0" cy="0" r="1" gradientUnits="userSpaceOnUse" gradientTransform="translate(25.2493 137.32) rotate(-8.07764) scale(17.8275)">
<stop stop-color="#4A3600"/>
<stop offset="0.6475" stop-color="#DECFA7"/>
<stop offset="1" stop-color="#392A00"/>
</radialGradient>
<radialGradient id="paint14_radial_1_480" cx="0" cy="0" r="1" gradientTransform="matrix(1.79124 0.262557 -0.491594 5.52004 28.8669 158.831)" gradientUnits="userSpaceOnUse">
<stop stop-color="#231A00"/>
<stop offset="0.4544" stop-color="#756331"/>
<stop offset="1" stop-color="#2E2200"/>
</radialGradient>
<radialGradient id="paint15_radial_1_480" cx="0" cy="0" r="1" gradientTransform="matrix(2.31006 -0.580656 0.966881 3.84644 25.0909 171.037)" gradientUnits="userSpaceOnUse">
<stop stop-color="#4A3600" stop-opacity="0.6576"/>
<stop offset="0.6475" stop-color="#DECFA7" stop-opacity="0.3831"/>
<stop offset="1" stop-color="#392A00" stop-opacity="0.3763"/>
</radialGradient>
<radialGradient id="paint16_radial_1_480" cx="0" cy="0" r="1" gradientTransform="matrix(2.55916 0.183643 -0.284233 3.96154 39.9179 215.659)" gradientUnits="userSpaceOnUse">
<stop stop-color="#4A3600" stop-opacity="0.6576"/>
<stop offset="0.6475" stop-color="#DECFA7" stop-opacity="0.3831"/>
<stop offset="1" stop-color="#392A00" stop-opacity="0.3763"/>
</radialGradient>
<radialGradient id="paint17_radial_1_480" cx="0" cy="0" r="1" gradientTransform="matrix(2.27404 0.926525 -2.84318 6.9779 30.7562 227.82)" gradientUnits="userSpaceOnUse">
<stop stop-color="#4A3600" stop-opacity="0.6576"/>
<stop offset="0.6475" stop-color="#DECFA7" stop-opacity="0.3831"/>
<stop offset="1" stop-color="#392A00" stop-opacity="0.3763"/>
</radialGradient>
<radialGradient id="paint18_radial_1_480" cx="0" cy="0" r="1" gradientTransform="matrix(19.9132 -39.2995 32.9716 16.7065 58.0365 150.386)" gradientUnits="userSpaceOnUse">
<stop stop-color="#A5A5A5"/>
<stop offset="1"/>
</radialGradient>
<radialGradient id="paint19_radial_1_480" cx="0" cy="0" r="1" gradientUnits="userSpaceOnUse" gradientTransform="translate(111.643 202.86) rotate(118.859) scale(44.0567 36.9623)">
<stop stop-color="#A5A5A5"/>
<stop offset="1"/>
</radialGradient>
<clipPath id="clip0_1_480">
<rect width="136.82" height="177.79" fill="white" transform="translate(6 75)"/>
</clipPath>
<clipPath id="clip1_1_480">
<rect width="101" height="92" fill="white"/>
</clipPath>
</defs>
</svg>
