<svg width="23" height="23" viewBox="0 0 23 23" fill="none" xmlns="http://www.w3.org/2000/svg">
<g clip-path="url(#clip0_1_8302)">
<path d="M11.4446 2.4452C14.4134 2.4452 14.7649 2.45822 15.9325 2.51031C17.0175 2.55805 17.6035 2.74034 17.9941 2.89225C18.5106 3.09191 18.8838 3.33496 19.2701 3.72125C19.6608 4.11187 19.8995 4.48079 20.0991 4.99729C20.251 5.38791 20.4333 5.97819 20.4811 7.05892C20.5332 8.23079 20.5462 8.58236 20.5462 11.5468C20.5462 14.5155 20.5332 14.8671 20.4811 16.0346C20.4333 17.1197 20.251 17.7056 20.0991 18.0962C19.8995 18.6127 19.6564 18.986 19.2701 19.3723C18.8795 19.7629 18.5106 20.0016 17.9941 20.2013C17.6035 20.3532 17.0132 20.5355 15.9325 20.5832C14.7606 20.6353 14.409 20.6483 11.4446 20.6483C8.47586 20.6483 8.1243 20.6353 6.95676 20.5832C5.87169 20.5355 5.28575 20.3532 4.89513 20.2013C4.37864 20.0016 4.00537 19.7586 3.61909 19.3723C3.22846 18.9817 2.98975 18.6127 2.79009 18.0962C2.63818 17.7056 2.45589 17.1153 2.40815 16.0346C2.35607 14.8627 2.34304 14.5112 2.34304 11.5468C2.34304 8.57802 2.35607 8.22645 2.40815 7.05892C2.45589 5.97385 2.63818 5.38791 2.79009 4.99729C2.98975 4.48079 3.2328 4.10753 3.61909 3.72125C4.00971 3.33062 4.37864 3.09191 4.89513 2.89225C5.28575 2.74034 5.87603 2.55805 6.95676 2.51031C8.1243 2.45822 8.47586 2.4452 11.4446 2.4452ZM11.4446 0.444336C8.42811 0.444336 8.05051 0.457357 6.86561 0.50944C5.68506 0.561523 4.87343 0.752496 4.1703 1.02593C3.43679 1.31239 2.81614 1.69 2.19982 2.31066C1.57916 2.92698 1.20155 3.54764 0.915093 4.2768C0.641656 4.98427 0.450684 5.79156 0.3986 6.97211C0.346517 8.16135 0.333496 8.53895 0.333496 11.5554C0.333496 14.5719 0.346517 14.9495 0.3986 16.1344C0.450684 17.315 0.641656 18.1266 0.915093 18.8298C1.20155 19.5633 1.57916 20.1839 2.19982 20.8002C2.81614 21.4166 3.4368 21.7985 4.16596 22.0806C4.87343 22.3541 5.68072 22.545 6.86127 22.5971C8.04617 22.6492 8.42377 22.6622 11.4403 22.6622C14.4568 22.6622 14.8344 22.6492 16.0193 22.5971C17.1998 22.545 18.0114 22.3541 18.7146 22.0806C19.4437 21.7985 20.0644 21.4166 20.6807 20.8002C21.297 20.1839 21.679 19.5633 21.9611 18.8341C22.2345 18.1266 22.4255 17.3193 22.4776 16.1388C22.5297 14.9539 22.5427 14.5763 22.5427 11.5598C22.5427 8.54329 22.5297 8.16569 22.4776 6.98079C22.4255 5.80024 22.2345 4.98861 21.9611 4.28548C21.6877 3.54763 21.3101 2.92698 20.6894 2.31066C20.0731 1.69434 19.4524 1.31239 18.7233 1.03027C18.0158 0.756836 17.2085 0.565864 16.0279 0.51378C14.8387 0.457357 14.4611 0.444336 11.4446 0.444336Z" fill="#EDEDED"/>
<path d="M11.4445 5.84814C8.29348 5.84814 5.73706 8.40457 5.73706 11.5556C5.73706 14.7067 8.29348 17.2631 11.4445 17.2631C14.5956 17.2631 17.152 14.7067 17.152 11.5556C17.152 8.40457 14.5956 5.84814 11.4445 5.84814ZM11.4445 15.2579C9.40026 15.2579 7.74227 13.5999 7.74227 11.5556C7.74227 9.51134 9.40026 7.85335 11.4445 7.85335C13.4888 7.85335 15.1468 9.51134 15.1468 11.5556C15.1468 13.5999 13.4888 15.2579 11.4445 15.2579Z" fill="#EDEDED"/>
<path d="M18.7103 5.62251C18.7103 6.36035 18.1114 6.95497 17.3779 6.95497C16.64 6.95497 16.0454 6.35601 16.0454 5.62251C16.0454 4.88466 16.6444 4.29004 17.3779 4.29004C18.1114 4.29004 18.7103 4.889 18.7103 5.62251Z" fill="#EDEDED"/>
</g>
<defs>
<clipPath id="clip0_1_8302">
<rect width="22.2222" height="22.2222" fill="white" transform="translate(0.333496 0.444336)"/>
</clipPath>
</defs>
</svg>
