<svg width="23" height="23" viewBox="0 0 23 23" fill="none" xmlns="http://www.w3.org/2000/svg">
<g clip-path="url(#clip0_1_8307)">
<path d="M20.7997 0.444336H1.86304C0.955919 0.444336 0.222412 1.16048 0.222412 2.0459V21.0607C0.222412 21.9461 0.955919 22.6666 1.86304 22.6666H20.7997C21.7068 22.6666 22.4446 21.9461 22.4446 21.065V2.0459C22.4446 1.16048 21.7068 0.444336 20.7997 0.444336ZM6.81529 19.381H3.51668V8.77333H6.81529V19.381ZM5.16599 7.32802C4.10696 7.32802 3.25193 6.47298 3.25193 5.41829C3.25193 4.36361 4.10696 3.50857 5.16599 3.50857C6.22068 3.50857 7.07571 4.36361 7.07571 5.41829C7.07571 6.46864 6.22068 7.32802 5.16599 7.32802ZM19.159 19.381H15.8648V14.2247C15.8648 12.9964 15.8431 11.4122 14.1504 11.4122C12.436 11.4122 12.1755 12.7534 12.1755 14.1379V19.381H8.88561V8.77333H12.0453V10.223H12.0887C12.5271 9.38965 13.6035 8.50857 15.2051 8.50857C18.5427 8.50857 19.159 10.7048 19.159 13.5607V19.381Z" fill="#EDEDED"/>
</g>
<defs>
<clipPath id="clip0_1_8307">
<rect width="22.2222" height="22.2222" fill="white" transform="translate(0.222412 0.444336)"/>
</clipPath>
</defs>
</svg>
