<svg width="209" height="43" viewBox="0 0 209 43" fill="none" xmlns="http://www.w3.org/2000/svg">
<path d="M26.2183 42.4034V18.1647L36.3829 8.00011L46.5475 18.1647L48.1113 19.7285" stroke="#E6E8EE" stroke-width="11.1111"/>
<path d="M5.88916 42.4034V18.1647L16.0538 8.00011L26.2184 18.1647V42.4034" stroke="#E6E8EE" stroke-width="11.1111"/>
<path d="M72.5889 34.3777C71.7963 34.3777 71 34.3148 70.2 34.1889C69.4074 34.0703 68.6741 33.9 68 33.6777V30.7444C68.4667 30.9 68.963 31.0333 69.4889 31.1444C70.0148 31.2481 70.5407 31.3296 71.0667 31.3889C71.6 31.4481 72.1037 31.4777 72.5778 31.4777C73.6815 31.4777 74.463 31.3111 74.9222 30.9777C75.3815 30.637 75.6111 30.1629 75.6111 29.5555C75.6111 29.0444 75.4407 28.6444 75.1 28.3555C74.7667 28.0666 74.1407 27.8037 73.2222 27.5666L71.9778 27.2444C70.5407 26.8815 69.4519 26.3185 68.7111 25.5555C67.9778 24.7852 67.6111 23.7703 67.6111 22.5111C67.6111 20.9407 68.1778 19.7148 69.3111 18.8333C70.4519 17.9518 72.1667 17.5111 74.4556 17.5111C75.1963 17.5111 75.9 17.5555 76.5667 17.6444C77.2407 17.7259 77.837 17.8407 78.3556 17.9889V20.9222C77.8296 20.7592 77.2444 20.6333 76.6 20.5444C75.9556 20.4555 75.3074 20.4111 74.6556 20.4111C73.7963 20.4111 73.1148 20.4926 72.6111 20.6555C72.1074 20.8111 71.7444 21.0333 71.5222 21.3222C71.3074 21.6111 71.2 21.9444 71.2 22.3222C71.2 22.8037 71.3481 23.1815 71.6444 23.4555C71.9407 23.7296 72.4963 23.9777 73.3111 24.2L74.5444 24.5222C75.6111 24.7815 76.4889 25.1259 77.1778 25.5555C77.8667 25.9777 78.3741 26.5 78.7 27.1222C79.0333 27.737 79.2 28.4666 79.2 29.3111C79.2 30.3629 78.937 31.2703 78.4111 32.0333C77.8926 32.7889 77.1407 33.3703 76.1556 33.7777C75.1704 34.1777 73.9815 34.3777 72.5889 34.3777ZM91.1594 34.1666L85.426 25.7889L90.8149 17.7222H94.6149L88.9594 26.1889L89.0149 25.2555L95.0927 34.1666H91.1594ZM81.2816 34.1666V17.7222H84.8927V34.1666H81.2816ZM84.3927 27.3444V24.1666H86.8483V27.3444H84.3927ZM106.293 34.3555C105.841 34.3555 105.344 34.3407 104.804 34.3111C104.27 34.2889 103.73 34.2518 103.181 34.2C102.641 34.1555 102.133 34.1 101.659 34.0333V18.0889C102.17 17.9777 102.718 17.8815 103.304 17.8C103.889 17.7111 104.489 17.6444 105.104 17.6C105.726 17.5481 106.337 17.5222 106.937 17.5222C108.567 17.5222 109.896 17.6926 110.926 18.0333C111.963 18.3666 112.726 18.874 113.215 19.5555C113.704 20.2296 113.948 21.0777 113.948 22.1C113.948 22.7074 113.83 23.2666 113.593 23.7777C113.363 24.2815 113.026 24.7074 112.581 25.0555C112.137 25.4037 111.596 25.6407 110.959 25.7666L110.97 25.6222C112.015 25.7703 112.844 26.174 113.459 26.8333C114.081 27.4852 114.393 28.3926 114.393 29.5555C114.393 30.3185 114.248 31 113.959 31.6C113.67 32.1926 113.207 32.6963 112.57 33.1111C111.933 33.5185 111.096 33.8296 110.059 34.0444C109.03 34.2518 107.774 34.3555 106.293 34.3555ZM107.259 31.7222C108.222 31.7222 108.978 31.637 109.526 31.4666C110.081 31.2963 110.474 31.0407 110.704 30.7C110.941 30.3592 111.059 29.9259 111.059 29.4C111.059 28.6074 110.811 28.0296 110.315 27.6666C109.826 27.2963 109.018 27.1111 107.893 27.1111H104.804V24.4111H107.548C108.281 24.4111 108.867 24.3333 109.304 24.1777C109.748 24.0148 110.067 23.7777 110.259 23.4666C110.459 23.1555 110.559 22.7629 110.559 22.2889C110.559 21.5407 110.322 21 109.848 20.6666C109.374 20.3259 108.555 20.1555 107.393 20.1555C106.97 20.1555 106.581 20.174 106.226 20.2111C105.87 20.2407 105.522 20.2852 105.181 20.3444V31.6222C105.559 31.6592 105.911 31.6852 106.237 31.7C106.563 31.7148 106.904 31.7222 107.259 31.7222ZM123.326 34.3777C121.726 34.3777 120.415 34.1222 119.393 33.6111C118.371 33.1 117.615 32.3259 117.126 31.2889C116.637 30.2444 116.393 28.9333 116.393 27.3555V17.7222H119.993V27.7111C119.993 29.0148 120.271 29.9592 120.826 30.5444C121.382 31.1296 122.215 31.4222 123.326 31.4222C124.437 31.4222 125.267 31.1296 125.815 30.5444C126.371 29.9592 126.648 29.0148 126.648 27.7111V17.7222H130.182V27.3555C130.182 28.9333 129.941 30.2444 129.46 31.2889C128.978 32.3259 128.23 33.1 127.215 33.6111C126.2 34.1222 124.904 34.3777 123.326 34.3777ZM133.061 34.1666V17.7222H136.672V34.1666H133.061ZM139.637 34.1666V17.7222H143.248V31.1666H150.803V34.1666H139.637ZM156.908 34.3333C156.449 34.3333 155.967 34.3222 155.464 34.3C154.96 34.2852 154.449 34.2592 153.93 34.2222C153.412 34.1852 152.901 34.1333 152.397 34.0666V18.0889C152.908 17.9777 153.453 17.8815 154.03 17.8C154.616 17.7185 155.212 17.6555 155.819 17.6111C156.427 17.5666 157.023 17.5444 157.608 17.5444C160.593 17.5444 162.845 18.2259 164.364 19.5889C165.89 20.9444 166.653 23.0629 166.653 25.9444C166.653 27.9074 166.293 29.5074 165.575 30.7444C164.856 31.974 163.775 32.8815 162.33 33.4666C160.886 34.0444 159.079 34.3333 156.908 34.3333ZM157.841 31.4C158.982 31.4 159.93 31.2222 160.686 30.8666C161.449 30.5037 162.016 29.9222 162.386 29.1222C162.764 28.3148 162.953 27.2518 162.953 25.9333C162.953 24.6222 162.76 23.5666 162.375 22.7666C161.997 21.9592 161.43 21.374 160.675 21.0111C159.919 20.6407 158.982 20.4555 157.864 20.4555C157.582 20.4555 157.275 20.4703 156.941 20.5C156.608 20.5296 156.297 20.5703 156.008 20.6222V31.3222C156.312 31.3518 156.612 31.374 156.908 31.3889C157.212 31.3963 157.523 31.4 157.841 31.4ZM169.064 34.1666V17.7222H180.608V20.6111H172.63V31.2777H180.719V34.1666H169.064ZM171.208 27.2V24.3111H179.475V27.2H171.208ZM182.996 34.1666V18.0889C183.492 17.9777 184.022 17.8815 184.585 17.8C185.148 17.7111 185.729 17.6444 186.329 17.6C186.929 17.5481 187.533 17.5222 188.14 17.5222C190.503 17.5222 192.281 17.9518 193.474 18.8111C194.666 19.6629 195.263 20.9963 195.263 22.8111C195.263 23.9815 194.981 24.9629 194.418 25.7555C193.855 26.5407 193.052 27.1333 192.007 27.5333C190.97 27.9333 189.729 28.1333 188.285 28.1333C187.959 28.1333 187.659 28.1296 187.385 28.1222C187.111 28.1074 186.829 28.0926 186.54 28.0777V34.1666H182.996ZM192.674 34.1666L187.385 26.5666H191.252L196.618 34.1666H192.674ZM188.352 25.4444C189.544 25.4444 190.429 25.237 191.007 24.8222C191.585 24.4074 191.874 23.737 191.874 22.8111C191.874 22.2037 191.752 21.7074 191.507 21.3222C191.263 20.9296 190.892 20.6407 190.396 20.4555C189.9 20.2703 189.27 20.1777 188.507 20.1777C188.129 20.1777 187.781 20.1926 187.463 20.2222C187.144 20.2518 186.837 20.2963 186.54 20.3555V25.3555C186.755 25.3703 186.955 25.3889 187.14 25.4111C187.333 25.4259 187.526 25.437 187.718 25.4444C187.918 25.4444 188.129 25.4444 188.352 25.4444ZM202.124 34.3777C201.332 34.3777 200.536 34.3148 199.736 34.1889C198.943 34.0703 198.21 33.9 197.536 33.6777V30.7444C198.002 30.9 198.499 31.0333 199.024 31.1444C199.55 31.2481 200.076 31.3296 200.602 31.3889C201.136 31.4481 201.639 31.4777 202.113 31.4777C203.217 31.4777 203.999 31.3111 204.458 30.9777C204.917 30.637 205.147 30.1629 205.147 29.5555C205.147 29.0444 204.976 28.6444 204.636 28.3555C204.302 28.0666 203.676 27.8037 202.758 27.5666L201.513 27.2444C200.076 26.8815 198.987 26.3185 198.247 25.5555C197.513 24.7852 197.147 23.7703 197.147 22.5111C197.147 20.9407 197.713 19.7148 198.847 18.8333C199.987 17.9518 201.702 17.5111 203.991 17.5111C204.732 17.5111 205.436 17.5555 206.102 17.6444C206.776 17.7259 207.373 17.8407 207.891 17.9889V20.9222C207.365 20.7592 206.78 20.6333 206.136 20.5444C205.491 20.4555 204.843 20.4111 204.191 20.4111C203.332 20.4111 202.65 20.4926 202.147 20.6555C201.643 20.8111 201.28 21.0333 201.058 21.3222C200.843 21.6111 200.736 21.9444 200.736 22.3222C200.736 22.8037 200.884 23.1815 201.18 23.4555C201.476 23.7296 202.032 23.9777 202.847 24.2L204.08 24.5222C205.147 24.7815 206.024 25.1259 206.713 25.5555C207.402 25.9777 207.91 26.5 208.236 27.1222C208.569 27.737 208.736 28.4666 208.736 29.3111C208.736 30.3629 208.473 31.2703 207.947 32.0333C207.428 32.7889 206.676 33.3703 205.691 33.7777C204.706 34.1777 203.517 34.3777 202.124 34.3777Z" fill="#E6E8EE"/>
</svg>
