<svg width="124" height="124" viewBox="0 0 124 124" fill="none" xmlns="http://www.w3.org/2000/svg">
<circle cx="56.4442" cy="67.5556" r="55" stroke="white" stroke-opacity="0.5" stroke-width="1.11111"/>
<circle cx="67.5556" cy="56.4445" r="55" stroke="white" stroke-opacity="0.5" stroke-width="1.11111"/>
<path d="M25.474 39.2291L21.8137 28.4148L10.6868 26.4528L21.428 22.443L23.6556 11.0774L27.3159 21.8916L38.4429 23.8536L27.7017 27.8635L25.474 39.2291Z" fill="#E09B6B"/>
<path d="M22.2132 28.2684L22.1359 28.0403L21.8984 27.9978L12.2858 26.3028L21.5652 22.8387L21.7944 22.7535L21.8415 22.5128L23.7618 12.7169L26.9169 22.0375L26.9943 22.2665L27.2318 22.308L36.8444 24.003L27.565 27.4672L27.3358 27.5533L27.2887 27.7931L25.3685 37.5909L22.2132 28.2684Z" stroke="white" stroke-opacity="0.5" stroke-width="0.844444"/>
</svg>
