<svg width="23" height="23" viewBox="0 0 23 23" fill="none" xmlns="http://www.w3.org/2000/svg">
<g clip-path="url(#clip0_1_8300)">
<path d="M7.43547 20.5836C15.8191 20.5836 20.406 13.6361 20.406 7.61308C20.406 7.41777 20.4016 7.21811 20.3929 7.0228C21.2852 6.37752 22.0552 5.57826 22.6668 4.66256C21.8358 5.03228 20.9535 5.27375 20.05 5.3787C21.0013 4.80849 21.7136 3.91272 22.0548 2.85744C21.1599 3.3878 20.1812 3.76192 19.1607 3.96377C18.4731 3.23317 17.564 2.74943 16.5739 2.58733C15.5838 2.42523 14.5679 2.59381 13.6832 3.067C12.7986 3.54019 12.0944 4.29164 11.6796 5.20516C11.2649 6.11869 11.1626 7.14341 11.3886 8.12089C9.57652 8.02996 7.80378 7.55923 6.1853 6.73922C4.56683 5.91922 3.13874 4.76824 1.99363 3.36091C1.41162 4.36436 1.23352 5.55177 1.49553 6.68181C1.75755 7.81185 2.44001 8.79973 3.40422 9.44468C2.68035 9.42169 1.97234 9.2268 1.33868 8.8761V8.93252C1.33803 9.98557 1.70208 11.0063 2.36894 11.8213C3.0358 12.6363 3.96432 13.1952 4.99666 13.403C4.32611 13.5865 3.62234 13.6132 2.93981 13.4811C3.23111 14.3868 3.79789 15.1788 4.56103 15.7468C5.32418 16.3149 6.24562 16.6304 7.19675 16.6495C5.58201 17.9179 3.58733 18.6059 1.53399 18.6027C1.16985 18.6021 0.806061 18.5798 0.44458 18.5358C2.53056 19.8741 4.95711 20.5849 7.43547 20.5836Z" fill="#EDEDED"/>
</g>
<defs>
<clipPath id="clip0_1_8300">
<rect width="22.2222" height="22.2222" fill="white" transform="translate(0.44458 0.444336)"/>
</clipPath>
</defs>
</svg>
